<svg width="115" height="112" viewBox="0 0 115 112" fill="none" xmlns="http://www.w3.org/2000/svg">
<path d="M38.729 126.504C48.5562 129.583 58.9788 131.426 69.3256 130.916C74.2096 130.675 79.17 129.927 83.8759 128.613C88.4832 127.327 92.7965 125.142 96.811 122.613C100.648 120.195 104.223 117.359 107.284 114.044C110.161 110.928 112.608 107.44 114.612 103.73C118.613 96.3221 120.889 88.0852 121.694 79.766C122.553 70.8948 121.488 61.9436 117.756 53.755C116.822 51.7049 115.726 49.7245 114.469 47.8451C114.176 47.4057 113.796 46.9781 113.543 46.5171C113.275 46.0298 113.837 45.411 114.068 44.9487C114.597 43.8888 115.056 42.7928 115.435 41.6731C116.936 37.2367 117.074 32.4659 115.747 27.973C113.288 19.65 106.84 12.6979 99.5095 8.06768C91.6479 3.10196 82.4094 0.645889 73.1021 0.235366C68.0324 0.011769 62.9452 0.383342 57.9443 1.20762C53.5536 1.93127 49.1891 3.02763 45.1646 4.92315C41.3262 6.73104 37.8176 9.33174 35.4463 12.8276C33.2758 16.0271 31.9953 19.9591 32.2922 23.8161C32.4348 25.6691 32.9415 27.455 33.8121 29.1079L34.0253 28.314C26.2887 32.3788 19.4747 38.0644 13.9622 44.7307C8.22784 51.6653 3.58693 59.7468 1.36438 68.433C-0.58784 76.0628 -0.414138 84.1056 1.6871 91.6886C3.76106 99.1732 7.68021 106.19 13.1227 111.847C19.2278 118.193 27.191 122.466 35.5011 125.424C36.5699 125.804 37.6467 126.162 38.729 126.504C39.4585 126.734 39.771 125.614 39.0451 125.385C30.6652 122.738 22.4642 118.925 15.9815 112.995C10.3036 107.801 6.0742 101.16 3.62807 93.9595C1.19524 86.7977 0.48468 79.0398 1.87609 71.6007C3.49805 62.9289 7.70862 54.8365 13.0365 47.7852C18.1342 41.0386 24.5521 35.1763 31.9049 30.8308C32.7981 30.3029 33.7058 29.7992 34.6252 29.3161C34.9186 29.162 34.9811 28.7932 34.8384 28.5222C33.0477 25.1219 33.1076 21.1518 34.3545 17.5884C35.6758 13.8123 38.2832 10.639 41.5877 8.32685C45.1326 5.84646 49.2633 4.3138 53.4709 3.29032C58.0835 2.16831 62.8499 1.556 67.5976 1.37998C76.9707 1.0325 86.4999 2.59047 94.8907 6.8015C102.399 10.5694 109.033 16.3991 112.821 23.8451C114.926 27.9823 115.937 32.5858 115.289 37.1918C114.967 39.4873 114.281 41.7486 113.289 43.8527C113.047 44.3662 112.776 44.863 112.512 45.3659C112.302 45.7668 112.126 46.1745 112.265 46.6286C112.398 47.0642 112.76 47.4366 113.018 47.8069C113.347 48.279 113.665 48.7581 113.973 49.2434C118.668 56.6439 120.859 65.3967 120.829 74.0641C120.8 82.256 119.116 90.5892 115.957 98.1756C112.796 105.765 107.933 112.662 101.44 117.891C97.7745 120.843 93.6965 123.31 89.4211 125.327C85.2472 127.296 80.7482 128.29 76.2005 129.034C66.1885 130.672 55.8844 129.678 46.0782 127.331C43.7107 126.764 41.3661 126.112 39.0451 125.385C38.3151 125.156 38.0024 126.276 38.729 126.504Z" fill="black"/>
<path d="M27.4223 47.1792C28.981 46.5329 30.7451 46.6331 32.3226 47.1587C33.682 47.6118 35.0335 48.4925 35.5396 49.8629C35.7971 50.5602 36.946 50.2594 36.6857 49.5544C35.3331 45.8918 30.1854 44.7827 26.8224 46.1771C26.5247 46.3005 26.465 46.7236 26.6092 46.971C26.7843 47.2715 27.1286 47.301 27.4223 47.1792Z" fill="black"/>
<path d="M50.6743 53.9298C52.233 53.2835 53.9971 53.3837 55.5745 53.9094C56.934 54.3624 58.2855 55.2431 58.7915 56.6135C59.0491 57.3108 60.198 57.01 59.9377 56.305C58.585 52.6424 53.4374 51.5334 50.0744 52.9277C49.7766 53.0511 49.717 53.4743 49.8612 53.7216C50.0363 54.0221 50.3805 54.0516 50.6743 53.9298Z" fill="black"/>
<path d="M39.1521 59.6846C37.7881 58.8847 36.219 58.4537 34.6513 58.2413C33.1838 58.0425 31.5884 58.0832 30.2747 58.8324C29.1557 59.4707 28.3063 60.6102 28.1815 61.8845C28.0522 63.2045 28.8661 64.3258 29.9324 65.0478C31.3354 65.9978 33.1768 66.4152 34.8552 66.1356C35.6077 66.0103 35.2886 64.8917 34.5392 65.0165C32.1908 65.4078 27.6882 63.3527 29.9722 60.5902C30.9174 59.4468 32.4652 59.2173 33.885 59.3185C35.4898 59.4329 37.1694 59.8758 38.5522 60.6866C39.2096 61.0721 39.8078 60.0691 39.1521 59.6846Z" fill="black"/>
<path d="M30.3547 79.1551C30.3867 80.4286 31.2089 81.5091 32.3911 82.1695C33.6122 82.8516 35.0688 82.9789 36.4467 82.6635C39.5408 81.955 42.0065 79.4064 43.5994 77.0433C44.052 76.3719 42.8846 75.7593 42.4333 76.4288C41.1147 78.3849 39.1699 80.4759 36.7261 81.3085C35.6695 81.6685 34.4963 81.7612 33.4555 81.3086C32.512 80.8983 31.7299 80.1377 31.7052 79.1551C31.6856 78.3727 30.335 78.3699 30.3547 79.1551Z" fill="black"/>
<path d="M41.5509 75.8767C41.667 75.9477 41.7805 76.0217 41.8916 76.0988L41.7549 76.0036C42.1984 76.3142 42.5963 76.6733 42.9408 77.0732L42.8352 76.9499C42.9602 77.0964 43.0776 77.2476 43.1876 77.4036C43.281 77.5359 43.4212 77.6412 43.5912 77.6834C43.7529 77.7235 43.9681 77.7054 44.1116 77.622C44.4096 77.4488 44.5566 77.0765 44.3538 76.789C43.8022 76.0069 43.0826 75.3453 42.2326 74.8254C42.0934 74.7401 41.87 74.7248 41.7123 74.764C41.5556 74.8029 41.3859 74.9121 41.3087 75.0438C41.1281 75.3519 41.2382 75.6854 41.5509 75.8767Z" fill="black"/>
<path d="M34.4421 37.9943C36.8639 36.2792 40.2108 36.1209 42.7719 37.6457C43.4267 38.0356 44.0246 37.0323 43.3718 36.6436C40.4799 34.9218 36.5906 35.0459 33.8422 36.9922C33.2289 37.4265 33.8214 38.4338 34.4421 37.9943Z" fill="black"/>
<path d="M65.5119 45.9853C64.0845 42.7927 60.7269 40.6147 57.1776 40.4728C56.4128 40.4422 56.4142 41.6028 57.1776 41.6333C60.3405 41.7597 63.2253 43.7521 64.4856 46.5711C64.615 46.8605 65.0433 46.9211 65.2987 46.7792C65.6042 46.6095 65.6396 46.2709 65.5119 45.9853Z" fill="black"/>
<path d="M87.5203 60.3678C87.3451 60.8186 87.2353 61.2768 87.1729 61.7548C87.1558 61.8858 87.2505 62.0787 87.347 62.1651C87.4451 62.253 87.5555 62.3073 87.6882 62.3247C87.8149 62.3413 87.9565 62.3255 88.0672 62.2558L88.1874 62.1651C88.261 62.0927 88.312 62.0073 88.3402 61.909C88.5322 61.4643 88.6305 60.9999 88.6877 60.522C88.7041 60.3844 88.6094 60.2053 88.5136 60.1117C88.4106 60.0111 88.2414 59.9353 88.0934 59.9418C87.9397 59.9485 87.7803 59.9978 87.6732 60.1117L87.5803 60.2292C87.5265 60.3197 87.4995 60.4173 87.4991 60.522C87.4955 60.5524 87.4917 60.5828 87.4876 60.6132L87.5088 60.4589C87.4543 60.8514 87.3518 61.2353 87.1941 61.6005L88.3614 61.7547C88.3634 61.7393 88.3655 61.724 88.3676 61.7086L88.3464 61.8628C88.4039 61.4558 88.5173 61.0599 88.6664 60.6762C88.7182 60.5432 88.6774 60.3474 88.6066 60.2291C88.5344 60.1088 88.3931 59.994 88.2514 59.9625C88.0993 59.9286 87.9285 59.9359 87.7935 60.0209L87.6732 60.1117C87.5996 60.1841 87.5486 60.2695 87.5203 60.3678Z" fill="black"/>
<path d="M112.814 46.4017C112.761 46.144 112.898 45.8895 113.027 45.6587C115.234 41.6961 116.38 37.1285 116.021 32.6159C115.661 28.0821 113.785 23.7534 111.206 19.9667C105.655 11.8155 96.8477 6.03351 87.2664 3.15293C77.6852 0.272354 67.3733 0.164746 57.5013 1.86878C50.587 3.06231 43.5586 5.28433 38.5344 10.0737C33.5103 14.8631 31.0682 22.7421 34.3268 28.8151C32.9837 29.5177 31.6694 30.2786 30.3799 31.0821C43.8812 33.243 57.7313 33.3158 71.2533 31.2808C72.4297 38.1447 73.925 45.5858 79.3098 50.1451C81.3015 51.8315 83.7183 53.0085 85.6045 54.807C87.1712 56.3008 88.334 58.4717 88.0934 60.522C89.3792 57.2317 93.8546 55.4111 97.3611 56.668C101.286 58.0748 103.608 62.351 103.549 66.4328C103.504 69.5324 101.69 73.0536 98.531 73.3623C103.286 75.4227 108.042 77.4829 112.797 79.5431C115.4 80.6712 118.042 81.8007 120.769 82.5691C120.945 81.3031 121.087 80.0352 121.191 78.7687C122.26 67.6328 119.692 55.9576 113.032 46.81C112.94 46.6841 112.846 46.5532 112.814 46.4017Z" fill="black"/>
<path d="M113.407 46.4018C113.388 46.1256 113.574 45.8904 113.702 45.6533C113.836 45.4038 113.967 45.1519 114.093 44.898C114.342 44.3954 114.574 43.8845 114.791 43.3681C115.243 42.2972 115.62 41.1963 115.914 40.074C116.485 37.8949 116.755 35.6267 116.66 33.3779C116.471 28.9023 114.828 24.5934 112.452 20.7973C108.138 13.9084 101.517 8.55607 94.0812 5.12053C85.6813 1.23958 76.2916 -0.170794 67.0518 0.241705C62.4296 0.44805 57.7843 1.05736 53.2894 2.13867C49.1543 3.13346 45.064 4.61382 41.5227 6.96045C38.2118 9.15443 35.4718 12.0791 33.853 15.677C32.3293 19.0637 31.7412 22.927 32.7675 26.5346C33.0209 27.4254 33.3776 28.2871 33.812 29.108L34.0252 28.3141C32.6802 29.0206 31.3668 29.7806 30.0783 30.5811C29.6883 30.8235 29.6835 31.5562 30.2203 31.6417C40.8544 33.3359 51.688 33.7722 62.4262 32.8869C65.432 32.6391 68.4281 32.2868 71.4097 31.8403L70.6787 31.4351C71.4283 35.8032 72.2621 40.2324 74.1898 44.2754C75.1106 46.2069 76.3064 48.025 77.8212 49.565C79.5336 51.3059 81.6751 52.496 83.6363 53.9344C85.7561 55.4891 87.7772 57.7522 87.4975 60.5221C87.4266 61.2247 88.4396 61.234 88.6649 60.6763C89.3674 58.9371 91.0457 57.706 92.8378 57.1702C94.7792 56.5897 96.7984 56.8229 98.5268 57.8683C101.987 59.961 103.689 64.6397 102.669 68.4374C102.142 70.396 100.776 72.5303 98.5294 72.782C98.0221 72.8388 97.6242 73.6011 98.2294 73.8633C101.987 75.4912 105.744 77.1191 109.501 78.747C113.145 80.3257 116.773 82.0361 120.61 83.1287C121.021 83.2458 121.312 82.9295 121.362 82.5692C122.056 77.5173 122.258 72.4223 121.596 67.3563C120.966 62.5277 119.651 57.8029 117.579 53.3711C116.995 52.1239 116.352 50.9031 115.648 49.7166C115.296 49.1227 114.929 48.5371 114.547 47.9611C114.37 47.6949 114.19 47.4306 114.007 47.1686C113.809 46.8843 113.498 46.5754 113.386 46.2475C113.144 45.5429 111.996 45.845 112.24 46.556C112.425 47.0963 112.841 47.5476 113.163 48.0172C113.525 48.5438 113.873 49.0787 114.209 49.6211C114.852 50.6592 115.448 51.725 115.997 52.8134C117.097 54.9945 117.998 57.2668 118.715 59.5946C120.138 64.216 120.826 69.0352 120.829 73.8586C120.831 76.7705 120.569 79.6847 120.173 82.5692L120.926 82.0096C117.125 80.9273 113.535 79.2325 109.925 77.6686C106.226 76.0662 102.528 74.4637 98.8293 72.8612L98.5294 73.9426C100.889 73.6782 102.536 71.9789 103.411 69.9123C104.328 67.7453 104.329 65.304 103.685 63.0647C103.03 60.7894 101.689 58.6983 99.7402 57.2754C97.8366 55.8852 95.465 55.3901 93.146 55.8907C90.671 56.425 88.4596 58.0388 87.5188 60.3679L88.6861 60.5221C88.9244 58.1621 87.6046 55.8669 85.902 54.2828C84.0462 52.5562 81.7309 51.4123 79.7923 49.7884C76.3488 46.9038 74.5153 42.7497 73.3727 38.5543C72.7072 36.1106 72.2525 33.6186 71.8248 31.1266C71.7675 30.793 71.383 30.678 71.0937 30.7214C60.6145 32.2908 49.9372 32.587 39.3815 31.6292C36.4207 31.3605 33.471 30.9902 30.5362 30.5227L30.6782 31.5833C31.9667 30.7827 33.2801 30.0227 34.6251 29.3162C34.9181 29.1623 34.9816 28.793 34.8383 28.5223C33.1321 25.2977 33.1007 21.5255 34.1824 18.1045C35.3122 14.5316 37.5813 11.4491 40.5428 9.10359C43.72 6.58721 47.5457 4.94697 51.4459 3.82625C55.6607 2.61512 60.0514 1.92256 64.4249 1.5679C73.5107 0.831136 82.8242 1.78173 91.3009 5.18003C98.6018 8.10697 105.276 12.8678 109.906 19.1518C112.429 22.5761 114.396 26.4551 115.164 30.6308C115.963 34.9732 115.261 39.527 113.432 43.5441C113.221 44.0084 112.995 44.4665 112.756 44.9176C112.505 45.3908 112.18 45.8471 112.219 46.4018C112.27 47.143 113.459 47.1485 113.407 46.4018Z" fill="black"/>
<path d="M111.92 107.382C111.92 107.382 115.98 99.769 117.746 94.56C119.399 89.6853 120.799 81.7377 120.799 81.7377" stroke="black" stroke-width="1.39826"/>
</svg>
