<svg width="33" height="32" viewBox="0 0 33 32" fill="none" xmlns="http://www.w3.org/2000/svg">
<ellipse cx="16.5" cy="15.6696" rx="16" ry="15.619" fill="#003CFE" fill-opacity="0.1"/>
<path d="M18.7859 17.5745C18.9382 16.8126 19.3192 16.2793 19.9287 15.6697C20.6906 14.984 21.0716 13.9935 21.0716 13.0031C21.0716 11.7907 20.5899 10.6279 19.7326 9.77058C18.8753 8.91327 17.7126 8.43164 16.5001 8.43164C15.2877 8.43164 14.125 8.91327 13.2677 9.77058C12.4103 10.6279 11.9287 11.7907 11.9287 13.0031C11.9287 13.765 12.0811 14.6793 13.0716 15.6697C13.6049 16.2031 14.062 16.8126 14.2144 17.5745" stroke="#003CFE" stroke-width="1.52381" stroke-linecap="round" stroke-linejoin="round"/>
<path d="M14.2139 20.6221H18.7853" stroke="#003CFE" stroke-width="1.52381" stroke-linecap="round" stroke-linejoin="round"/>
<path d="M14.9766 23.6697H18.0242" stroke="#003CFE" stroke-width="1.52381" stroke-linecap="round" stroke-linejoin="round"/>
</svg>
