<svg width="221" height="114" viewBox="0 0 221 114" fill="none" xmlns="http://www.w3.org/2000/svg">
<path opacity="0.1" d="M213.264 -33.3452L305.933 215.014L0.759867 125.121C0.759867 125.121 98.7786 108.058 143.405 71.6964C182.468 39.8677 213.264 -33.3452 213.264 -33.3452Z" fill="#FF8092"/>
<path d="M120.056 101.177C117.16 113.468 115.708 126.081 115.739 138.692C115.744 140.673 115.7 142.711 115.126 144.627C114.858 145.523 114.435 146.285 113.972 147.092C113.444 148.015 112.749 148.277 111.732 148.65C109.851 149.338 107.924 150.424 107.206 152.252C106.676 153.603 106.945 155.222 107.886 156.341C110.197 159.088 115.056 159.005 118.289 158.621C118.05 157.548 119.05 156.39 120.176 156.437C121.302 156.483 122.197 157.72 121.865 158.769C124.14 158.689 132.138 159.84 131.912 156.639C130.769 140.461 132.97 124.066 138.345 108.719" fill="white"/>
<path d="M119.737 101.091C118.525 106.245 117.566 111.452 116.859 116.694C116.152 121.944 115.702 127.227 115.512 132.519C115.465 133.828 115.434 135.137 115.419 136.447C115.404 137.747 115.43 139.047 115.391 140.347C115.353 141.618 115.243 142.893 114.922 144.129C114.775 144.698 114.576 145.246 114.315 145.775C114.066 146.28 113.808 146.832 113.457 147.278C112.882 148.007 111.9 148.222 111.072 148.561C110.109 148.955 109.183 149.444 108.393 150.115C107.624 150.767 107.006 151.617 106.75 152.588C106.486 153.589 106.598 154.663 107.032 155.603C107.818 157.305 109.657 158.283 111.435 158.729C113.253 159.185 115.175 159.208 117.037 159.066C117.456 159.034 117.873 158.992 118.29 158.943C118.514 158.917 118.653 158.76 118.609 158.535C118.433 157.64 119.302 156.656 120.252 156.764C121.151 156.866 121.786 157.853 121.546 158.684C121.489 158.88 121.65 159.098 121.865 159.092C122.935 159.057 124.012 159.164 125.081 159.201C126.431 159.249 127.792 159.261 129.132 159.072C130.132 158.931 131.345 158.653 131.945 157.779C132.279 157.293 132.25 156.764 132.213 156.206C132.133 155.017 132.072 153.827 132.028 152.636C131.854 147.872 131.968 143.098 132.365 138.347C132.759 133.624 133.436 128.924 134.39 124.277C135.35 119.603 136.589 114.983 138.102 110.45C138.285 109.9 138.473 109.352 138.664 108.805C138.802 108.412 138.163 108.243 138.026 108.634C136.472 113.078 135.18 117.608 134.16 122.197C133.15 126.743 132.405 131.345 131.925 135.973C131.441 140.644 131.232 145.342 131.3 150.036C131.317 151.192 131.351 152.347 131.401 153.502C131.428 154.097 131.458 154.692 131.493 155.287C131.523 155.784 131.591 156.29 131.585 156.788C131.581 157.172 131.413 157.484 131.1 157.734C130.747 158.017 130.265 158.177 129.817 158.288C128.583 158.592 127.274 158.6 126.009 158.581C124.821 158.563 123.635 158.474 122.447 158.447C122.253 158.442 122.059 158.441 121.865 158.447L122.184 158.855C122.542 157.617 121.578 156.226 120.252 156.119C118.846 156.006 117.716 157.408 117.971 158.707L118.29 158.299C116.512 158.508 114.689 158.598 112.91 158.356C111.16 158.117 109.341 157.529 108.169 156.171C107.493 155.387 107.193 154.339 107.286 153.326C107.376 152.334 107.91 151.449 108.637 150.769C109.37 150.084 110.278 149.592 111.204 149.201C112.045 148.847 112.987 148.63 113.671 148.003C114.05 147.656 114.291 147.207 114.535 146.766C114.816 146.259 115.077 145.739 115.281 145.198C115.71 144.062 115.889 142.832 115.985 141.631C116.084 140.391 116.067 139.148 116.07 137.906C116.073 136.597 116.093 135.287 116.128 133.978C116.266 128.815 116.652 123.659 117.284 118.532C117.921 113.359 118.812 108.216 119.948 103.125C120.087 102.503 120.229 101.883 120.375 101.263C120.47 100.859 119.832 100.686 119.737 101.091Z" fill="black"/>
<path d="M120.056 101.177C120.054 101.184 120.053 101.191 120.051 101.198C119.464 104.664 118.771 108.113 117.973 111.539C117.092 116.796 116.469 122.094 116.109 127.409C121.848 126.875 127.661 127.12 133.33 128.138C134.456 121.546 137.786 110.524 140 104.2L120.056 101.177Z" fill="#FF6B81"/>
<path d="M129.807 126.957C130.145 123.94 130.737 120.95 131.421 117.992C132.142 114.875 132.983 111.783 133.954 108.731C134.429 107.237 134.937 105.751 135.5 104.286C135.649 103.897 135.01 103.729 134.862 104.115C133.8 106.878 132.919 109.709 132.126 112.556C131.255 115.683 130.496 118.843 129.898 122.031C129.592 123.664 129.33 125.306 129.145 126.957C129.099 127.369 129.761 127.366 129.807 126.957Z" fill="black"/>
<path d="M124.916 126.673C125.615 120.523 126.912 114.425 128.658 108.478C129.135 106.854 129.65 105.241 130.206 103.641C130.343 103.247 129.705 103.078 129.568 103.47C127.52 109.358 125.996 115.433 124.973 121.569C124.69 123.264 124.448 124.966 124.254 126.673C124.208 127.085 124.87 127.082 124.916 126.673Z" fill="black"/>
<path d="M120.173 126.433C120.504 123.212 121 120.007 121.631 116.829C122.282 113.553 123.077 110.302 124.053 107.103C124.575 105.393 125.151 103.699 125.796 102.03C125.947 101.641 125.307 101.473 125.158 101.858C123.983 104.896 123.035 108.015 122.234 111.165C121.402 114.437 120.729 117.749 120.208 121.081C119.93 122.859 119.695 124.643 119.512 126.433C119.469 126.845 120.131 126.842 120.173 126.433Z" fill="black"/>
<path d="M136.406 99.6105C141.159 99.2516 145.947 99.3323 150.684 99.8512C154.361 100.254 154.727 103.111 155.65 106.077C156.727 109.54 157.689 113.038 158.532 116.563C160.218 123.613 161.432 130.77 162.159 137.974C162.359 139.945 162.612 141.969 163.38 143.819C163.739 144.684 164.239 145.401 164.782 146.159C165.403 147.025 166.121 147.218 167.171 147.49C169.114 147.991 171.143 148.883 172.045 150.632C172.712 151.924 172.611 153.561 171.79 154.767C169.773 157.726 164.93 158.118 161.674 158.052C161.802 156.961 160.688 155.906 159.572 156.063C158.456 156.219 157.693 157.537 158.131 158.548C155.86 158.691 148.021 160.618 147.916 157.411C147.387 141.203 143.509 125.106 136.582 110.362" fill="white"/>
<path d="M136.406 99.9328C139.832 99.6767 143.275 99.6438 146.706 99.8414C147.558 99.8906 148.41 99.9537 149.261 100.031C150.017 100.1 150.798 100.136 151.533 100.335C152.51 100.599 153.299 101.183 153.828 102.024C154.368 102.884 154.655 103.87 154.936 104.832C155.337 106.202 155.766 107.563 156.165 108.933C157.093 112.115 157.924 115.324 158.656 118.554C160.115 124.996 161.168 131.517 161.839 138.082C162.148 141.103 162.656 144.182 164.709 146.596C165.513 147.54 166.772 147.675 167.899 148.035C169.1 148.418 170.297 148.982 171.149 149.916C172.063 150.918 172.374 152.313 171.985 153.598C171.653 154.697 170.792 155.566 169.814 156.162C167.872 157.342 165.452 157.65 163.208 157.722C162.696 157.738 162.185 157.739 161.673 157.729L162.004 158.052C162.124 156.706 160.738 155.474 159.371 155.772C158.135 156.042 157.349 157.489 157.812 158.634L158.131 158.226C157.04 158.298 155.955 158.513 154.873 158.659C153.536 158.838 152.171 158.99 150.82 158.911C149.982 158.863 148.716 158.72 148.344 157.874C148.248 157.656 148.246 157.388 148.237 157.139C148.217 156.559 148.192 155.979 148.163 155.399C148.106 154.239 148.031 153.081 147.939 151.923C147.574 147.32 146.942 142.735 146.049 138.201C145.155 133.658 143.999 129.165 142.586 124.749C141.176 120.342 139.509 116.012 137.599 111.788C137.359 111.256 137.114 110.727 136.867 110.199C136.69 109.822 136.119 110.15 136.295 110.524C138.296 114.788 140.042 119.164 141.525 123.624C143.011 128.093 144.233 132.646 145.185 137.251C146.135 141.846 146.814 146.493 147.215 151.164C147.316 152.339 147.399 153.515 147.465 154.692C147.497 155.272 147.525 155.852 147.549 156.432C147.567 156.87 147.543 157.325 147.624 157.758C147.819 158.798 148.873 159.276 149.841 159.445C151.155 159.676 152.52 159.572 153.838 159.429C155.072 159.295 156.293 159.082 157.524 158.931C157.726 158.906 157.928 158.884 158.131 158.871C158.323 158.858 158.534 158.672 158.45 158.463C158.127 157.664 158.597 156.641 159.473 156.411C160.47 156.15 161.427 157.106 161.342 158.052C161.326 158.228 161.507 158.371 161.673 158.374C163.988 158.418 166.41 158.267 168.593 157.455C170.874 156.607 172.96 154.804 172.806 152.225C172.638 149.39 169.949 147.904 167.43 147.224C166.861 147.071 166.262 146.954 165.755 146.645C165.18 146.295 164.822 145.673 164.465 145.129C163.581 143.781 163.127 142.261 162.845 140.695C162.548 139.04 162.435 137.357 162.242 135.689C162.05 134.023 161.832 132.361 161.589 130.702C161.1 127.366 160.506 124.044 159.81 120.742C159.104 117.393 158.291 114.065 157.374 110.765C156.923 109.142 156.441 107.527 155.945 105.916C155.625 104.875 155.369 103.81 154.951 102.8C154.567 101.872 154.038 101.008 153.201 100.404C152.119 99.6248 150.793 99.5298 149.498 99.4082C146.018 99.0814 142.515 98.9902 139.023 99.135C138.149 99.1712 137.277 99.2229 136.406 99.2881C135.984 99.3196 135.98 99.9646 136.406 99.9328Z" fill="black"/>
<path d="M136.406 99.6105C141.159 99.2516 145.947 99.3323 150.684 99.8512C154.361 100.254 154.727 103.111 155.65 106.077C156.727 109.54 157.689 113.038 158.532 116.563C160.218 123.613 161.432 130.77 162.159 137.974C162.359 139.945 162.612 141.969 163.38 143.819C163.739 144.684 164.239 145.401 164.782 146.159C165.403 147.025 166.121 147.218 167.171 147.49C169.114 147.991 171.143 148.883 172.045 150.632C172.712 151.924 172.611 153.561 171.79 154.767C169.773 157.726 164.93 158.118 161.674 158.052C161.802 156.961 160.688 155.906 159.572 156.063C158.456 156.219 157.693 157.537 158.131 158.548C155.86 158.691 148.021 160.618 147.916 157.411C147.387 141.203 143.509 125.106 136.582 110.362" fill="white"/>
<path d="M136.406 99.9328C139.832 99.6767 143.275 99.6438 146.706 99.8414C147.558 99.8906 148.41 99.9537 149.261 100.031C150.017 100.1 150.798 100.136 151.533 100.335C152.51 100.599 153.299 101.183 153.828 102.024C154.368 102.884 154.655 103.87 154.936 104.832C155.337 106.202 155.766 107.563 156.165 108.933C157.093 112.115 157.924 115.324 158.656 118.554C160.115 124.996 161.168 131.517 161.839 138.082C162.148 141.103 162.656 144.182 164.709 146.596C165.513 147.54 166.772 147.675 167.899 148.035C169.1 148.418 170.297 148.982 171.149 149.916C172.063 150.918 172.374 152.313 171.985 153.598C171.653 154.697 170.792 155.566 169.814 156.162C167.872 157.342 165.452 157.65 163.208 157.722C162.696 157.738 162.185 157.739 161.673 157.729L162.004 158.052C162.124 156.706 160.738 155.474 159.371 155.772C158.135 156.042 157.349 157.489 157.812 158.634L158.131 158.226C157.04 158.298 155.955 158.513 154.873 158.659C153.536 158.838 152.171 158.99 150.82 158.911C149.982 158.863 148.716 158.72 148.344 157.874C148.248 157.656 148.246 157.388 148.237 157.139C148.217 156.559 148.192 155.979 148.163 155.399C148.106 154.239 148.031 153.081 147.939 151.923C147.574 147.32 146.942 142.735 146.049 138.201C145.155 133.658 143.999 129.165 142.586 124.749C141.176 120.342 139.509 116.012 137.599 111.788C137.359 111.256 137.114 110.727 136.867 110.199C136.69 109.822 136.119 110.15 136.295 110.524C138.296 114.788 140.042 119.164 141.525 123.624C143.011 128.093 144.233 132.646 145.185 137.251C146.135 141.846 146.814 146.493 147.215 151.164C147.316 152.339 147.399 153.515 147.465 154.692C147.497 155.272 147.525 155.852 147.549 156.432C147.567 156.87 147.543 157.325 147.624 157.758C147.819 158.798 148.873 159.276 149.841 159.445C151.155 159.676 152.52 159.572 153.838 159.429C155.072 159.295 156.293 159.082 157.524 158.931C157.726 158.906 157.928 158.884 158.131 158.871C158.323 158.858 158.534 158.672 158.45 158.463C158.127 157.664 158.597 156.641 159.473 156.411C160.47 156.15 161.427 157.106 161.342 158.052C161.326 158.228 161.507 158.371 161.673 158.374C163.988 158.418 166.41 158.267 168.593 157.455C170.874 156.607 172.96 154.804 172.806 152.225C172.638 149.39 169.949 147.904 167.43 147.224C166.861 147.071 166.262 146.954 165.755 146.645C165.18 146.295 164.822 145.673 164.465 145.129C163.581 143.781 163.127 142.261 162.845 140.695C162.548 139.04 162.435 137.357 162.242 135.689C162.05 134.023 161.832 132.361 161.589 130.702C161.1 127.366 160.506 124.044 159.81 120.742C159.104 117.393 158.291 114.065 157.374 110.765C156.923 109.142 156.441 107.527 155.945 105.916C155.625 104.875 155.369 103.81 154.951 102.8C154.567 101.872 154.038 101.008 153.201 100.404C152.119 99.6248 150.793 99.5298 149.498 99.4082C146.018 99.0814 142.515 98.9902 139.023 99.135C138.149 99.1712 137.277 99.2229 136.406 99.2881C135.984 99.3196 135.98 99.9646 136.406 99.9328Z" fill="black"/>
<path d="M158.532 116.563C157.689 113.038 156.727 109.54 155.65 106.077C154.727 103.111 154.361 100.254 150.684 99.8513C145.947 99.3323 141.159 99.2515 136.406 99.6105L136.582 110.362C139.392 116.344 141.701 122.548 143.487 128.893C145.683 128.11 147.97 127.567 150.29 127.283C152.472 127.015 154.677 126.974 156.877 126.933C158.132 126.91 159.388 126.887 160.643 126.864C160.05 123.41 159.348 119.974 158.532 116.563Z" fill="#FF6B81"/>
<path d="M119.737 101.091C118.525 106.245 117.566 111.452 116.859 116.694C116.152 121.944 115.702 127.227 115.512 132.519C115.465 133.828 115.434 135.137 115.419 136.447C115.404 137.747 115.43 139.047 115.391 140.347C115.353 141.618 115.243 142.893 114.922 144.129C114.775 144.698 114.576 145.246 114.315 145.775C114.066 146.28 113.808 146.832 113.457 147.278C112.882 148.007 111.9 148.222 111.072 148.561C110.109 148.955 109.183 149.444 108.393 150.115C107.624 150.767 107.006 151.617 106.75 152.588C106.486 153.589 106.598 154.663 107.032 155.603C107.818 157.305 109.657 158.283 111.435 158.729C113.253 159.185 115.175 159.208 117.037 159.066C117.456 159.034 117.873 158.992 118.29 158.943C118.514 158.917 118.653 158.76 118.609 158.535C118.433 157.64 119.302 156.656 120.252 156.764C121.151 156.866 121.786 157.853 121.546 158.684C121.489 158.88 121.65 159.098 121.865 159.092C122.935 159.057 124.012 159.164 125.081 159.201C126.431 159.249 127.792 159.261 129.132 159.072C130.132 158.931 131.345 158.653 131.945 157.779C132.279 157.293 132.25 156.764 132.213 156.206C132.133 155.017 132.072 153.827 132.028 152.636C131.854 147.872 131.968 143.098 132.365 138.347C132.759 133.624 133.436 128.924 134.39 124.277C135.35 119.603 136.589 114.983 138.102 110.45C138.285 109.9 138.473 109.352 138.664 108.805C138.802 108.412 138.163 108.243 138.026 108.634C136.472 113.078 135.18 117.608 134.16 122.197C133.15 126.743 132.405 131.345 131.925 135.973C131.441 140.644 131.232 145.342 131.3 150.036C131.317 151.192 131.351 152.347 131.401 153.502C131.428 154.097 131.458 154.692 131.493 155.287C131.523 155.784 131.591 156.29 131.585 156.788C131.581 157.172 131.413 157.484 131.1 157.734C130.747 158.017 130.265 158.177 129.817 158.288C128.583 158.592 127.274 158.6 126.009 158.581C124.821 158.563 123.635 158.474 122.447 158.447C122.253 158.442 122.059 158.441 121.865 158.447L122.184 158.855C122.542 157.617 121.578 156.226 120.252 156.119C118.846 156.006 117.716 157.408 117.971 158.707L118.29 158.299C116.512 158.508 114.689 158.598 112.91 158.356C111.16 158.117 109.341 157.529 108.169 156.171C107.493 155.387 107.193 154.339 107.286 153.326C107.376 152.334 107.91 151.449 108.637 150.769C109.37 150.084 110.278 149.592 111.204 149.201C112.045 148.847 112.987 148.63 113.671 148.003C114.05 147.656 114.291 147.207 114.535 146.766C114.816 146.259 115.077 145.739 115.281 145.198C115.71 144.062 115.889 142.832 115.985 141.631C116.084 140.391 116.067 139.148 116.07 137.906C116.073 136.597 116.093 135.287 116.128 133.978C116.266 128.815 116.652 123.659 117.284 118.532C117.921 113.359 118.812 108.216 119.948 103.125C120.087 102.503 120.229 101.883 120.375 101.263C120.47 100.859 119.832 100.686 119.737 101.091Z" fill="black"/>
<path d="M136.406 99.9328C139.832 99.6767 143.275 99.6438 146.706 99.8414C147.558 99.8906 148.41 99.9537 149.261 100.031C150.017 100.1 150.798 100.136 151.533 100.335C152.51 100.599 153.299 101.183 153.828 102.024C154.368 102.884 154.655 103.87 154.936 104.832C155.337 106.202 155.766 107.563 156.165 108.933C157.093 112.115 157.924 115.324 158.656 118.554C160.115 124.996 161.168 131.517 161.839 138.082C162.148 141.103 162.656 144.182 164.709 146.596C165.513 147.54 166.772 147.675 167.899 148.035C169.1 148.418 170.297 148.982 171.149 149.916C172.063 150.918 172.374 152.313 171.985 153.598C171.653 154.697 170.792 155.566 169.814 156.162C167.872 157.342 165.452 157.65 163.208 157.722C162.696 157.738 162.185 157.739 161.673 157.729L162.004 158.052C162.124 156.706 160.738 155.474 159.371 155.772C158.135 156.042 157.349 157.489 157.812 158.634L158.131 158.226C157.04 158.298 155.955 158.513 154.873 158.659C153.536 158.838 152.171 158.99 150.82 158.911C149.982 158.863 148.716 158.72 148.344 157.874C148.248 157.656 148.246 157.388 148.237 157.139C148.217 156.559 148.192 155.979 148.163 155.399C148.106 154.239 148.031 153.081 147.939 151.923C147.574 147.32 146.942 142.735 146.049 138.201C145.155 133.658 143.999 129.165 142.586 124.749C141.176 120.342 139.509 116.012 137.599 111.788C137.359 111.256 137.114 110.727 136.867 110.199C136.69 109.822 136.119 110.15 136.295 110.524C138.296 114.788 140.042 119.164 141.525 123.624C143.011 128.093 144.233 132.646 145.185 137.251C146.135 141.846 146.814 146.493 147.215 151.164C147.316 152.339 147.399 153.515 147.465 154.692C147.497 155.272 147.525 155.852 147.549 156.432C147.567 156.87 147.543 157.325 147.624 157.758C147.819 158.798 148.873 159.276 149.841 159.445C151.155 159.676 152.52 159.572 153.838 159.429C155.072 159.295 156.293 159.082 157.524 158.931C157.726 158.906 157.928 158.884 158.131 158.871C158.323 158.858 158.534 158.672 158.45 158.463C158.127 157.664 158.597 156.641 159.473 156.411C160.47 156.15 161.427 157.106 161.342 158.052C161.326 158.228 161.507 158.371 161.673 158.374C163.988 158.418 166.41 158.267 168.593 157.455C170.874 156.607 172.96 154.804 172.806 152.225C172.638 149.39 169.949 147.904 167.43 147.224C166.861 147.071 166.262 146.954 165.755 146.645C165.18 146.295 164.822 145.673 164.465 145.129C163.581 143.781 163.127 142.261 162.845 140.695C162.548 139.04 162.435 137.357 162.242 135.689C162.05 134.023 161.832 132.361 161.589 130.702C161.1 127.366 160.506 124.044 159.81 120.742C159.104 117.393 158.291 114.065 157.374 110.765C156.923 109.142 156.441 107.527 155.945 105.916C155.625 104.875 155.369 103.81 154.951 102.8C154.567 101.872 154.038 101.008 153.201 100.404C152.119 99.6248 150.793 99.5298 149.498 99.4082C146.018 99.0814 142.515 98.9902 139.023 99.135C138.149 99.1712 137.277 99.2229 136.406 99.2881C135.984 99.3196 135.98 99.9646 136.406 99.9328Z" fill="black"/>
<path d="M147.602 127.555C146.924 124.447 145.917 121.407 144.833 118.415C143.667 115.194 142.376 112.015 140.977 108.883C140.312 107.397 139.622 105.921 138.885 104.467C138.697 104.095 138.126 104.422 138.314 104.793C139.703 107.532 140.942 110.345 142.106 113.182C143.406 116.353 144.612 119.567 145.636 122.833C146.142 124.447 146.604 126.075 146.964 127.726C147.053 128.132 147.691 127.96 147.602 127.555Z" fill="black"/>
<path d="M152.438 126.795C151.103 120.715 149.181 114.747 146.821 108.973C146.168 107.378 145.479 105.797 144.749 104.235C144.573 103.858 144.002 104.185 144.178 104.56C146.81 110.192 148.938 116.064 150.58 122.041C151.029 123.673 151.437 125.314 151.8 126.966C151.889 127.371 152.527 127.2 152.438 126.795Z" fill="black"/>
<path d="M157.133 126.092C156.469 122.903 155.643 119.747 154.685 116.631C153.695 113.416 152.564 110.24 151.254 107.135C150.551 105.466 149.796 103.816 148.972 102.2C148.783 101.828 148.212 102.154 148.401 102.525C149.879 105.426 151.139 108.429 152.256 111.478C153.403 114.611 154.4 117.797 155.253 121.018C155.713 122.756 156.129 124.504 156.495 126.263C156.58 126.669 157.218 126.497 157.133 126.092Z" fill="black"/>
<path d="M120.085 99.2842C120.194 100.272 119.903 101.254 119.697 102.228C119.463 103.335 119.338 104.461 119.214 105.585C120.235 105.578 121.265 105.625 122.287 105.653C127.214 105.79 132.138 106.116 137.038 106.624C140.294 106.962 143.541 107.385 146.769 107.919C148.482 108.203 150.155 108.677 151.854 109.033C152.206 109.106 156.416 109.693 156.348 109.424C155.61 106.503 154.618 103.684 153.703 100.825C152.827 98.0899 152.378 95.1551 150.765 92.7025" fill="black"/>
<path d="M119.755 99.2842C119.857 100.348 119.528 101.368 119.325 102.402C119.119 103.454 119.001 104.521 118.883 105.585C118.864 105.758 119.05 105.908 119.214 105.907C121.356 105.896 123.507 106.002 125.646 106.098C127.791 106.195 129.934 106.328 132.075 106.495C136.371 106.831 140.66 107.298 144.918 107.949C145.971 108.11 147.024 108.273 148.066 108.496C149.091 108.716 150.107 108.975 151.13 109.205C152.047 109.411 152.977 109.528 153.911 109.639C154.437 109.702 154.964 109.76 155.492 109.796C155.783 109.815 156.217 109.888 156.486 109.74C156.774 109.581 156.652 109.276 156.587 109.025C156.461 108.541 156.328 108.058 156.19 107.576C155.905 106.581 155.597 105.593 155.281 104.608C154.671 102.713 154.016 100.833 153.49 98.914C153.009 97.1608 152.553 95.3879 151.74 93.7462C151.534 93.3312 151.304 92.9289 151.051 92.5398C150.823 92.1904 150.251 92.5135 150.48 92.8652C151.464 94.3768 152.019 96.0813 152.498 97.7967C153.005 99.6125 153.542 101.409 154.13 103.202C154.752 105.102 155.369 107.005 155.881 108.937C155.91 109.048 155.924 109.197 155.976 109.301C156.03 109.411 155.938 109.429 156.054 109.313C156.114 109.253 156.118 109.219 156.185 109.169C156.25 109.121 156.178 109.187 156.166 109.168C156.17 109.175 156.243 109.164 156.155 109.167C155.987 109.174 155.818 109.17 155.65 109.16C155.156 109.134 154.663 109.081 154.172 109.025C153.358 108.932 152.531 108.849 151.73 108.677C150.74 108.464 149.758 108.215 148.771 107.991C147.772 107.766 146.767 107.59 145.756 107.43C141.627 106.78 137.469 106.303 133.303 105.95C129.126 105.597 124.941 105.401 120.751 105.283C120.238 105.269 119.726 105.26 119.214 105.263L119.545 105.585C119.664 104.507 119.784 103.429 120.005 102.365C120.217 101.349 120.518 100.332 120.416 99.2842C120.377 98.8747 119.715 98.8707 119.755 99.2842Z" fill="black"/>
<path d="M124.377 104.142C134.795 104.709 145.281 105.018 155.678 103.967C160.817 103.448 165.927 102.594 170.912 101.262C174.261 100.367 177.633 100.112 177.85 95.9303C178.084 91.3911 174.786 86.0771 172.726 82.1599C167.388 72.0091 161.994 61.8508 155.554 52.3102C152.36 47.5781 148.935 42.9253 145.082 38.6767C142.418 35.739 137.17 32.0666 133.095 34.1164C128.963 36.1951 126.581 40.9479 124.44 44.7458C121.721 49.5705 119.078 54.4373 116.579 59.3744C111.655 69.104 107.279 79.1226 104.024 89.507C103.158 92.2705 101.822 96.4502 103.379 99.2208C104.698 101.567 108.214 102.363 110.683 102.799C115.2 103.596 119.793 103.892 124.377 104.142Z" fill="white"/>
<path d="M124.377 104.464C133.186 104.943 142.026 105.239 150.839 104.684C155.157 104.412 159.465 103.938 163.723 103.181C165.84 102.803 167.945 102.355 170.028 101.826C171.465 101.461 172.943 101.156 174.348 100.686C175.503 100.3 176.605 99.7285 177.318 98.731C178.178 97.5292 178.278 95.9505 178.148 94.5367C177.83 91.0667 176.137 87.8158 174.507 84.7748C170.694 77.664 166.995 70.4956 162.933 63.5151C158.768 56.3594 154.258 49.3492 149.062 42.856C146.847 40.0882 144.582 37.2243 141.557 35.251C138.994 33.579 135.654 32.3912 132.737 33.9368C129.857 35.4622 127.883 38.1902 126.26 40.883C125.404 42.3036 124.615 43.7624 123.803 45.2073C122.75 47.0804 121.71 48.96 120.686 50.8478C116.688 58.2147 112.933 65.7127 109.652 73.4112C108.03 77.2167 106.527 81.0705 105.173 84.9745C104.542 86.795 103.939 88.6259 103.38 90.4686C102.894 92.0689 102.463 93.7064 102.355 95.3781C102.255 96.9069 102.446 98.5816 103.4 99.8524C104.267 101.006 105.59 101.713 106.94 102.201C108.396 102.728 109.933 103.008 111.46 103.256C113.608 103.605 115.773 103.85 117.942 104.036C120.084 104.22 122.23 104.347 124.377 104.464C124.802 104.487 124.801 103.843 124.377 103.819C120.069 103.584 115.751 103.312 111.492 102.611C109.996 102.365 108.492 102.084 107.068 101.562C105.762 101.084 104.43 100.351 103.712 99.1393C102.882 97.7409 102.895 96.0007 103.112 94.447C103.334 92.8553 103.806 91.3075 104.286 89.775C105.471 85.9912 106.798 82.2513 108.251 78.5573C111.216 71.0194 114.687 63.6788 118.433 56.4816C120.372 52.7572 122.385 49.0702 124.444 45.4078C125.999 42.6429 127.454 39.7462 129.579 37.3419C130.62 36.1641 131.833 35.1056 133.262 34.3948C134.638 33.7099 136.212 33.7293 137.672 34.1325C140.725 34.9757 143.268 37.1295 145.308 39.4164C150.715 45.4761 155.31 52.23 159.535 59.1095C163.797 66.0492 167.644 73.22 171.434 80.4118C173.074 83.5228 174.916 86.5832 176.229 89.8442C176.86 91.4126 177.384 93.0643 177.504 94.7536C177.6 96.1002 177.486 97.618 176.527 98.6775C175.727 99.5614 174.551 99.9776 173.419 100.293C171.873 100.725 170.301 101.105 168.739 101.479C164.656 102.457 160.499 103.133 156.32 103.578C147.789 104.488 139.185 104.465 130.62 104.12C128.538 104.036 126.457 103.933 124.377 103.819C123.951 103.796 123.953 104.441 124.377 104.464Z" fill="black"/>
<path d="M161.797 68.8448C169.468 70.4273 177.307 71.9658 186.018 74.9744C185.53 74.8057 184.864 73.2292 184.63 72.8344C183.456 70.8477 182.457 68.7619 181.599 66.6284C178.645 59.2852 177.711 51.6798 177.81 43.8399C177.82 43.0387 177.852 41.6798 178.965 41.5672C179.418 41.5214 179.853 41.7981 180.115 42.1606C180.377 42.5231 180.499 42.9616 180.616 43.3901C181.602 42.7978 182.238 41.7687 182.602 40.6976C182.966 39.6264 183.09 38.4951 183.28 37.3821C183.352 36.9605 183.437 36.5301 183.663 36.164C183.889 35.7979 184.287 35.5038 184.726 35.5105C185.164 35.5172 185.592 35.9096 185.523 36.3317C185.422 35.6796 185.934 34.996 186.603 34.8907C187.271 34.7854 187.978 35.2771 188.093 35.927C188.148 35.4466 188.637 35.0624 189.132 35.0847C189.628 35.1071 190.069 35.5106 190.15 35.9875C190.18 35.449 190.918 35.1731 191.423 35.3942C191.928 35.6153 192.214 36.1384 192.401 36.646C193.361 39.2571 192.611 42.1766 191.444 44.7062C190.424 46.9174 189.594 48.5726 190.504 50.9678C193.957 60.0589 199.482 68.4111 200.308 78.2785C200.461 80.1131 200.34 81.8774 199.664 83.6158C199.348 84.4297 198.92 85.2232 198.265 85.8149C197.456 86.5465 196.37 86.9092 195.302 87.1807C193.217 87.7103 191.064 87.9671 188.91 88.0134C186.806 88.0587 184.704 87.9048 182.608 87.7239C177.578 87.2899 167.632 85.9257 162.64 85.1819" fill="white"/>
<path d="M161.708 69.1557C167.948 70.4429 174.194 71.7186 180.311 73.5006C182.198 74.0504 184.072 74.6449 185.929 75.2853C186.338 75.4263 186.488 74.818 186.105 74.6636C186.066 74.6481 185.926 74.4806 185.869 74.4035C185.742 74.2303 185.634 74.0431 185.529 73.8562C185.339 73.5149 185.174 73.1614 184.993 72.8157C184.725 72.3039 184.416 71.8113 184.141 71.3025C183.808 70.6875 183.491 70.0647 183.189 69.4352C182.01 66.9813 181.045 64.4304 180.296 61.8213C178.824 56.6907 178.211 51.3692 178.14 46.0515C178.13 45.3059 178.13 44.5601 178.14 43.8145C178.146 43.3936 178.155 42.9654 178.283 42.5596C178.407 42.1656 178.705 41.8212 179.171 41.8938C179.909 42.0088 180.135 42.8886 180.296 43.4758C180.349 43.6714 180.601 43.7799 180.782 43.6684C182.265 42.7527 182.932 41.1063 183.257 39.4942C183.439 38.5913 183.476 37.63 183.758 36.7501C183.875 36.3841 184.098 36.0011 184.493 35.8692C184.829 35.7568 185.226 35.9577 185.191 36.3318H185.853C185.794 35.8332 186.11 35.3008 186.646 35.2099C187.177 35.1198 187.668 35.5232 187.772 36.0128C187.836 36.3126 188.359 36.328 188.41 36.0128C188.466 35.672 188.756 35.3817 189.131 35.4071C189.501 35.4322 189.759 35.7398 189.83 36.0732C189.911 36.4558 190.443 36.3229 190.48 35.9875C190.503 35.771 190.771 35.6624 190.963 35.6426C191.293 35.6087 191.563 35.8292 191.744 36.0753C192.166 36.6469 192.334 37.4394 192.433 38.1224C192.657 39.6643 192.371 41.2392 191.885 42.7079C191.392 44.1977 190.576 45.5627 190.1 47.0567C189.892 47.7132 189.765 48.4019 189.782 49.0909C189.802 49.8661 190.008 50.598 190.286 51.3198C192.492 57.0535 195.487 62.4679 197.601 68.2375C198.645 71.0854 199.472 74.0257 199.846 77.033C200.046 78.6408 200.148 80.2794 199.826 81.8793C199.54 83.3006 198.98 84.9162 197.744 85.8208C197.152 86.2546 196.451 86.5204 195.747 86.7253C194.906 86.9698 194.043 87.152 193.179 87.2987C191.441 87.5939 189.675 87.7095 187.912 87.6984C185.068 87.6804 182.225 87.3923 179.401 87.0783C174.317 86.5128 169.246 85.8206 164.186 85.0856C163.699 85.0149 163.213 84.9435 162.726 84.8711C162.31 84.809 162.13 85.4301 162.551 85.4927C164.953 85.8505 167.359 86.1878 169.767 86.5137C172.524 86.8868 175.283 87.2455 178.047 87.5683C180.791 87.8889 183.545 88.1844 186.307 88.3023C188.16 88.3813 190.016 88.351 191.858 88.134C193.542 87.9356 195.309 87.6573 196.883 87.0167C197.599 86.7252 198.27 86.3253 198.787 85.7533C199.296 85.1895 199.651 84.5227 199.932 83.8276C200.56 82.2762 200.756 80.596 200.68 78.938C200.535 75.7598 199.775 72.5962 198.769 69.5798C197.763 66.56 196.473 63.6389 195.146 60.7424C193.815 57.8391 192.438 54.9533 191.254 51.989C190.953 51.2377 190.618 50.4812 190.495 49.6789C190.383 48.9554 190.457 48.2232 190.652 47.5198C191.079 45.9752 191.938 44.5797 192.46 43.0657C192.982 41.5513 193.298 39.9197 193.12 38.3197C192.995 37.1936 192.567 34.9456 190.997 34.9966C190.397 35.0161 189.883 35.3926 189.818 35.9875L190.468 35.9018C190.338 35.288 189.784 34.788 189.131 34.7624C188.488 34.7372 187.874 35.2236 187.772 35.8413H188.41C188.238 35.0349 187.397 34.45 186.557 34.5741C185.723 34.6975 185.095 35.5188 185.191 36.3318C185.24 36.7415 185.813 36.7505 185.853 36.3318C185.892 35.9133 185.634 35.5269 185.263 35.3291C184.869 35.119 184.398 35.163 184.016 35.377C183.109 35.8854 183.004 37.0002 182.861 37.9048C182.566 39.7725 182.236 42.0078 180.448 43.1117L180.934 43.3044C180.763 42.6803 180.559 42.0212 180.022 41.5994C179.567 41.2414 178.964 41.129 178.428 41.386C177.6 41.7831 177.501 42.8382 177.482 43.629C177.412 46.4529 177.529 49.2945 177.808 52.1056C178.376 57.8474 179.763 63.4777 182.153 68.7638C182.819 70.2359 183.593 71.6395 184.375 73.0537C184.602 73.4636 184.79 73.8927 185.025 74.2988C185.244 74.6785 185.498 75.1116 185.929 75.2853L186.105 74.6636C179.859 72.5101 173.437 70.9468 166.967 69.5858C165.274 69.2296 163.578 68.8835 161.883 68.534C161.468 68.4483 161.291 69.0697 161.708 69.1557Z" fill="black"/>
<path d="M180.607 43.8067C182.343 43.6396 183.863 44.558 185.253 45.4481C185.61 45.6766 185.942 45.1186 185.587 44.8915C184.105 43.9423 182.455 42.9841 180.607 43.162C180.188 43.2024 180.183 43.8475 180.607 43.8067Z" fill="black"/>
<path d="M185.154 36.3267C185.202 37.5802 184.927 38.8262 184.341 39.9443C184.148 40.3131 184.719 40.6397 184.912 40.2697C185.551 39.052 185.867 37.6942 185.816 36.3267C185.8 35.9131 185.138 35.9111 185.154 36.3267Z" fill="black"/>
<path d="M187.661 35.7174C187.744 37.1182 187.497 38.5274 186.914 39.8127C186.842 39.9731 186.868 40.1572 187.033 40.2538C187.173 40.3355 187.414 40.2971 187.486 40.1381C188.117 38.7473 188.413 37.2375 188.323 35.7173C188.298 35.3049 187.636 35.3022 187.661 35.7174Z" fill="black"/>
<path d="M189.729 35.738C189.946 36.8618 189.819 38.0205 189.394 39.0842C189.33 39.2465 189.466 39.4379 189.625 39.4807C189.813 39.5308 189.967 39.4185 190.032 39.2556C190.5 38.0821 190.605 36.8016 190.367 35.5666C190.334 35.3954 190.122 35.2981 189.96 35.3415C189.775 35.3908 189.695 35.5663 189.729 35.738Z" fill="black"/>
<path d="M113.237 71.1064C109.119 72.3433 105.038 73.6957 100.986 75.1217C98.7189 75.9195 96.4616 76.7433 94.2179 77.6007C93.0826 78.0345 91.9465 78.4695 90.8225 78.9304C90.5694 79.0343 88.1825 79.9843 88.1836 79.9795C90.4572 69.8397 91.9479 59.8095 90.8488 49.4263C90.7644 48.6293 90.607 47.2787 89.488 47.2645C89.033 47.2587 88.6248 47.5726 88.3974 47.9567C88.17 48.3408 88.0895 48.7882 88.0126 49.2252C86.9762 48.7221 86.2468 47.7533 85.7853 46.7185C85.3238 45.6837 85.0948 44.568 84.8029 43.4761C84.6924 43.0626 84.5676 42.6415 84.3083 42.2968C84.0491 41.9521 83.6259 41.6942 83.1898 41.7394C82.7537 41.7846 82.3642 42.2131 82.4712 42.6275C82.5114 41.9692 81.9381 41.3334 81.2629 41.2874C80.5877 41.2413 79.9292 41.7931 79.8748 42.4505C79.7751 41.977 79.2531 41.6374 78.7615 41.7032C78.27 41.769 77.8684 42.2097 77.8313 42.6918C77.7519 42.1581 76.991 41.9483 76.5088 42.2129C76.0266 42.4775 75.79 43.0236 75.6512 43.5456C74.9371 46.2305 75.9542 49.0721 77.3512 51.4887C78.5723 53.6011 79.5514 55.1766 78.8673 57.642C76.2708 66.9998 71.5431 75.804 71.6351 85.7037C71.6522 87.5444 71.9366 89.2908 72.7704 90.9627C73.1608 91.7454 73.6604 92.498 74.3675 93.0296C75.2418 93.687 76.3563 93.9528 77.4457 94.1291C79.5711 94.4731 81.7394 94.5393 83.8889 94.396C85.988 94.256 88.0676 93.9177 90.1381 93.5532C95.1076 92.6783 104.886 90.4446 109.789 89.2645" fill="white"/>
<path d="M113.148 70.7956C109.242 71.9701 105.368 73.2464 101.521 74.5921C97.8539 75.8747 94.2099 77.2208 90.609 78.6701C90.1254 78.8647 89.6408 79.057 89.1563 79.2496C88.8108 79.3869 88.4553 79.5717 88.0949 79.6687L88.5019 80.0652C89.6506 74.936 90.6173 69.7604 91.1375 64.5317C91.3955 61.9394 91.5421 59.3358 91.548 56.731C91.5539 54.201 91.4614 51.6463 91.1456 49.1332C91.0453 48.3349 90.8365 47.3213 89.9515 47.0179C89.4079 46.8316 88.8257 47.011 88.4248 47.3968C87.945 47.8587 87.803 48.5165 87.6929 49.1395L88.1789 48.9469C86.2862 47.9999 85.7464 45.8361 85.276 43.9877C85.0462 43.0847 84.8362 41.9623 83.8635 41.5385C83.0219 41.1718 81.9711 41.7578 82.1516 42.7132C82.221 43.0808 82.7924 42.9792 82.8014 42.6275C82.8228 41.7905 82.1317 41.0149 81.2623 40.965C80.3739 40.914 79.6413 41.6231 79.5434 42.4505L80.1932 42.3648C80.0293 41.7361 79.381 41.2989 78.7169 41.3866C78.0337 41.4768 77.5747 42.0513 77.4999 42.6917L78.1497 42.6061C78.0304 42.0209 77.3936 41.7229 76.8233 41.7875C76.1185 41.8674 75.6875 42.467 75.4563 43.0687C74.898 44.5217 75.0175 46.2245 75.3899 47.7035C75.789 49.2879 76.5379 50.7347 77.3526 52.1488C78.0564 53.3704 78.7632 54.6475 78.7613 56.0861C78.7601 56.8851 78.5289 57.6409 78.3068 58.4027C78.0786 59.1854 77.837 59.9642 77.5861 60.7402C77.0838 62.2935 76.5442 63.835 75.9997 65.3746C74.9142 68.4438 73.8059 71.5095 72.9368 74.6453C72.0705 77.7713 71.4499 80.9755 71.3256 84.2169C71.2629 85.852 71.3012 87.5063 71.7204 89.0996C72.1025 90.5525 72.7881 92.1519 73.9897 93.1445C75.2417 94.1788 76.9542 94.4173 78.5292 94.6028C80.3429 94.8164 82.1776 94.8382 83.9989 94.7108C87.0136 94.4999 90.0025 93.9356 92.9602 93.3457C98.1445 92.3117 103.301 91.1349 108.443 89.9174C108.921 89.8042 109.399 89.6903 109.876 89.5754C110.289 89.476 110.114 88.8541 109.7 88.9537C104.845 90.1218 99.9728 91.2296 95.0836 92.2532C92.5799 92.7773 90.069 93.2758 87.5381 93.6595C84.0849 94.183 80.5172 94.3957 77.0654 93.7364C76.3213 93.5942 75.5763 93.3949 74.9225 93.0099C74.2755 92.6289 73.7884 92.0644 73.4056 91.4368C72.5857 90.0927 72.1639 88.5429 72.026 86.9934C71.8835 85.3921 71.9703 83.758 72.1308 82.161C72.2867 80.6097 72.5513 79.0703 72.8899 77.5473C74.2545 71.4093 76.7947 65.6072 78.6362 59.6048C79.0719 58.1849 79.5839 56.7543 79.3567 55.2537C79.1505 53.8914 78.4168 52.6746 77.7334 51.4939C76.9438 50.1296 76.2691 48.6962 75.9402 47.1551C75.7797 46.4035 75.7119 45.6336 75.7645 44.8668C75.8105 44.1959 75.9111 43.373 76.3237 42.8087C76.49 42.5812 76.7267 42.4026 77.0253 42.422C77.2604 42.4373 77.4639 42.543 77.5117 42.7774C77.5903 43.1629 78.1227 43.0241 78.1616 42.6917C78.2484 41.948 79.3528 41.7598 79.5552 42.5362C79.6537 42.9139 80.1649 42.7903 80.2051 42.4505C80.262 41.9696 80.7661 41.5635 81.2623 41.6097C81.778 41.6577 82.1522 42.143 82.1398 42.6275L82.7897 42.5418C82.716 42.1517 83.2315 41.9968 83.5275 42.0981C83.946 42.2413 84.1844 42.6476 84.3239 43.0326C84.6315 43.8812 84.7753 44.786 85.0403 45.6482C85.512 47.1829 86.3211 48.7411 87.8451 49.5035C88.0174 49.5898 88.2927 49.528 88.331 49.3109C88.4223 48.7947 88.5076 48.1976 88.9243 47.824C89.2161 47.5624 89.657 47.492 89.9687 47.7605C90.476 48.1975 90.4837 49.0901 90.5452 49.6947C90.7953 52.1555 90.9029 54.6292 90.8847 57.1018C90.8486 62.0051 90.3162 66.8928 89.4935 71.7268C89.0278 74.4632 88.4709 77.1841 87.864 79.8939C87.8111 80.1298 88.0177 80.3585 88.2709 80.2904C88.5686 80.2103 88.8618 80.0582 89.1472 79.9449C89.615 79.7591 90.0826 79.573 90.5499 79.386C92.1074 78.763 93.668 78.1499 95.238 77.5574C99.0456 76.1203 102.888 74.7696 106.755 73.492C108.935 72.7717 111.124 72.0786 113.324 71.4173C113.73 71.2953 113.556 70.6728 113.148 70.7956Z" fill="black"/>
<path d="M88.0297 48.9958C86.1357 48.9796 84.5745 50.0956 83.1587 51.1922C83.0177 51.3014 83.0438 51.5337 83.1587 51.6481C83.2953 51.7842 83.4874 51.7558 83.6265 51.6481C84.9006 50.6612 86.3245 49.6259 88.0297 49.6405C88.4555 49.6441 88.4559 48.9994 88.0297 48.9958Z" fill="black"/>
<path d="M82.1774 42.6191C82.2522 43.9844 82.6782 45.3139 83.4275 46.4711C83.6541 46.8211 84.2269 46.498 83.9988 46.1457C83.312 45.0851 82.9077 43.8724 82.839 42.6191C82.8164 42.2064 82.1546 42.2038 82.1774 42.6191Z" fill="black"/>
<path d="M79.6233 42.2329C79.6742 43.752 80.0946 45.2377 80.8518 46.5666C81.0585 46.9294 81.6301 46.6047 81.4231 46.2413C80.7229 45.0124 80.332 43.6378 80.2849 42.2329C80.2711 41.8191 79.6094 41.8173 79.6233 42.2329Z" fill="black"/>
<path d="M77.5715 42.3487C77.4482 43.5999 77.7023 44.8613 78.2755 45.9852C78.465 46.3567 79.0359 46.0305 78.8468 45.6598C78.324 44.6347 78.121 43.4862 78.2331 42.3487C78.2502 42.1752 78.0688 42.0264 77.9023 42.0264C77.7092 42.0264 77.5886 42.1747 77.5715 42.3487Z" fill="black"/>
<path d="M184.847 73.8967C185.436 74.9246 186.068 75.9278 186.743 76.904C186.843 77.0482 187.034 77.1115 187.196 77.0196C187.342 76.9359 187.415 76.7236 187.314 76.5786C186.64 75.6024 186.007 74.5992 185.419 73.5713C185.211 73.209 184.64 73.5337 184.847 73.8967Z" fill="black"/>
<path d="M88.1312 78.6539C87.8699 79.7666 87.5746 80.8713 87.2454 81.9667C87.1255 82.3657 87.7638 82.5361 87.8834 82.1381C88.2126 81.0427 88.5079 79.938 88.7692 78.8253C88.864 78.4214 88.2263 78.249 88.1312 78.6539Z" fill="black"/>
<path d="M124.664 64.3498C125.153 65.5507 126.396 66.2495 127.692 66.3059C129.208 66.3719 130.598 65.5453 131.68 64.5873C131.996 64.3077 131.527 63.8528 131.212 64.1315C130.294 64.9448 129.132 65.6623 127.849 65.6647C126.825 65.6666 125.697 65.1491 125.302 64.1784C125.147 63.7973 124.507 63.9634 124.664 64.3498Z" fill="black"/>
<path d="M137.301 64.4324C138.474 65.5363 140.018 66.5175 141.716 66.4509C143.153 66.3944 144.584 65.5831 145.042 64.2052C145.173 63.8095 144.535 63.6401 144.404 64.0338C144.022 65.1819 142.742 65.8127 141.56 65.809C140.094 65.8044 138.785 64.9321 137.769 63.9765C137.463 63.6882 136.994 64.1435 137.301 64.4324Z" fill="black"/>
<path d="M124.483 59.0881C126.177 57.4819 128.672 56.768 130.987 57.2428C131.402 57.328 131.58 56.7066 131.163 56.6211C128.613 56.0983 125.885 56.8599 124.016 58.6323C123.71 58.9222 124.178 59.3778 124.483 59.0881Z" fill="black"/>
<path d="M146.277 58.7455C144.443 56.5574 141.412 55.4971 138.566 55.981C138.148 56.0522 138.325 56.6735 138.742 56.6026C141.365 56.1566 144.132 57.2 145.809 59.2013C146.079 59.5228 146.545 59.0643 146.277 58.7455Z" fill="black"/>
<path d="M132.231 57.3471C131.702 60.0381 131.426 62.7693 131.28 65.5038C131.206 66.8945 131.164 68.2867 131.136 69.679C131.114 70.7802 130.914 72.158 131.648 73.0965C132.231 73.8411 133.682 74.0528 134.172 73.093C134.361 72.7227 133.791 72.3958 133.601 72.7676C133.448 73.067 133.12 73.1354 132.801 73.0738C132.365 72.9894 132.085 72.6811 131.94 72.2817C131.769 71.8057 131.771 71.2918 131.778 70.7935C131.786 70.1721 131.799 69.5507 131.814 68.9294C131.873 66.5038 131.983 64.077 132.245 61.6632C132.395 60.2738 132.599 58.8908 132.869 57.5186C132.949 57.1132 132.312 56.9395 132.231 57.3471Z" fill="black"/>
<path d="M127.66 72.8905C128.257 75.1236 130.084 76.8816 132.353 77.5136C134.518 78.1162 137.132 77.6567 138.629 75.9271C139.436 74.996 139.873 73.8342 140.1 72.6487C140.178 72.2432 139.541 72.0694 139.462 72.4773C139.28 73.4286 138.972 74.363 138.402 75.1646C137.845 75.9467 137.034 76.5195 136.11 76.8213C134.086 77.4827 131.78 77.016 130.171 75.6541C129.255 74.8781 128.604 73.864 128.298 72.7191C128.19 72.3179 127.552 72.488 127.66 72.8905Z" fill="black"/>
<path d="M127.082 72.7511C127.307 72.9399 127.574 73.0433 127.87 73.064C128.132 73.0823 128.412 73.0133 128.632 72.8725C128.776 72.7798 128.851 72.5832 128.75 72.4314C128.657 72.2912 128.452 72.2165 128.298 72.3158C128.27 72.3337 128.241 72.3505 128.212 72.3654C128.197 72.3728 128.181 72.379 128.167 72.3864C128.254 72.3423 128.209 72.3693 128.184 72.3781C128.121 72.4003 128.056 72.415 127.99 72.4243L128.078 72.4128C127.989 72.424 127.901 72.4241 127.812 72.4136L127.9 72.4251C127.856 72.4192 127.812 72.4111 127.769 72.3998C127.747 72.3942 127.726 72.3878 127.705 72.3808C127.693 72.3768 127.623 72.3494 127.682 72.3737C127.742 72.398 127.673 72.3682 127.662 72.3626C127.642 72.3528 127.623 72.3423 127.604 72.331C127.585 72.3198 127.567 72.3073 127.548 72.2953C127.501 72.2648 127.615 72.35 127.55 72.2952C127.482 72.2387 127.407 72.2008 127.316 72.2008C127.235 72.2008 127.138 72.2359 127.082 72.2952C126.968 72.4158 126.942 72.6338 127.082 72.7511Z" fill="black"/>
<path d="M138.799 72.7539C139.125 72.9 139.474 72.9371 139.825 72.8605C140.138 72.7921 140.445 72.6187 140.648 72.3748C140.705 72.3062 140.745 72.2385 140.745 72.1468C140.745 72.0678 140.709 71.9733 140.648 71.9189C140.528 71.8109 140.297 71.7791 140.18 71.9189C140.142 71.9649 140.101 72.0082 140.056 72.0478C140.043 72.0587 140.03 72.0688 140.017 72.0798C139.988 72.1062 140.085 72.0331 140.029 72.0714C140.004 72.0883 139.979 72.1051 139.953 72.1205C139.927 72.136 139.901 72.1505 139.874 72.164C139.859 72.1716 139.844 72.1788 139.828 72.1857C139.819 72.1901 139.774 72.2095 139.822 72.1892C139.872 72.1676 139.816 72.1905 139.805 72.1946C139.792 72.1991 139.779 72.2034 139.766 72.2074C139.734 72.2176 139.702 72.2266 139.669 72.2343C139.639 72.2413 139.609 72.2472 139.579 72.2521C139.568 72.2539 139.519 72.2616 139.573 72.2534C139.63 72.2446 139.57 72.2528 139.557 72.2538C139.496 72.2584 139.435 72.2589 139.375 72.2549C139.358 72.2538 139.341 72.2516 139.325 72.2505C139.283 72.2477 139.411 72.2656 139.343 72.2525C139.313 72.2469 139.283 72.2414 139.254 72.2342C139.224 72.227 139.195 72.2187 139.167 72.2091C139.154 72.2048 139.141 72.2001 139.129 72.1957C139.06 72.1718 139.199 72.2268 139.133 72.1972C138.976 72.1268 138.769 72.1487 138.68 72.3129C138.603 72.4548 138.631 72.6786 138.799 72.7539Z" fill="black"/>
<path d="M153.77 52.1455C154.178 51.9145 154.548 51.6395 154.889 51.3346C151.884 46.9401 148.67 42.6326 145.083 38.6767C142.419 35.7391 137.171 32.0666 133.096 34.1164C128.963 36.1951 126.581 40.9478 124.441 44.7457C122.577 48.0525 120.754 51.3812 118.983 54.7365C122.089 53.8617 125.108 52.6415 127.781 50.8745C130.665 48.9679 133.141 46.4032 134.612 43.3246C136.18 47.3382 140.05 50.1019 144.109 51.7776C147.188 53.0491 150.878 53.7828 153.77 52.1455Z" fill="black"/>
<path d="M153.936 52.4239C154.362 52.1778 154.755 51.8866 155.122 51.5625C155.225 51.4718 155.252 51.2858 155.174 51.1719C152.845 47.7675 150.404 44.4324 147.755 41.2559C146.588 39.8566 145.415 38.4274 144.06 37.1937C142.866 36.1062 141.536 35.1326 140.084 34.3955C138.691 33.6879 137.132 33.1673 135.544 33.2006C133.919 33.2347 132.508 33.9426 131.245 34.8934C128.606 36.8796 126.86 39.7709 125.279 42.5741C123.305 46.0716 121.355 49.582 119.466 53.1237C119.209 53.6066 118.952 54.09 118.697 54.5739C118.57 54.8156 118.781 55.1293 119.071 55.0474C124.205 53.595 129.202 51.1399 132.613 47.0189C133.513 45.9315 134.288 44.7528 134.897 43.4874L134.292 43.4104C135.38 46.1629 137.494 48.3467 139.976 49.9802C141.233 50.8079 142.584 51.4965 143.981 52.0723C145.499 52.6981 147.087 53.1741 148.731 53.3485C150.521 53.5384 152.357 53.3037 153.936 52.4239C154.306 52.218 153.973 51.6607 153.602 51.8672C150.832 53.4108 147.432 52.7297 144.627 51.6398C141.987 50.6137 139.446 49.1312 137.484 47.1084C136.396 45.9865 135.501 44.6829 134.93 43.239C134.839 43.0089 134.459 42.8858 134.326 43.162C132.137 47.7089 127.926 50.9227 123.285 52.9014C121.86 53.5086 120.387 54.0036 118.895 54.4258L119.268 54.8993C121.179 51.2791 123.17 47.7025 125.164 44.1257C126.69 41.3888 128.223 38.5469 130.534 36.3482C131.619 35.3163 132.954 34.308 134.459 33.9727C135.933 33.6445 137.48 33.9738 138.848 34.5355C140.326 35.1419 141.685 36.038 142.902 37.0486C144.205 38.131 145.311 39.3953 146.407 40.6719C149.033 43.729 151.447 46.9526 153.742 50.2505C154.031 50.6649 154.317 51.0806 154.602 51.4973L154.654 51.1067C154.328 51.3949 153.981 51.6484 153.602 51.8672C153.236 52.0786 153.569 52.6362 153.936 52.4239Z" fill="black"/>
</svg>
