<svg width="337" height="359" viewBox="0 0 337 359" fill="none" xmlns="http://www.w3.org/2000/svg">
<path d="M145.685 287.311C152.06 287.177 157.952 284.116 162.665 279.664C167.688 274.919 171.119 268.818 174.027 262.444C177.098 255.712 179.701 248.726 183.494 242.395C187.028 236.495 191.377 231.15 196.314 226.537C201.294 221.885 206.897 218.248 212.534 214.589C218.092 210.982 223.72 207.192 227.959 201.839C237.687 189.556 237.573 172.738 240.789 157.844C242.498 149.932 244.953 142.244 247.638 134.656C250.085 127.739 251.899 120.514 255.182 113.964C256.037 112.259 256.857 110.594 257.452 108.76C258.024 107 258.452 105.191 258.811 103.371C259.168 101.561 259.463 99.7372 259.743 97.913C259.993 96.2803 260.212 94.4993 259.681 92.9006C259.048 90.9894 257.278 90.0988 255.62 89.4207C253.822 88.6859 251.944 88.1593 250.039 87.8638C246.258 87.2775 242.401 87.5794 238.67 88.387C234.963 89.1895 231.279 90.1468 227.573 90.969C223.935 91.7759 220.414 92.7963 216.946 94.2204C209.873 97.1243 202.716 99.7973 195.488 102.228C188.173 104.687 180.785 106.898 173.337 108.849C165.971 110.779 158.531 112.508 150.972 113.306C143.432 114.102 135.942 113.777 128.535 112.045C121.234 110.338 113.775 107.862 106.272 109.708C99.7251 111.32 94.0061 115.355 87.5841 117.364C81.5195 119.26 74.9132 118.986 68.9896 116.64C66.2187 115.542 63.6474 114.007 61.3342 112.046C60.7467 111.548 61.5774 110.674 62.1595 111.167C67.3297 115.55 74.0656 117.649 80.6355 117.352C87.5659 117.038 93.5455 113.448 99.8111 110.691C102.929 109.318 106.152 108.226 109.526 107.901C113.253 107.542 116.997 108.088 120.646 108.874C124.366 109.676 128.031 110.749 131.766 111.479C135.608 112.23 139.516 112.538 143.421 112.506C151.288 112.442 159.083 111.041 166.745 109.225C174.291 107.436 181.774 105.324 189.185 102.983C196.64 100.627 204.023 98.0131 211.322 95.1534C214.891 93.7549 218.402 92.1329 222.075 91.0651C225.694 90.0133 229.397 89.349 233.059 88.4977C236.766 87.6359 240.387 86.5854 244.196 86.3658C247.856 86.1547 251.558 86.6102 255.033 87.8765C257.913 88.9258 260.669 90.4052 261.094 93.9408C261.281 95.5021 261.054 97.0646 260.811 98.6038C260.514 100.491 260.211 102.378 259.826 104.247C259.067 107.943 257.858 111.265 256.19 114.592C254.462 118.04 253.155 121.705 251.936 125.385C249.474 132.816 246.794 140.189 244.593 147.713C242.274 155.639 240.818 163.674 239.573 171.856C238.416 179.46 237.061 187.1 233.937 194.108C231.046 200.593 226.671 205.767 221.265 209.992C215.924 214.167 210.03 217.441 204.537 221.371C198.842 225.446 193.688 230.355 189.312 235.988C184.831 241.756 181.505 248.223 178.563 254.994C175.611 261.787 172.835 268.807 168.514 274.776C164.831 279.862 160.073 284.205 154.447 286.634C151.658 287.838 148.695 288.491 145.685 288.554C144.934 288.57 144.934 287.327 145.685 287.311Z" fill="#121212"/>
<path d="M233.096 117.905C232.989 117.95 232.878 117.989 232.764 118.018C231.078 118.451 229.618 116.869 228.651 115.457C226.857 112.838 223.25 108.942 222.574 105.854C222.14 103.873 223.226 103.912 225.07 102.961C226.63 102.156 228.098 101.237 229.463 100.144C230.531 99.29 235.627 95.5787 236.971 95.9523C234.247 94.9678 231.522 93.9833 228.798 92.9989C228.073 92.737 227.264 92.3948 227.012 91.684C226.624 90.5926 227.791 89.6121 228.813 89.0243C231.885 87.2565 235.04 85.6264 238.249 84.1062C245.238 80.7955 252.477 78.0169 259.778 75.4327C263.434 74.1386 267.102 72.8717 270.786 71.6552C273.906 70.6251 276.403 70.6211 275.184 74.3622C272.503 82.5923 268.76 90.4495 264.842 98.1803C262.908 101.997 260.92 105.788 258.973 109.598C258.281 110.952 255.104 119.865 252.31 117.137C252.057 116.89 251.926 116.553 251.801 116.226C250.397 112.538 249.331 108.185 247.399 104.753C243.149 108.841 238.853 112.883 234.511 116.877C234.082 117.272 233.631 117.679 233.096 117.905Z" fill="#FF6B81"/>
<path d="M123.371 248.369C118.304 254.378 110.957 258.43 107.873 266.146C107.059 268.183 106.53 270.341 106.09 272.5C105.697 274.433 105.521 276.499 104.779 278.328C104.121 279.949 102.795 281.272 101.035 281.145C98.9956 280.997 97.5722 279.344 96.9011 277.402C96.4877 276.205 96.2863 274.918 96.128 273.659C95.9568 272.298 95.8777 270.926 95.8733 269.553C95.8645 266.791 96.1372 264.039 96.4546 261.301L97.3327 261.838C96.3691 262.534 94.9897 262.175 94.2233 261.312C93.3031 260.275 93.1611 258.721 92.9045 257.388C92.6025 255.819 92.2109 254.237 92.0407 252.644C91.8871 251.205 92.2391 249.869 93.2144 248.839C94.0727 247.933 95.1757 247.358 96.2342 246.769C97.5037 246.062 98.7362 245.282 99.938 244.452C102.346 242.79 104.627 240.931 106.867 239.024C109.562 236.73 112.232 234.401 114.913 232.087C115.491 231.588 116.322 232.462 115.738 232.966C111.476 236.646 107.286 240.47 102.816 243.864C100.67 245.494 98.4375 246.924 96.1102 248.237C95.2018 248.75 94.1799 249.331 93.6021 250.275C92.8717 251.467 93.2321 252.911 93.4808 254.204C93.789 255.806 94.0366 257.439 94.4216 259.021C94.567 259.619 94.7841 260.279 95.2786 260.65C95.7123 260.976 96.2891 261.093 96.7437 260.764C97.0845 260.518 97.6755 260.838 97.6218 261.301C97.0833 265.947 96.6458 270.735 97.5807 275.357C97.9576 277.221 98.6729 279.312 100.611 279.826C102.261 280.262 103.37 278.914 103.874 277.405C104.139 276.611 104.285 275.786 104.435 274.961C104.628 273.9 104.824 272.838 105.045 271.783C105.481 269.697 106.022 267.634 106.807 265.664C108.273 261.985 110.708 259.005 113.45 256.332C116.478 253.381 119.795 250.753 122.546 247.49C123.049 246.894 123.872 247.775 123.371 248.369Z" fill="#121212"/>
<path d="M176.351 193.065C171.24 205.229 163.769 215.402 155.58 225.667C150.217 232.39 144.265 238.669 137.81 244.412C135.139 246.788 131.715 250.739 128.282 251.998C125.129 253.154 120.591 251.935 117.619 250.806C112.107 248.711 107.143 245.268 103.312 240.88C108.663 235.572 114.984 231.197 119.878 225.486C125.176 219.305 128.604 211.758 130.68 203.968C132.468 197.257 133.449 189.987 137.944 184.608C142.976 178.584 151.243 176.315 158.967 174.373" fill="#FAF9F6"/>
<path d="M176.855 193.378C174.039 200.063 170.426 206.318 166.385 212.236C162.293 218.229 157.853 224.01 153.194 229.513C150.767 232.378 148.24 235.146 145.621 237.812C143.052 240.425 140.356 242.864 137.679 245.346C135.3 247.551 133.063 250.045 130.289 251.701C128.977 252.484 127.597 252.956 126.093 253.06C124.517 253.169 122.92 252.945 121.379 252.599C115.141 251.197 109.191 247.708 104.551 243.084C103.981 242.516 103.431 241.927 102.899 241.32C102.69 241.082 102.661 240.676 102.899 240.441C107.411 235.976 112.508 232.24 116.982 227.729C121.378 223.297 124.815 218.011 127.294 212.135C128.496 209.286 129.462 206.328 130.244 203.319C130.994 200.437 131.603 197.514 132.427 194.654C133.242 191.823 134.275 189.023 135.817 186.545C137.316 184.135 139.268 182.126 141.518 180.519C146.079 177.263 151.52 175.659 156.796 174.288C157.467 174.113 158.14 173.943 158.812 173.774C159.543 173.59 159.854 174.788 159.122 174.973C153.83 176.304 148.389 177.688 143.628 180.59C141.35 181.979 139.272 183.739 137.649 185.948C135.933 188.282 134.777 191.02 133.902 193.817C133.021 196.634 132.397 199.53 131.687 202.399C130.95 205.374 130.068 208.304 128.957 211.147C126.667 217.004 123.495 222.451 119.332 227.009C115.052 231.695 109.988 235.441 105.379 239.732C104.82 240.253 104.268 240.782 103.724 241.32V240.441C108.011 245.33 113.591 248.974 119.622 250.844C122.381 251.7 125.634 252.425 128.413 251.287C129.819 250.712 131.096 249.746 132.267 248.753C133.493 247.712 134.645 246.578 135.808 245.459C138.323 243.038 140.953 240.762 143.435 238.3C146.032 235.723 148.542 233.047 150.957 230.276C153.334 227.549 155.599 224.716 157.831 221.854C159.997 219.078 162.122 216.263 164.154 213.374C168.176 207.654 171.845 201.633 174.777 195.196C175.145 194.387 175.502 193.571 175.847 192.751C176.154 192.022 177.16 192.654 176.855 193.378Z" fill="#121212"/>
<path d="M138.023 208.006C140.589 205.32 143.155 202.634 145.721 199.948C143.63 203.959 141.538 207.971 139.277 211.894C137.125 215.629 134.759 218.852 132.05 222.197C127.355 227.993 122.682 233.806 118.031 239.637C116.927 241.025 115.809 242.444 115.181 244.09C114.553 245.736 114.479 247.675 115.42 249.174C114.643 249.721 113.589 249.085 112.865 248.474C110.132 246.167 107.4 243.861 104.668 241.555C107.934 237.95 111.339 234.466 114.874 231.111" fill="#121212"/>
<path d="M137.61 207.566C140.176 204.881 142.742 202.195 145.308 199.509C145.783 199.012 146.547 199.643 146.224 200.262C144.397 203.768 142.569 207.275 140.632 210.714C138.805 213.959 136.793 217.045 134.553 219.983C132.184 223.088 129.677 226.077 127.231 229.114C124.729 232.22 122.232 235.332 119.742 238.449C118.447 240.071 117.006 241.66 116.06 243.552C115.238 245.196 114.932 247.22 115.924 248.86C116.095 249.143 115.977 249.546 115.714 249.711C114.798 250.285 113.755 249.889 112.939 249.299C111.953 248.587 111.044 247.724 110.11 246.936C108.159 245.289 106.207 243.641 104.256 241.994C104.005 241.783 104.057 241.334 104.256 241.115C107.534 237.5 110.939 234.017 114.461 230.671C115.02 230.14 115.848 231.017 115.286 231.55C111.765 234.896 108.36 238.379 105.081 241.994V241.115C106.816 242.579 108.55 244.044 110.285 245.508C111.131 246.222 111.976 246.936 112.822 247.649C113.373 248.114 114.364 249.114 115.125 248.637L114.916 249.488C114.027 248.018 113.946 246.183 114.415 244.537C114.925 242.744 116.022 241.231 117.132 239.812C119.61 236.645 122.148 233.528 124.666 230.397C127.222 227.217 129.808 224.063 132.349 220.87C134.671 217.954 136.848 214.91 138.733 211.651C141.008 207.717 143.111 203.673 145.217 199.635L146.133 200.388C143.567 203.074 141.001 205.76 138.435 208.446C137.899 209.007 137.073 208.128 137.61 207.566Z" fill="#121212"/>
<path d="M95.5165 242.877C90.2721 248.679 82.8599 252.463 79.4616 259.981C78.5362 262.028 77.9149 264.217 77.387 266.413C76.9296 268.316 76.674 270.345 75.8994 272.142C75.2089 273.743 73.863 275.048 72.111 274.91C70.0564 274.748 68.637 273.021 68.0301 271.043C67.6568 269.827 67.4975 268.522 67.3809 267.253C67.2539 265.87 67.2289 264.479 67.2756 263.091C67.3695 260.299 67.7474 257.527 68.1654 254.772L69.0226 255.474C68.0191 256.149 66.6232 255.749 65.8871 254.813C65.0224 253.714 64.9383 252.178 64.7263 250.821C64.4798 249.243 64.1278 247.64 64.0312 246.042C63.9475 244.658 64.3321 243.379 65.2848 242.413C66.1785 241.507 67.3194 240.96 68.4168 240.397C69.7106 239.732 70.9699 238.994 72.2 238.205C74.6858 236.61 77.0502 234.812 79.376 232.966C82.1716 230.748 84.9419 228.492 87.7225 226.253C87.9758 226.048 88.3726 226.212 88.5209 226.476C88.6989 226.792 88.5616 227.125 88.3116 227.326C83.9213 230.862 79.6008 234.551 75.0059 237.785C72.8061 239.333 70.5243 240.658 68.1636 241.902C67.2447 242.386 66.205 242.948 65.627 243.891C64.9252 245.035 65.2203 246.449 65.4169 247.707C65.6687 249.318 65.8585 250.958 66.1877 252.553C66.3112 253.151 66.499 253.825 66.9736 254.218C67.3863 254.56 67.9746 254.709 68.4336 254.401C68.9052 254.084 69.3663 254.606 69.2908 255.103C68.5835 259.765 67.975 264.607 68.8241 269.297C69.1587 271.145 69.8965 273.158 71.8156 273.616C73.4237 273.999 74.5111 272.607 75.0276 271.167C75.332 270.318 75.5075 269.429 75.7009 268.547C75.9265 267.518 76.1568 266.49 76.4121 265.468C76.9354 263.375 77.5704 261.308 78.4539 259.353C80.0497 255.823 82.5765 252.995 85.3498 250.477C88.4633 247.651 91.8453 245.147 94.6913 241.998C95.2133 241.42 96.0379 242.3 95.5165 242.877Z" fill="#121212"/>
<path d="M146.806 198.242C138.311 213.312 125.429 228.323 113.563 239.273C109.078 243.412 101.452 249.508 94.8008 246.565C89.8527 244.376 85.1926 240.919 83.2722 236.046C82.6757 234.532 82.3608 232.918 82.3466 231.301C82.3408 230.639 82.388 229.963 82.6478 229.349C82.969 228.59 83.5872 227.986 84.1866 227.401C91.2638 220.484 97.1421 212.424 104.384 205.802C108.031 202.467 110.782 197.839 113.919 194.057C118.634 188.374 123.165 183.413 129.995 180.188C132.389 179.058 134.787 177.926 137.28 177.018C141.348 175.538 145.65 174.668 149.987 174.448" fill="#FAF9F6"/>
<path d="M147.31 198.556C144.079 204.279 140.404 209.709 136.471 214.906C132.472 220.19 128.193 225.234 123.696 230.041C121.524 232.363 119.299 234.629 117.022 236.833C115.077 238.716 113.11 240.583 111.019 242.281C106.99 245.554 101.821 248.804 96.5462 247.764C95.2045 247.5 93.9503 246.882 92.7296 246.252C91.466 245.601 90.2401 244.862 89.0811 244.017C86.8967 242.425 84.906 240.45 83.5485 238.008C82.8007 236.662 82.2552 235.176 81.9842 233.639C81.7115 232.091 81.5114 230.204 82.2691 228.773C82.6314 228.089 83.1839 227.539 83.721 227.013C84.3049 226.441 84.8838 225.862 85.4552 225.276C86.616 224.084 87.7508 222.864 88.8704 221.629C93.2947 216.747 97.4884 211.618 102.197 207.037C103.328 205.937 104.517 204.907 105.592 203.743C106.662 202.585 107.652 201.346 108.61 200.082C110.49 197.604 112.285 195.066 114.281 192.69C117.987 188.276 121.977 184.078 126.864 181.163C128.209 180.36 129.61 179.69 131.021 179.03C132.537 178.32 134.06 177.625 135.61 177.001C138.701 175.756 141.905 174.857 145.174 174.337C146.77 174.083 148.376 173.911 149.987 173.827C150.738 173.788 150.736 175.031 149.987 175.07C146.765 175.239 143.569 175.761 140.45 176.644C137.301 177.536 134.293 178.843 131.316 180.241C128.694 181.473 126.2 182.878 123.883 184.685C121.724 186.368 119.755 188.315 117.895 190.36C115.946 192.503 114.07 194.733 112.323 197.067C110.481 199.529 108.722 202.075 106.669 204.348C105.627 205.5 104.475 206.517 103.362 207.588C102.21 208.697 101.087 209.84 99.986 211.006C97.7814 213.34 95.6613 215.763 93.5384 218.18C91.409 220.605 89.2753 223.028 87.0515 225.356C85.9781 226.479 84.7904 227.513 83.7735 228.693C83.2603 229.289 82.9833 229.955 82.9406 230.765C82.8988 231.557 82.9548 232.367 83.0826 233.148C84.0397 238.998 88.8079 242.902 93.5613 245.303C94.7326 245.894 95.9231 246.438 97.217 246.629C98.4204 246.807 99.6586 246.721 100.845 246.457C103.389 245.892 105.741 244.603 107.907 243.108C109.972 241.681 111.875 240.023 113.726 238.3C115.922 236.255 118.068 234.15 120.168 231.993C124.612 227.43 128.851 222.638 132.847 217.627C136.837 212.625 140.588 207.397 143.962 201.901C144.765 200.593 145.545 199.268 146.302 197.928C146.689 197.243 147.698 197.868 147.31 198.556Z" fill="#121212"/>
<path d="M171.919 198.627C172.216 198.612 172.512 198.597 172.808 198.583C172.194 199.517 171.049 199.962 169.966 200.313C165.61 201.724 160.96 202.544 156.364 202.077C151.974 201.631 147.888 200.102 143.648 198.886C137.932 197.247 131.937 196.526 125.983 196.774C126.016 195.865 126.048 194.956 126.081 194.046C126.151 192.083 126.237 190.054 127.117 188.286C129.952 182.584 139.392 186.165 144.234 186.619C151.362 187.287 158.47 185.415 165.276 183.25" fill="#121212"/>
<path d="M171.919 198.005C172.216 197.991 172.512 197.976 172.808 197.961C173.222 197.941 173.575 198.518 173.312 198.897C172.485 200.091 171.184 200.574 169.896 200.984C168.356 201.475 166.794 201.887 165.213 202.195C162.062 202.809 158.838 203.026 155.652 202.617C152.493 202.212 149.435 201.288 146.386 200.353C143.284 199.402 140.177 198.549 136.981 198.035C133.346 197.45 129.657 197.248 125.983 197.396C125.676 197.408 125.388 197.101 125.4 196.774C125.473 194.731 125.44 192.64 125.78 190.621C126.036 189.103 126.598 187.579 127.655 186.489C129.374 184.718 131.925 184.4 134.209 184.483C136.802 184.578 139.353 185.163 141.901 185.639C145.159 186.248 148.462 186.247 151.747 185.856C156.297 185.314 160.744 184.041 165.121 182.651C165.842 182.422 166.15 183.621 165.431 183.85C158.279 186.121 150.603 188.22 143.088 187.095C140.72 186.74 138.388 186.143 136.008 185.868C133.836 185.618 131.302 185.463 129.34 186.68C128.127 187.433 127.431 188.696 127.078 190.119C126.546 192.257 126.645 194.58 126.567 196.774L125.983 196.153C132.313 195.898 138.623 196.743 144.72 198.555C147.7 199.44 150.656 200.444 153.701 201.049C156.808 201.666 159.964 201.731 163.098 201.299C164.826 201.061 166.539 200.676 168.222 200.197C169.007 199.974 169.799 199.745 170.563 199.451C171.202 199.204 171.89 198.867 172.305 198.269L172.808 199.204C172.512 199.219 172.216 199.234 171.919 199.249C171.169 199.286 171.17 198.043 171.919 198.005Z" fill="#121212"/>
<path d="M145.311 190.454C142.452 194.458 139.584 198.454 136.661 202.405C133.667 206.45 130.616 210.448 127.463 214.354C124.306 218.264 121.047 222.082 117.645 225.753C114.237 229.431 110.686 232.961 106.958 236.271C103.266 239.549 99.403 242.615 95.3551 245.378C94.8398 245.73 94.3213 246.076 93.8003 246.418C93.1591 246.839 92.5722 245.764 93.2112 245.345C97.2791 242.674 101.167 239.702 104.876 236.493C108.603 233.269 112.156 229.818 115.564 226.216C118.984 222.6 122.258 218.831 125.426 214.964C128.58 211.115 131.628 207.169 134.613 203.17C137.544 199.245 140.413 195.268 143.266 191.278C143.612 190.794 143.958 190.31 144.303 189.826C144.495 189.557 144.804 189.423 145.101 189.603C145.35 189.754 145.501 190.187 145.311 190.454Z" fill="#121212"/>
<path d="M133.985 190.454C128.645 198.179 122.823 205.506 116.652 212.491C110.842 219.068 104.742 225.344 98.5853 231.55C95.0899 235.073 91.5773 238.577 88.0887 242.108C87.5443 242.659 86.7176 241.782 87.2635 241.229C93.4077 235.01 99.6286 228.877 105.692 222.568C111.847 216.165 117.831 209.569 123.43 202.607C126.756 198.471 129.945 194.212 132.977 189.826C133.418 189.189 134.431 189.808 133.985 190.454Z" fill="#121212"/>
<path d="M119.561 197.06C115.156 202.604 110.387 207.802 105.529 212.893C100.759 217.893 95.8983 222.794 91.2123 227.884C88.6548 230.662 86.1519 233.498 83.7581 236.437C83.265 237.042 82.4425 236.16 82.9328 235.558C87.2331 230.278 91.8809 225.335 96.5736 220.454C101.412 215.421 106.308 210.448 111 205.258C113.662 202.314 116.256 199.301 118.735 196.18C119.221 195.569 120.043 196.452 119.561 197.06Z" fill="#121212"/>
<path d="M176.688 150.909C185.7 145.496 192.379 137.098 198.08 128.415C203.782 119.732 208.741 110.544 215.361 102.502C217.238 100.221 219.294 98.0002 221.904 96.5562C224.514 95.1122 227.786 94.5407 230.551 95.6796C231.649 96.1317 232.76 97.3187 232.149 98.314C231.134 99.9655 234.487 102.148 232.143 104.341C233.607 105.653 233.153 108.393 231.339 109.19C232.611 109.616 232.723 111.448 231.959 112.526C231.195 113.603 229.918 114.203 228.88 115.037C227.186 116.396 226.149 118.362 225.216 120.295C220.309 130.459 216.536 141.15 211.33 151.205C206.614 160.315 200.666 169.031 192.479 175.402C190.479 176.959 188.25 178.408 185.711 178.734" fill="#F2F2F2"/>
<path d="M176.394 150.373C181.562 147.257 186.061 143.077 190.019 138.384C194.042 133.615 197.489 128.352 200.817 123.021C204.406 117.272 207.892 111.44 211.892 105.998C215.521 101.062 219.786 95.3699 226.03 94.5456C227.48 94.3541 228.99 94.4554 230.38 94.9548C231.498 95.3562 232.978 96.3289 232.904 97.7868C232.878 98.2971 232.509 98.677 232.538 99.1179C232.561 99.4767 232.756 99.9021 232.909 100.254C233.32 101.196 233.756 102.199 233.493 103.26C233.344 103.861 232.982 104.368 232.556 104.78V103.901C234.298 105.529 233.722 108.757 231.633 109.727L231.494 108.591C232.495 108.963 233.059 109.952 233.019 111.071C232.974 112.337 232.257 113.269 231.346 114.007C230.331 114.83 229.199 115.425 228.303 116.412C227.378 117.431 226.691 118.656 226.068 119.9C223.217 125.592 220.833 131.547 218.33 137.417C215.856 143.219 213.294 148.991 210.247 154.482C207.494 159.44 204.353 164.18 200.675 168.413C198.825 170.541 196.84 172.537 194.716 174.353C192.603 176.16 190.352 177.974 187.747 178.882C187.082 179.114 186.405 179.26 185.711 179.355C185.396 179.399 185.131 179.039 185.128 178.734C185.124 178.363 185.4 178.155 185.711 178.112C188.342 177.752 190.633 176.112 192.705 174.455C194.811 172.771 196.785 170.896 198.63 168.896C202.281 164.939 205.407 160.471 208.153 155.764C211.135 150.65 213.656 145.254 216.03 139.796C218.504 134.105 220.829 128.34 223.425 122.71C224.584 120.196 225.691 117.44 227.574 115.428C228.475 114.466 229.585 113.855 230.602 113.058C231.331 112.486 232.023 111.672 231.824 110.632C231.75 110.244 231.541 109.923 231.183 109.79C230.765 109.634 230.544 108.886 231.044 108.654C232.463 107.995 232.951 105.92 231.73 104.78C231.501 104.566 231.508 104.116 231.73 103.901C232.084 103.558 232.385 103.166 232.409 102.638C232.427 102.225 232.288 101.813 232.14 101.438C231.812 100.607 231.286 99.7578 231.383 98.8174C231.409 98.5619 231.476 98.3346 231.587 98.1056C231.696 97.8795 231.784 97.7547 231.701 97.4939C231.524 96.9364 230.918 96.5222 230.44 96.2995C229.164 95.7055 227.678 95.6075 226.309 95.7549C223.423 96.0659 220.842 97.6754 218.717 99.7051C216.484 101.839 214.563 104.368 212.718 106.878C208.859 112.126 205.495 117.759 202.037 123.308C198.806 128.492 195.472 133.62 191.629 138.318C187.888 142.893 183.654 147.049 178.819 150.282C178.215 150.685 177.603 151.072 176.983 151.446C176.328 151.841 175.739 150.767 176.394 150.373Z" fill="#121212"/>
<path d="M149.489 196.242C150.239 196.633 151.007 196.989 151.79 197.307C158.228 199.922 165.455 200.203 172.232 198.81C183.149 196.566 192.002 189.971 197.172 180.253C204.07 167.285 202.619 152.045 194.782 139.927C192.684 136.683 190.2 133.611 187.025 131.342C183.493 128.818 179.248 127.392 174.961 126.505C166.153 124.685 156.88 125.034 148.243 127.513C144.302 128.644 140.071 130.556 135.883 130.452C132.098 130.359 128.981 129.007 125.673 127.341C120.146 124.558 113.415 123.794 107.608 125.973C101.801 128.153 97.1787 133.481 96.6505 139.514C96.2654 143.913 98.0321 148.375 101.077 151.649C104.121 154.923 108.359 157.042 112.805 157.929C116.792 158.724 121.128 159.176 125.151 159.625C128.411 159.988 131.678 160.364 133.802 163.066C136.532 166.537 135.44 170.993 135.453 175.02C135.48 183.864 141.452 192.057 149.489 196.242Z" fill="#F2F2F2"/>
<path d="M149.784 195.706C158.712 200.314 169.712 199.892 178.845 196.16C186.666 192.964 193.243 186.88 197.162 178.978C201.528 170.174 202.102 159.816 199.112 150.422C197.593 145.648 195.202 141.154 192.186 137.273C190.637 135.28 188.885 133.444 186.874 131.983C184.851 130.512 182.609 129.423 180.29 128.603C175.34 126.854 170.044 126.1 164.843 125.991C159.49 125.878 154.127 126.529 148.943 127.959C146.409 128.658 143.947 129.622 141.407 130.298C138.891 130.968 136.353 131.267 133.772 130.888C131.399 130.541 129.15 129.683 126.968 128.656C125.803 128.107 124.669 127.497 123.473 127.025C122.343 126.579 121.184 126.216 120.006 125.941C115.365 124.858 110.267 125.13 105.955 127.381C102.32 129.279 99.1313 132.564 97.8126 136.71C96.3662 141.257 97.5983 146.223 100.383 149.894C103.338 153.79 107.765 156.154 112.303 157.189C117.365 158.343 122.551 158.518 127.657 159.324C129.793 159.661 131.939 160.32 133.567 161.905C135.221 163.515 136.004 165.764 136.189 168.099C136.374 170.433 136.02 172.763 136.037 175.097C136.052 177.257 136.441 179.391 137.126 181.421C138.547 185.63 141.239 189.28 144.469 192.094C146.1 193.515 147.895 194.715 149.784 195.706C150.458 196.059 149.867 197.132 149.195 196.779C141.555 192.773 135.045 184.747 134.873 175.326C134.83 172.97 135.195 170.619 135.034 168.262C134.866 165.812 133.898 163.467 131.907 162.101C130.006 160.798 127.663 160.529 125.466 160.282C122.792 159.98 120.116 159.699 117.45 159.325C114.857 158.961 112.231 158.587 109.728 157.755C107.454 157 105.258 155.909 103.307 154.448C99.4396 151.553 96.554 147.14 96.0772 142.05C95.6506 137.496 97.5321 133.121 100.537 129.957C103.822 126.496 108.218 124.6 112.787 124.181C115.302 123.95 117.853 124.166 120.317 124.742C122.757 125.313 124.974 126.345 127.24 127.432C129.531 128.53 131.937 129.455 134.449 129.734C137.149 130.033 139.769 129.519 142.361 128.74C144.943 127.962 147.475 127.025 150.092 126.38C152.773 125.719 155.5 125.26 158.241 124.996C163.682 124.472 169.188 124.741 174.562 125.794C179.537 126.769 184.529 128.446 188.581 131.777C192.436 134.946 195.463 139.342 197.729 143.9C202.181 152.856 203.494 163.466 200.663 173.213C198.058 182.182 192.246 189.872 184.634 194.582C176.315 199.729 165.916 201.524 156.503 199.42C153.977 198.856 151.519 197.979 149.195 196.779C148.519 196.43 149.11 195.358 149.784 195.706Z" fill="#121212"/>
<path d="M147.704 164.526C134.679 172.533 119.805 177.332 104.729 180.427C95.9431 182.231 87.0491 183.478 78.1423 184.561C70.4582 185.495 62.0019 185.183 54.7316 187.591C54.0052 187.831 53.2413 188.096 52.7471 188.667C52.1628 189.342 52.0995 190.396 52.599 191.132C51.7199 191.094 51.3367 192.199 51.3046 193.054C51.2809 193.685 51.3082 194.355 51.661 194.884C52.0139 195.413 52.7993 195.716 53.3363 195.362C52.7375 196.272 51.8077 196.987 51.4341 198.004C51.0605 199.022 51.7318 200.497 52.827 200.319C53.2924 200.243 53.7565 199.884 54.1855 200.076C53.2526 200.934 52.5803 202.402 53.3612 203.394C54.2642 204.541 56.1129 204.008 57.4737 203.429C61.3819 201.767 64.9827 201.202 69.168 201.949C68.6724 203.45 68.1911 204.956 68.0745 206.553C68.0449 206.958 68.0399 207.39 68.2511 207.741C68.7896 208.635 70.2012 208.36 71.1059 207.813C73.3642 206.447 74.9486 204.137 77.3459 203.017C78.5892 202.436 79.9739 202.215 81.3416 202.041C83.999 201.703 86.677 201.518 89.3569 201.487C94.5724 201.428 99.777 201.551 104.98 201.161C122.586 199.838 140.16 195.996 155.904 188.217" fill="#F2F2F2"/>
<path d="M147.999 165.063C142.486 168.444 136.673 171.247 130.705 173.584C124.62 175.966 118.373 177.863 112.058 179.414C105.446 181.037 98.7567 182.275 92.0424 183.302C85.3207 184.33 78.57 185.276 71.7916 185.745C68.57 185.968 65.3426 186.157 62.1381 186.589C60.5613 186.802 58.9906 187.083 57.441 187.461C56.67 187.649 55.9044 187.862 55.147 188.106C54.5118 188.31 53.77 188.495 53.2697 188.989C52.7649 189.487 52.7377 190.228 53.103 190.819C53.354 191.225 53.0205 191.745 52.5991 191.754C51.9615 191.767 51.885 192.814 51.8826 193.314C51.8798 193.908 52.1811 195.304 53.0419 194.825C53.5142 194.563 54.2087 195.136 53.8403 195.676C53.4665 196.224 53.0244 196.699 52.6082 197.209C52.2621 197.633 51.8605 198.158 51.9184 198.756C51.9556 199.14 52.1776 199.651 52.5821 199.71C52.8418 199.747 53.1219 199.575 53.3647 199.499C53.6972 199.395 54.0058 199.373 54.3407 199.476C54.744 199.601 54.9329 200.194 54.5982 200.515C54.1123 200.981 53.5576 201.682 53.6028 202.431C53.6461 203.151 54.2994 203.437 54.8905 203.449C56.3993 203.48 57.8754 202.552 59.2808 202.081C62.5568 200.983 65.9383 200.761 69.3233 201.349C69.6205 201.401 69.827 201.822 69.7308 202.114C69.4732 202.896 69.2177 203.679 69.0166 204.48C68.8198 205.263 68.5282 206.262 68.6488 207.08C68.8489 208.437 70.7995 207.311 71.3743 206.908C73.6561 205.309 75.3695 202.973 78.0586 202.074C79.5755 201.566 81.1998 201.419 82.7745 201.252C84.4148 201.078 86.0606 200.962 87.7082 200.904C91.1039 200.785 94.5052 200.863 97.9022 200.818C104.402 200.733 110.889 200.131 117.326 199.175C123.56 198.249 129.751 196.959 135.834 195.227C142.607 193.298 149.245 190.818 155.61 187.68C156.287 187.346 156.881 188.418 156.199 188.754C150.352 191.636 144.283 193.987 138.085 195.857C131.816 197.748 125.421 199.157 118.975 200.17C112.38 201.206 105.716 201.914 99.0475 202.043C95.5429 202.111 92.0367 202.042 88.5325 202.123C86.7812 202.164 85.0312 202.271 83.287 202.443C81.6449 202.605 79.9501 202.744 78.3689 203.273C75.621 204.191 73.904 206.817 71.4721 208.305C70.5391 208.876 69.1564 209.289 68.1968 208.56C66.9804 207.635 67.5569 205.511 67.8665 204.249C68.0716 203.414 68.3371 202.598 68.6054 201.783L69.013 202.548C67.0636 202.209 65.0678 202.139 63.1077 202.422C61.1661 202.703 59.3181 203.339 57.4957 204.084C56.1761 204.624 54.3262 205.171 53.1348 204.035C51.7817 202.744 52.6479 200.714 53.7729 199.636L54.0304 200.675C53.6641 200.562 53.2039 200.9 52.827 200.94C52.4905 200.977 52.1494 200.913 51.8497 200.741C51.303 200.427 50.9333 199.815 50.8052 199.177C50.4465 197.391 51.9662 196.317 52.8325 195.048L53.6309 195.899C52.9815 196.26 52.24 196.175 51.6463 195.726C51.0151 195.247 50.7715 194.457 50.7236 193.662C50.6436 192.334 51.085 190.542 52.5991 190.511L52.0952 191.446C51.3321 190.212 51.6941 188.635 52.8045 187.803C53.3796 187.371 54.0842 187.15 54.7499 186.934C55.5355 186.68 56.3303 186.458 57.1307 186.262C60.2907 185.491 63.5285 185.126 66.7563 184.862C70.0596 184.592 73.3714 184.439 76.6699 184.103C80.1566 183.748 83.6364 183.261 87.1092 182.778C94.1495 181.798 101.171 180.625 108.121 179.066C114.596 177.614 121.011 175.826 127.279 173.558C133.482 171.313 139.538 168.591 145.295 165.252C146.005 164.841 146.71 164.419 147.41 163.989C148.062 163.589 148.65 164.663 147.999 165.063Z" fill="#121212"/>
<path d="M91.9122 174.613C94.9123 176.56 98.8383 176.717 102.217 176.092C103.863 175.788 105.505 175.286 106.98 174.435C108.731 173.425 110.452 171.912 111.054 169.811C112.372 165.203 107.252 162.507 103.815 161.782C101.795 161.356 99.8353 161.475 97.8254 161.87C95.9155 162.246 93.906 162.581 92.1918 163.611C90.3194 164.736 88.9805 166.796 88.9277 169.123C88.8753 171.434 90.1177 173.412 91.9122 174.613C92.5468 175.038 91.9617 176.114 91.3232 175.686C89.4801 174.453 88.1107 172.538 87.8205 170.202C87.536 167.911 88.3452 165.588 89.8567 163.95C91.3729 162.306 93.4656 161.557 95.5313 161.082C97.7153 160.579 99.926 160.106 102.17 160.296C104.428 160.486 106.708 161.144 108.656 162.4C110.502 163.59 112.166 165.418 112.403 167.799C112.647 170.241 111.339 172.51 109.634 174.023C108.093 175.389 106.26 176.3 104.336 176.863C102.167 177.497 99.8689 177.749 97.6243 177.594C95.4355 177.443 93.2132 176.913 91.3232 175.686C90.6827 175.271 91.2685 174.195 91.9122 174.613Z" fill="#121212"/>
<path d="M83.7827 134.957C83.9783 133.454 83.1235 132.004 82.0094 131.16C80.8876 130.311 79.5152 129.867 78.1452 129.82C75.6591 129.735 72.8753 130.969 72.0736 133.675C71.7149 134.886 71.7877 136.227 72.4126 137.327C72.9089 138.199 73.6928 138.863 74.55 139.299C76.2084 140.141 78.2109 140.064 79.9144 139.424C81.8167 138.71 83.4389 137.138 83.7827 134.957C83.9067 134.169 85.0317 134.503 84.9082 135.287C84.1305 140.223 78.1474 142.306 74.2061 140.49C73.1507 140.003 72.2314 139.221 71.5679 138.219C70.7311 136.955 70.5205 135.32 70.8271 133.828C71.5115 130.498 74.6181 128.673 77.6322 128.577C81.148 128.464 85.4694 130.978 84.9082 135.287C84.8645 135.622 84.4662 135.799 84.1903 135.721C83.8531 135.627 83.7396 135.287 83.7827 134.957Z" fill="#121212"/>
<path d="M154.638 198.556C150.312 206.053 145.453 213.209 140.198 219.998C137.577 223.384 134.857 226.696 131.982 229.842C129.079 233.018 125.982 235.988 122.798 238.84C119.186 242.075 115.46 245.161 111.736 248.245C111.485 248.453 111.155 248.501 110.91 248.245C110.707 248.033 110.662 247.572 110.91 247.366C117.506 241.904 124.132 236.426 130.064 230.139C135.887 223.968 141.131 217.123 145.97 210.062C148.668 206.125 151.234 202.082 153.631 197.928C154.023 197.248 155.033 197.872 154.638 198.556Z" fill="#121212"/>
<path d="M164.299 200.014C159.872 208.215 154.485 215.737 148.528 222.74C145.772 225.979 142.913 229.117 140.039 232.237C137.103 235.427 134.215 238.674 131.23 241.812C127.514 245.721 123.558 249.39 119.187 252.449C118.557 252.889 117.972 251.813 118.598 251.375C126.062 246.152 132.068 239.11 138.283 232.369C144.027 226.139 149.734 219.854 154.76 212.941C157.89 208.636 160.743 204.107 163.291 199.387C163.666 198.693 164.674 199.319 164.299 200.014Z" fill="#121212"/>
<path d="M228.486 99.896C228.03 100.058 227.575 100.22 227.119 100.381C226.98 100.431 226.794 100.396 226.67 100.319C226.549 100.243 226.433 100.095 226.401 99.9471C226.328 99.604 226.499 99.2926 226.809 99.1824C227.264 99.0206 227.72 98.8589 228.175 98.6971C228.314 98.6477 228.501 98.6825 228.625 98.7598C228.746 98.8352 228.862 98.9831 228.893 99.1313C228.967 99.4744 228.796 99.7858 228.486 99.896Z" fill="#121212"/>
<path d="M228.658 103.947C228.198 104.172 227.738 104.396 227.278 104.621C227.132 104.693 226.99 104.731 226.829 104.684C226.693 104.644 226.547 104.533 226.48 104.398C226.408 104.254 226.372 104.079 226.421 103.919C226.465 103.774 226.553 103.614 226.689 103.548C227.149 103.323 227.609 103.098 228.069 102.874C228.215 102.802 228.357 102.764 228.518 102.811C228.654 102.851 228.8 102.962 228.867 103.097C228.939 103.241 228.974 103.416 228.926 103.576C228.882 103.721 228.793 103.881 228.658 103.947Z" fill="#121212"/>
<path d="M227.67 110.518C226.919 110.518 226.918 109.275 227.67 109.275C228.421 109.275 228.422 110.518 227.67 110.518Z" fill="#121212"/>
<path d="M149.867 200.143C148.316 202.708 146.686 205.219 144.976 207.667C144.136 208.87 143.277 210.059 142.401 211.233C141.557 212.364 140.775 213.424 139.548 214.101C138.228 214.829 137.035 215.562 136.023 216.749C135.516 217.343 134.693 216.461 135.197 215.87C136.049 214.872 137.069 214.048 138.196 213.435C138.738 213.14 139.314 212.883 139.8 212.488C140.319 212.066 140.721 211.491 141.126 210.953C142.895 208.609 144.588 206.2 146.205 203.734C147.114 202.346 147.999 200.939 148.859 199.516C149.265 198.845 150.276 199.468 149.867 200.143Z" fill="#121212"/>
<path d="M227.597 186.666C237 187.959 246.463 188.839 255.947 189.305C263.212 189.662 272.284 191.54 279.284 189.643C279.893 189.478 280.517 189.285 280.987 188.873C285.247 185.137 276.51 178.059 272.841 178.144C270.919 178.189 268.781 179.143 268.337 180.962C269.312 181.545 270.675 181.156 271.419 180.31C272.164 179.464 272.389 178.288 272.356 177.175C272.239 173.147 268.958 169.577 264.991 168.416C261.025 167.256 256.605 168.258 253.144 170.472C251.395 171.592 249.794 173.087 249.116 175.014C248.437 176.941 248.905 179.345 250.613 180.522C250.904 180.723 251.241 180.889 251.597 180.882C252.415 180.868 252.941 179.913 252.773 179.134C252.605 178.355 251.972 177.758 251.33 177.266C247.263 174.151 241.448 173.353 236.654 175.252C231.859 177.151 228.271 181.673 227.597 186.666Z" fill="#F2F2F2"/>
<path d="M227.597 186.044C233.815 186.897 240.054 187.573 246.305 188.066C249.406 188.311 252.509 188.511 255.614 188.667C258.282 188.801 260.939 189.085 263.598 189.344C266.352 189.613 269.114 189.854 271.882 189.857C274.453 189.859 277.107 189.696 279.586 188.911C280.373 188.662 281.09 188.134 281.396 187.33C281.613 186.763 281.583 186.17 281.408 185.555C280.968 184.017 279.786 182.736 278.659 181.722C277.436 180.619 276.003 179.654 274.48 179.102C272.944 178.545 270.991 178.672 269.66 179.898C269.393 180.144 269.18 180.425 269.033 180.752C268.982 180.866 268.803 180.872 268.758 180.755C268.715 180.643 268.842 180.528 268.957 180.562C269.849 180.823 270.853 180.253 271.316 179.428C271.899 178.388 271.865 177.029 271.613 175.885C271.11 173.597 269.594 171.677 267.768 170.42C263.346 167.378 257.424 168.331 253.149 171.199C251.235 172.484 249.258 174.484 249.41 177.097C249.472 178.168 249.941 179.233 250.761 179.878C251.13 180.169 251.677 180.481 252.032 180.005C252.346 179.584 252.209 179.079 251.932 178.682C251.576 178.17 251.048 177.796 250.554 177.451C250.045 177.095 249.514 176.775 248.967 176.491C247.844 175.907 246.646 175.49 245.424 175.215C243.007 174.672 240.455 174.726 238.07 175.42C233.653 176.703 229.812 180.372 228.512 185.106C228.357 185.672 228.242 186.248 228.16 186.831C228.113 187.166 227.721 187.343 227.442 187.265C227.108 187.171 226.989 186.831 227.035 186.501C227.83 180.82 232.078 176.144 237.124 174.421C239.87 173.484 242.853 173.381 245.67 174.002C247.078 174.312 248.448 174.821 249.733 175.51C250.908 176.141 252.34 176.976 253.039 178.212C253.706 179.391 253.306 181.162 251.915 181.465C250.602 181.75 249.329 180.397 248.786 179.259C247.488 176.54 248.678 173.578 250.654 171.656C252.853 169.516 255.807 168.128 258.723 167.58C261.642 167.031 264.724 167.297 267.387 168.751C269.699 170.013 271.676 172.145 272.531 174.791C273.36 177.356 273.005 181.259 269.947 181.806C269.285 181.925 268.639 181.831 268.043 181.499C267.817 181.373 267.707 181.052 267.775 180.797C268.391 178.477 271.102 177.356 273.192 177.535C274.797 177.672 276.349 178.512 277.683 179.423C279.215 180.47 280.655 181.78 281.684 183.391C282.547 184.741 283.08 186.459 282.38 188.016C281.951 188.968 281.136 189.649 280.217 190C278.978 190.472 277.616 190.675 276.315 190.843C273.464 191.211 270.575 191.137 267.715 190.941C264.832 190.744 261.959 190.404 259.08 190.15C255.99 189.878 252.888 189.777 249.794 189.566C243.205 189.117 236.628 188.468 230.073 187.618C229.248 187.511 228.423 187.401 227.598 187.287C227.283 187.244 227.018 187.033 227.014 186.666C227.011 186.363 227.285 186.001 227.597 186.044Z" fill="#121212"/>
<path d="M251.291 102.016C250.512 102.73 249.733 103.444 248.955 104.158C248.724 104.37 248.354 104.418 248.129 104.158C247.929 103.925 247.882 103.505 248.129 103.279C248.908 102.565 249.687 101.851 250.465 101.137C250.697 100.925 251.067 100.877 251.291 101.137C251.491 101.37 251.538 101.79 251.291 102.016Z" fill="#121212"/>
<path d="M241.826 93.3314C240.627 94.1448 239.429 94.9583 238.231 95.7717C237.973 95.9468 237.576 95.8377 237.433 95.5487C237.28 95.2412 237.367 94.885 237.642 94.6982C238.84 93.8847 240.038 93.0713 241.237 92.2578C241.494 92.0827 241.892 92.1918 242.035 92.4808C242.187 92.7884 242.101 93.1445 241.826 93.3314Z" fill="#121212"/>
<path d="M285.857 74.2981C285.11 74.5162 284.363 74.7342 283.615 74.9523C283.321 75.0381 282.968 74.8457 282.898 74.5181C282.827 74.1899 282.99 73.8453 283.305 73.7534C284.052 73.5353 284.799 73.3173 285.547 73.0992C285.841 73.0134 286.194 73.2058 286.264 73.5334C286.335 73.8616 286.172 74.2062 285.857 74.2981Z" fill="#121212"/>
<path d="M282.375 81.9883C282.151 81.6976 281.927 81.4068 281.703 81.1161C281.646 81.0598 281.606 80.9931 281.582 80.916C281.546 80.8419 281.529 80.7621 281.532 80.6765C281.529 80.5909 281.546 80.5111 281.582 80.437C281.606 80.3599 281.646 80.2932 281.703 80.2369C281.814 80.1282 281.96 80.0474 282.115 80.0548C282.261 80.0618 282.431 80.1116 282.528 80.2369C282.752 80.5277 282.976 80.8184 283.201 81.1091C283.257 81.1654 283.298 81.2321 283.321 81.3092C283.358 81.3833 283.374 81.4632 283.371 81.5487C283.374 81.6343 283.358 81.7142 283.321 81.7883C283.298 81.8653 283.257 81.932 283.201 81.9883C283.089 82.0971 282.943 82.1778 282.788 82.1704C282.642 82.1635 282.472 82.1137 282.375 81.9883Z" fill="#121212"/>
<path d="M277.273 90.2711V89.3989C277.273 89.2395 277.338 89.0721 277.444 88.9593C277.497 88.8987 277.559 88.8558 277.632 88.8308C277.701 88.7919 277.776 88.774 277.857 88.7773C278.008 88.7845 278.164 88.8373 278.269 88.9593C278.374 89.081 278.44 89.2305 278.44 89.3989V90.2712C278.44 90.4306 278.375 90.598 278.269 90.7108C278.216 90.7714 278.154 90.8142 278.082 90.8393C278.012 90.8782 277.937 90.896 277.857 90.8928C277.706 90.8856 277.549 90.8328 277.444 90.7107C277.339 90.5891 277.273 90.4396 277.273 90.2711Z" fill="#121212"/>
<path d="M63.3689 96.091C65.2199 95.487 67.2636 94.7096 68.5092 93.0364C69.7536 91.365 69.8281 88.9925 69.3584 86.9997C68.447 83.1329 65.4 80.0529 61.7969 79.085C58.2307 78.1271 54.0405 79.0865 51.3763 81.8589C50.9256 82.3279 49.7904 83.5961 50.5998 84.2434C50.7649 84.3755 51.094 84.5206 51.2921 84.4007C51.6433 84.1881 51.2354 83.5561 51.0927 83.3301C50.0158 81.6244 48.4013 80.1301 46.7479 79.0927C45.0592 78.0333 43.0735 77.3745 41.0989 77.5664C39.3061 77.7406 37.5287 78.6892 36.3473 80.1376C35.2691 81.4594 34.7889 83.4042 35.756 84.946C36.2224 85.6898 37.019 86.3186 37.8782 86.3773C38.0749 86.3907 38.8646 86.3815 38.9255 86.0954C39.0043 85.725 38.1989 85.3328 37.9713 85.2221C36.0427 84.2844 33.8757 84.701 31.9748 85.4793C30.169 86.2186 28.3844 87.2974 27.1256 88.8921C25.9792 90.3442 25.4947 92.3608 26.1319 94.1737C26.8816 96.3066 29.0348 97.0023 30.942 97.4041C35.7362 98.4139 40.6737 98.382 45.5372 98.1946C50.2992 98.0111 55.1201 98.0034 59.8137 97.0289C61.0131 96.7799 62.199 96.4668 63.3689 96.091C64.0896 95.8595 64.3976 97.0592 63.6792 97.2899C58.3513 99.0013 52.8038 99.1617 47.2856 99.3687C41.6745 99.579 36.0133 99.7649 30.4775 98.5701C28.1431 98.0663 25.839 97.0041 24.9871 94.446C24.2496 92.2313 24.8946 89.8251 26.2611 88.0634C27.7149 86.1892 29.8525 84.9811 31.9646 84.1608C34.1759 83.302 36.8677 83.0262 38.9733 84.3776C39.9197 84.985 40.6512 86.4677 39.4313 87.2504C38.4877 87.8558 37.2311 87.6709 36.3074 87.1298C34.3984 86.0117 33.6164 83.5487 34.3303 81.3936C35.0381 79.2568 36.8093 77.7292 38.7386 76.9132C40.8727 76.0105 43.2566 76.1635 45.3812 77.0226C47.5512 77.9 49.4549 79.4202 50.9996 81.2523C51.6985 82.0812 52.7641 83.2112 52.562 84.4338C52.3678 85.6097 51.1545 85.9105 50.2537 85.4565C49.2026 84.9267 48.9518 83.7041 49.3992 82.6196C49.8641 81.4925 50.8485 80.6081 51.7658 79.9004C53.5429 78.5293 55.7029 77.7664 57.8764 77.5478C62.3491 77.0982 66.7706 79.3143 69.1645 83.3939C70.3039 85.3356 70.9436 87.6873 70.7536 89.9843C70.6459 91.287 70.2835 92.5749 69.5414 93.6318C68.8538 94.6112 67.9325 95.36 66.9228 95.9302C65.8946 96.5108 64.7894 96.9277 63.6792 97.2899C62.9594 97.5248 62.6517 96.325 63.3689 96.091Z" fill="#121212"/>
<path d="M183.071 142.604C183.547 141.798 184.242 141.087 184.998 140.456C188.345 137.663 193.372 135.07 197.278 138.416C199.561 140.371 200.886 143.477 200.514 146.425C200.115 149.588 197.797 152.472 194.707 153.526C191.616 154.58 187.902 153.703 185.719 151.327C184.21 149.684 182.784 147.656 182.468 145.423C182.319 144.371 182.578 143.437 183.071 142.604Z" fill="#FAF9F6"/>
<path d="M182.567 142.29C183.597 140.595 185.264 139.35 186.869 138.327C188.429 137.333 190.145 136.55 191.958 136.298C193.764 136.046 195.609 136.422 197.126 137.525C198.706 138.674 199.919 140.368 200.601 142.265C201.906 145.888 200.738 149.908 197.942 152.331C195.091 154.802 191.139 155.228 187.812 153.619C185.877 152.683 184.356 150.917 183.219 149.039C182.613 148.038 182.119 146.913 181.927 145.733C181.728 144.507 181.959 143.349 182.567 142.29C182.958 141.608 183.968 142.232 183.575 142.918C183.109 143.729 182.904 144.603 183.078 145.547C183.25 146.479 183.612 147.345 184.074 148.152C184.932 149.651 186.107 151.147 187.532 152.06C190.228 153.787 193.785 153.785 196.438 151.97C199.034 150.194 200.542 146.891 199.785 143.638C199.011 140.316 196.294 137.411 192.959 137.459C191.173 137.485 189.444 138.205 187.905 139.125C186.324 140.069 184.576 141.271 183.575 142.918C183.168 143.587 182.157 142.964 182.567 142.29Z" fill="#121212"/>
<path d="M189.855 140.493C190.715 139.48 192.108 138.881 193.456 139.045C196.174 139.375 198.085 142.002 198.176 144.55C198.226 145.97 197.652 147.581 196.621 148.597C192.439 152.722 186.767 144.13 189.855 140.493Z" fill="#121212"/>
<path d="M189.442 140.054C191.439 137.779 194.709 138.021 196.772 140.043C198.741 141.971 199.331 145.072 198.06 147.604C197.084 149.55 195.046 150.796 192.992 150.117C191.238 149.538 189.847 147.915 189.085 146.181C188.223 144.216 188.009 141.782 189.442 140.054C189.94 139.453 190.763 140.335 190.267 140.933C189.34 142.051 189.444 143.664 189.879 144.99C190.356 146.442 191.323 147.827 192.594 148.587C193.861 149.346 195.251 149.166 196.301 148.064C197.929 146.355 197.926 143.676 196.651 141.76C195.181 139.55 192.119 138.823 190.267 140.933C189.753 141.519 188.929 140.638 189.442 140.054Z" fill="#121212"/>
<path d="M162.838 147.885C163.315 147.079 164.01 146.367 164.766 145.737C168.113 142.944 173.14 140.351 177.046 143.697C179.328 145.652 180.653 148.758 180.282 151.706C179.883 154.868 177.565 157.752 174.474 158.807C171.383 159.861 167.67 158.984 165.487 156.608C163.977 154.964 162.551 152.936 162.235 150.703C162.086 149.652 162.345 148.718 162.838 147.885Z" fill="#FAF9F6"/>
<path d="M162.334 147.571C163.365 145.876 165.031 144.631 166.636 143.608C168.196 142.614 169.913 141.831 171.725 141.579C173.532 141.327 175.376 141.703 176.893 142.806C178.473 143.955 179.686 145.649 180.369 147.546C181.673 151.169 180.505 155.189 177.709 157.612C174.858 160.083 170.907 160.509 167.579 158.9C165.644 157.964 164.124 156.198 162.986 154.319C162.381 153.319 161.887 152.194 161.695 151.014C161.495 149.788 161.727 148.63 162.334 147.571C162.725 146.889 163.735 147.513 163.342 148.199C162.876 149.01 162.671 149.884 162.845 150.828C163.017 151.76 163.38 152.626 163.842 153.433C164.699 154.932 165.875 156.428 167.299 157.34C169.996 159.068 173.553 159.066 176.206 157.251C178.801 155.474 180.31 152.172 179.552 148.919C178.778 145.597 176.061 142.692 172.726 142.74C170.94 142.766 169.212 143.486 167.672 144.406C166.091 145.35 164.343 146.552 163.342 148.199C162.935 148.868 161.924 148.245 162.334 147.571Z" fill="#121212"/>
<path d="M169.622 145.774C170.482 144.761 171.875 144.162 173.223 144.326C175.941 144.656 177.853 147.283 177.943 149.831C177.993 151.251 177.419 152.862 176.389 153.878C172.207 158.003 166.534 149.411 169.622 145.774Z" fill="#121212"/>
<path d="M169.209 145.335C171.206 143.06 174.476 143.302 176.54 145.323C178.508 147.252 179.099 150.353 177.828 152.885C176.851 154.831 174.814 156.077 172.759 155.398C171.005 154.819 169.614 153.196 168.853 151.462C167.99 149.497 167.776 147.063 169.209 145.335C169.708 144.734 170.53 145.616 170.035 146.214C169.107 147.332 169.211 148.945 169.646 150.271C170.123 151.723 171.091 153.108 172.361 153.868C173.629 154.627 175.018 154.447 176.068 153.345C177.696 151.635 177.693 148.957 176.418 147.04C174.948 144.831 171.886 144.104 170.035 146.214C169.521 146.799 168.696 145.919 169.209 145.335Z" fill="#121212"/>
<path d="M180.708 149.43C181.327 148.838 182.137 148.439 182.994 148.304C183.517 148.222 184.05 148.236 184.579 148.245C184.854 148.25 185.172 148.234 185.337 148.02C185.494 147.817 185.437 147.531 185.358 147.289C185.233 146.906 185.068 146.537 184.904 146.169C184.836 146.015 184.762 145.855 184.629 145.749C184.458 145.613 184.223 145.591 184.002 145.582C182.542 145.521 181.069 145.775 179.719 146.321C179.685 146.335 179.648 146.352 179.632 146.384C179.616 146.416 179.625 146.455 179.635 146.489C179.846 147.243 180.056 147.998 180.267 148.752" fill="#121212"/>
<path d="M180.353 149.052C181.062 148.389 181.926 147.942 182.86 147.788C183.396 147.7 183.933 147.701 184.473 147.708C184.607 147.71 184.846 147.756 184.968 147.664C184.894 147.719 184.95 147.691 184.921 147.598C184.889 147.49 184.858 147.382 184.82 147.275C184.731 147.024 184.623 146.782 184.515 146.539C184.455 146.404 184.407 146.228 184.28 146.155C184.131 146.068 183.844 146.11 183.681 146.108C183.414 146.106 183.147 146.114 182.88 146.132C182.373 146.166 181.872 146.241 181.377 146.356C181.134 146.412 180.894 146.477 180.656 146.551C180.52 146.593 180.385 146.638 180.251 146.686C180.184 146.71 180.117 146.734 180.051 146.759C179.944 146.817 179.922 146.818 179.987 146.763L180.116 146.526L180.108 146.578V146.294C180.271 147.073 180.537 147.844 180.751 148.61C180.936 149.271 179.967 149.553 179.783 148.894C179.609 148.272 179.435 147.65 179.261 147.027C179.192 146.78 179.075 146.503 179.148 146.242C179.24 145.908 179.559 145.812 179.834 145.709C180.929 145.299 182.094 145.079 183.254 145.043C183.763 145.027 184.396 144.97 184.849 145.264C185.291 145.551 185.476 146.189 185.667 146.67C185.869 147.181 186.094 147.777 185.77 148.29C185.456 148.787 184.868 148.784 184.367 148.777C183.759 148.767 183.154 148.771 182.565 148.948C182.012 149.114 181.495 149.404 181.063 149.808C180.579 150.26 179.866 149.507 180.353 149.052Z" fill="#121212"/>
<path d="M184.884 153.382C185.797 152.625 187.112 152.163 188.174 152.89C189.205 153.596 189.527 155.095 189.053 156.259C188.807 156.862 188.354 157.358 187.817 157.677C187.252 158.012 186.745 157.089 187.31 156.753C188.137 156.262 188.561 155.22 188.058 154.288C187.519 153.288 186.349 153.513 185.594 154.138C185.381 154.316 185.093 154.361 184.884 154.138C184.711 153.954 184.669 153.56 184.884 153.382Z" fill="#121212"/>
<path d="M188.508 160.422C189.511 160.769 189.387 162.033 188.834 162.757C188.151 163.652 186.989 163.912 185.976 164.099C183.828 164.494 181.384 164.308 179.775 162.557C179.322 162.065 180.032 161.308 180.485 161.801C181.582 162.995 183.203 163.301 184.713 163.194C185.527 163.137 186.39 162.995 187.159 162.696C187.486 162.57 187.818 162.39 188.045 162.101C188.099 162.032 188.413 161.513 188.241 161.453C187.629 161.241 187.891 160.208 188.508 160.422Z" fill="#121212"/>
<path d="M180.526 161.126C180.45 161.447 180.38 161.771 180.297 162.091C180.255 162.255 180.19 162.41 180.093 162.544C180.025 162.639 179.96 162.708 179.862 162.773C179.744 162.852 179.622 162.872 179.488 162.889C179.369 162.904 179.214 162.819 179.133 162.733C179.046 162.64 178.98 162.488 178.986 162.354C178.992 162.216 179.034 162.072 179.133 161.976L179.234 161.892C179.313 161.844 179.397 161.82 179.488 161.819L179.505 161.817L179.371 161.836C179.393 161.832 179.413 161.826 179.433 161.818L179.313 161.872C179.337 161.861 179.359 161.847 179.38 161.831L179.278 161.914C179.303 161.893 179.324 161.869 179.344 161.842L179.265 161.95C179.294 161.907 179.317 161.861 179.337 161.813L179.286 161.94C179.348 161.78 179.377 161.604 179.417 161.437L179.558 160.841C179.622 160.57 179.921 160.38 180.175 160.468C180.439 160.559 180.595 160.835 180.526 161.126Z" fill="#121212"/>
<path d="M184.858 137.257C183.192 136.76 181.424 136.864 179.814 137.536C179.562 137.642 179.263 137.421 179.197 137.163C179.118 136.86 179.294 136.611 179.547 136.505C181.313 135.767 183.301 135.682 185.125 136.226C185.746 136.411 185.482 137.444 184.858 137.257Z" fill="#121212"/>
<path d="M171.878 138.394C169.79 138.138 167.595 138.724 165.964 140.167C165.47 140.604 164.756 139.852 165.254 139.411C167.083 137.792 169.516 137.035 171.878 137.324C172.147 137.357 172.38 137.546 172.38 137.859C172.38 138.123 172.149 138.427 171.878 138.394Z" fill="#121212"/>
<path d="M147.802 164.735C153.343 161.416 159.103 158.444 165.036 155.843C165.314 155.721 165.624 155.567 165.709 155.282C165.782 155.04 165.667 154.788 165.555 154.561C165.277 153.996 164.998 153.431 164.719 152.866C164.63 152.686 164.528 152.493 164.343 152.405C164.112 152.296 163.838 152.39 163.6 152.485C160.721 153.635 157.877 154.867 155.073 156.18C152.037 157.602 149.048 159.118 146.06 160.634C145.038 161.152 144.017 161.67 142.995 162.188C141.969 162.709 140.943 163.229 139.92 163.754C138.426 164.521 136.938 165.299 135.455 166.086C134.891 166.387 134.305 166.707 133.949 167.228C133.324 168.142 133.587 169.354 133.872 170.415C133.938 170.657 134.026 170.929 134.258 171.037C134.477 171.14 134.736 171.056 134.961 170.967C136.593 170.323 138.127 169.468 139.656 168.615C142.026 167.293 144.396 165.97 146.766 164.648" fill="#121212"/>
<path d="M147.548 164.273C151.627 161.833 155.807 159.585 160.074 157.541C161.145 157.027 162.221 156.527 163.303 156.039C163.808 155.811 164.317 155.593 164.821 155.363C164.913 155.321 165.01 155.282 165.095 155.225C165.252 155.118 165.228 155.163 165.188 154.97C165.128 154.679 164.871 154.322 164.742 154.061C164.615 153.804 164.489 153.547 164.361 153.29C164.237 153.041 164.209 152.848 163.917 152.934C163.333 153.107 162.76 153.392 162.194 153.625C161.069 154.088 159.949 154.564 158.833 155.053C154.37 157.009 150.013 159.219 145.656 161.429C143.529 162.508 141.398 163.582 139.278 164.678C138.184 165.243 137.093 165.814 136.005 166.391C135.13 166.855 134.118 167.301 134.07 168.493C134.047 169.073 134.187 169.654 134.339 170.206C134.359 170.281 134.369 170.394 134.412 170.458C134.524 170.621 134.654 170.514 134.827 170.451C135.134 170.34 135.435 170.203 135.734 170.069C136.892 169.547 138.01 168.929 139.124 168.308C141.588 166.936 144.05 165.56 146.513 164.186C147.085 163.867 147.593 164.79 147.02 165.11C144.603 166.458 142.187 167.807 139.77 169.154C138.656 169.775 137.54 170.394 136.385 170.926C135.451 171.358 133.966 172.232 133.453 170.768C133.114 169.802 132.885 168.561 133.222 167.566C133.615 166.405 134.681 165.9 135.647 165.389C138.048 164.117 140.466 162.881 142.887 161.652C147.68 159.222 152.458 156.752 157.352 154.559C158.565 154.016 159.783 153.487 161.007 152.975C161.62 152.718 162.234 152.466 162.85 152.217C163.352 152.014 163.931 151.683 164.477 151.889C165.006 152.089 165.217 152.727 165.457 153.212C165.726 153.759 166.208 154.427 166.227 155.062C166.244 155.595 165.928 155.976 165.5 156.205C164.91 156.522 164.27 156.754 163.662 157.029C158.324 159.444 153.112 162.172 148.055 165.197C147.491 165.534 146.984 164.611 147.548 164.273Z" fill="#121212"/>
<path d="M161.485 132.686C165.717 131.033 168.996 127.245 169.95 122.907C170.337 121.148 170.288 119.118 169.035 117.795C168.375 117.098 167.45 116.683 166.505 116.451C163.541 115.727 160.342 116.716 157.879 118.476C155.416 120.236 153.581 122.694 151.938 125.2C151.849 123.181 149.026 122.212 147.143 123.066C145.26 123.921 144.176 125.834 143.217 127.627C143.776 126.131 142.623 124.352 141.039 123.953C139.455 123.555 137.713 124.371 136.79 125.685C135.866 126.999 135.676 128.705 135.972 130.27C135.035 129.463 134.338 128.428 133.458 127.563C132.578 126.698 131.408 125.978 130.161 126.079C128.914 126.18 127.752 127.421 128.151 128.574C125.873 123.534 119.65 121.29 113.991 121.208C112.775 121.19 111.513 121.258 110.432 121.802C109.352 122.345 108.502 123.479 108.66 124.652C105.533 121.71 100.287 121.948 96.5199 124.065C93.9029 125.536 91.6888 127.936 91.1559 130.83C90.623 133.724 92.149 137.039 94.9925 138.035C91.952 138.819 89.8284 141.859 89.7805 144.919C89.7324 147.979 91.5317 150.905 94.0843 152.693C96.6369 154.481 99.8532 155.218 102.999 155.208C102.973 156.945 104.553 158.391 106.274 158.856C107.996 159.322 109.825 159.036 111.587 158.747C114.784 158.223 117.981 157.699 121.178 157.175C120.441 159.136 121.353 161.552 123.22 162.583C125.526 163.857 128.408 162.991 130.898 162.102C130.225 163.844 132.199 165.523 134.067 165.928C138.446 166.878 142.914 164.329 145.833 161.014C149.313 157.061 151.295 151.922 151.525 146.723C151.639 144.152 151.288 141.434 149.732 139.352C151.823 140.115 154.146 140.266 156.322 139.779C158.211 139.356 160.147 138.273 160.69 136.463C161.233 134.654 159.485 132.357 157.641 132.936" fill="#121212"/>
<path d="M161.325 132.065C163.438 131.228 165.333 129.821 166.808 128.005C168.196 126.295 169.308 124.064 169.523 121.787C169.63 120.655 169.523 119.414 168.824 118.5C168.057 117.497 166.759 117.086 165.599 116.927C163.087 116.583 160.517 117.435 158.413 118.871C155.962 120.544 154.11 123.013 152.459 125.525C152.111 126.054 151.377 125.854 151.334 125.2C151.225 123.559 148.946 123.189 147.784 123.513C145.821 124.061 144.671 126.212 143.739 127.952C143.409 128.567 142.394 128.156 142.635 127.456C142.939 126.572 142.562 125.689 141.904 125.111C141.142 124.443 140.105 124.366 139.188 124.663C136.982 125.377 136.15 127.845 136.554 130.099C136.671 130.75 136.016 131.14 135.545 130.725C134.234 129.571 133.321 127.903 131.765 127.078C131.11 126.73 130.286 126.554 129.597 126.891C129.055 127.156 128.53 127.731 128.733 128.403C128.94 129.088 127.933 129.559 127.63 128.899C126.431 126.29 124.167 124.501 121.682 123.428C118.974 122.259 115.954 121.734 113.037 121.862C111.558 121.927 109.044 122.551 109.264 124.652C109.328 125.256 108.585 125.432 108.233 125.107C105.413 122.497 101.053 122.692 97.783 124.137C94.616 125.537 91.0402 128.929 91.7317 132.981C92.0725 134.978 93.3207 136.749 95.153 137.415C95.692 137.611 95.7611 138.492 95.153 138.655C92.1836 139.453 90.0608 142.576 90.4256 145.845C90.8296 149.466 93.7217 152.2 96.7682 153.433C98.7575 154.238 100.878 154.563 102.999 154.564C103.327 154.564 103.6 154.859 103.602 155.208C103.611 156.532 104.688 157.519 105.756 157.998C107.23 158.66 108.944 158.5 110.489 158.275C114.005 157.762 117.51 157.129 121.018 156.554C121.42 156.488 121.943 156.836 121.76 157.346C121.07 159.271 122.074 161.403 123.828 162.18C126.035 163.156 128.602 162.242 130.738 161.482C131.152 161.334 131.641 161.819 131.48 162.273C131.091 163.373 131.997 164.252 132.825 164.751C133.89 165.394 135.164 165.529 136.368 165.476C138.926 165.364 141.364 164.15 143.377 162.52C147.456 159.216 150.093 153.894 150.77 148.528C151.138 145.612 151.082 142.232 149.305 139.807C148.973 139.353 149.257 138.504 149.893 138.732C152.626 139.709 156.139 139.837 158.654 138.121C159.559 137.504 160.432 136.431 160.112 135.211C159.838 134.162 158.858 133.256 157.801 133.557C157.049 133.77 156.729 132.529 157.48 132.316C159.806 131.655 162.062 134.427 161.214 136.809C160.244 139.535 157.135 140.48 154.668 140.668C152.951 140.799 151.203 140.556 149.572 139.972L150.159 138.897C151.96 141.356 152.318 144.496 152.079 147.524C151.836 150.599 151.017 153.598 149.681 156.336C147.111 161.599 142.263 166.461 136.436 166.759C134.897 166.838 133.257 166.595 131.943 165.686C130.782 164.882 129.772 163.466 130.316 161.931L131.059 162.722C128.509 163.63 125.535 164.538 122.977 163.171C120.923 162.074 119.76 159.335 120.596 157.004L121.339 157.795C118.279 158.296 115.22 158.798 112.161 159.299C109.563 159.725 106.537 160.305 104.232 158.558C103.19 157.768 102.404 156.612 102.395 155.208L102.999 155.851C98.9921 155.85 94.6897 154.704 91.8328 151.534C89.3219 148.748 88.2798 144.596 90.2087 141.129C91.2258 139.301 92.8942 137.935 94.832 137.415V138.655C92.9068 137.956 91.4593 136.331 90.8038 134.29C90.1348 132.207 90.4758 129.969 91.5085 128.091C93.7093 124.089 98.3288 121.823 102.584 121.816C104.941 121.812 107.288 122.532 109.087 124.197L108.057 124.652C107.849 122.674 109.603 121.256 111.217 120.828C112.891 120.384 114.739 120.522 116.438 120.734C119.581 121.125 122.801 122.114 125.371 124.148C126.748 125.237 127.915 126.6 128.673 128.249L127.569 128.745C127.277 127.78 127.698 126.799 128.41 126.182C129.243 125.46 130.307 125.288 131.338 125.551C133.586 126.123 134.731 128.348 136.399 129.815L135.39 130.441C135.112 128.889 135.218 127.25 135.964 125.854C136.631 124.608 137.803 123.685 139.112 123.351C140.417 123.02 141.784 123.288 142.802 124.241C143.727 125.107 144.237 126.527 143.8 127.798L142.696 127.302C143.848 125.151 145.363 122.607 147.866 122.185C149.8 121.858 152.382 122.806 152.541 125.2L151.416 124.875C153.059 122.376 154.866 119.972 157.215 118.185C159.477 116.465 162.322 115.388 165.124 115.592C166.494 115.692 167.934 116.053 169.041 116.958C170.103 117.825 170.635 119.118 170.747 120.516C170.952 123.095 169.844 125.819 168.445 127.862C166.735 130.359 164.361 132.23 161.646 133.306C160.916 133.595 160.601 132.352 161.325 132.065Z" fill="#121212"/>
<path d="M183.775 129.189C184.665 127.937 184.702 126.165 183.866 124.879C183.03 123.592 181.369 122.864 179.825 123.109C180.325 122.108 179.724 120.874 178.837 120.172C177.327 118.978 175.135 118.874 173.29 119.475C171.445 120.075 169.879 121.282 168.42 122.533C168.126 122.785 167.819 123.065 167.738 123.437C167.633 123.917 167.951 124.408 168.376 124.672C168.8 124.936 169.312 125.024 169.808 125.11C174.53 125.933 179.183 127.126 183.708 128.675C183.499 128.794 183.188 128.65 183.151 128.418" fill="#121212"/>
<path d="M183.254 128.865C184.018 127.744 184.098 126.193 183.258 125.081C182.442 123.999 181.084 123.574 179.825 123.752C179.328 123.822 179.13 123.166 179.303 122.784C179.664 121.989 179.006 121.09 178.428 120.648C177.743 120.123 176.893 119.851 176.057 119.782C174.115 119.619 172.307 120.41 170.708 121.524C170.302 121.807 169.908 122.109 169.522 122.422C169.166 122.711 168.717 123.006 168.438 123.382C167.846 124.179 169.749 124.451 170.129 124.518C172.326 124.906 174.51 125.372 176.676 125.919C179.098 126.531 181.497 127.245 183.868 128.055C184.454 128.254 184.428 129.085 183.868 129.295C183.305 129.507 182.76 129.16 182.568 128.589C182.306 127.808 183.473 127.471 183.733 128.247C183.694 128.153 183.632 128.089 183.547 128.055V129.295C181.021 128.433 178.464 127.679 175.88 127.041C174.611 126.728 173.336 126.442 172.056 126.183C171.468 126.065 170.88 125.952 170.291 125.845C169.676 125.734 169.038 125.669 168.455 125.42C167.472 124.999 166.714 123.854 167.364 122.769C167.654 122.286 168.143 121.946 168.56 121.6C169.021 121.218 169.49 120.845 169.977 120.499C171.843 119.173 174.043 118.247 176.321 118.522C177.496 118.665 178.684 119.101 179.559 119.98C180.45 120.876 180.901 122.212 180.346 123.433L179.825 122.465C181.48 122.232 183.257 122.957 184.271 124.386C185.327 125.874 185.322 128.011 184.296 129.514C183.844 130.177 182.795 129.536 183.254 128.865Z" fill="#121212"/>
</svg>
