<svg width="350" height="301" viewBox="0 0 350 301" fill="none" xmlns="http://www.w3.org/2000/svg">
<path d="M275.324 120.24C275.882 120.836 276.634 121.23 277.53 121.288L277.037 120.55C276.69 121.146 276.479 121.778 276.443 122.445C276.407 123.12 276.59 123.786 276.725 124.447C277.017 125.878 277.096 127.336 277.001 128.786C276.96 129.416 278.102 129.414 278.143 128.786C278.231 127.441 278.158 126.1 277.934 124.767C277.718 123.478 277.304 122.28 278.023 121.045C278.225 120.699 277.975 120.335 277.53 120.307C276.939 120.269 276.487 119.926 276.132 119.547C275.671 119.055 274.868 119.752 275.324 120.24Z" fill="black"/>
<path d="M260.724 129.781C261.841 129.613 262.184 128.432 262.289 127.616C262.425 126.562 262.157 125.501 261.756 124.509C260.93 122.468 259.785 120.534 259.448 118.366C259.295 117.378 259.219 116.234 259.738 115.314C260.209 114.478 261.062 113.747 261.914 113.19C263.662 112.049 265.766 111.753 267.842 112.369C270.3 113.099 272.028 114.866 273.255 116.761C273.613 117.313 274.599 116.819 274.242 116.267C273.101 114.504 271.561 112.865 269.452 111.91C267.423 110.992 265.048 110.754 262.914 111.552C261.877 111.94 260.951 112.532 260.158 113.222C259.368 113.909 258.657 114.71 258.387 115.664C257.786 117.787 258.596 120.151 259.457 122.135C259.974 123.325 260.637 124.483 260.986 125.722C261.147 126.296 261.229 126.891 261.163 127.482C261.118 127.886 261.004 128.748 260.42 128.835C259.697 128.944 260.004 129.889 260.724 129.781Z" fill="black"/>
<path d="M203.996 86.1173C204.225 105.796 204.985 125.465 205.604 145.136C205.923 155.244 206.206 165.354 206.36 175.465C206.4 178.095 206.682 180.716 206.797 183.343C206.912 185.968 206.697 188.568 206.597 191.19C206.594 191.28 206.587 191.378 206.52 191.444C206.476 191.488 206.411 191.51 206.349 191.53C205.15 191.912 203.842 192.003 202.593 191.79C202.328 191.745 202.031 191.662 201.916 191.439C201.872 191.353 201.861 191.257 201.85 191.163C201.568 188.602 201.26 186.087 201.227 183.515C201.193 180.894 201.163 178.273 201.135 175.651C201.022 165.164 200.943 154.677 200.814 144.19C200.685 133.705 200.507 123.221 200.196 112.739C199.885 102.261 199.442 91.7868 198.784 81.3227C204.247 78.1284 203.955 82.586 203.996 86.1173Z" fill="black"/>
<path d="M203.425 86.1175C203.593 100.435 204.039 114.749 204.509 129.062C204.976 143.283 205.466 157.504 205.726 171.729C205.758 173.485 205.757 175.243 205.836 176.999C205.918 178.823 206.08 180.644 206.182 182.468C206.279 184.214 206.264 185.956 206.188 187.703C206.15 188.574 206.102 189.446 206.062 190.317C206.053 190.53 206.07 190.761 206.034 190.972L206.025 191.19C205.993 191.079 205.907 191.076 205.77 191.18C205.304 191.218 204.855 191.373 204.377 191.4C203.909 191.427 203.43 191.416 202.965 191.352C202.763 191.324 202.553 191.32 202.421 191.163C202.334 191.06 202.364 190.654 202.35 190.524C202.247 189.605 202.144 188.687 202.055 187.767C201.89 186.059 201.808 184.354 201.786 182.641C201.742 179.101 201.703 175.561 201.668 172.021C201.524 157.758 201.423 143.495 201.159 129.233C200.894 115.015 200.467 100.797 199.668 86.5922C199.569 84.8355 199.465 83.079 199.354 81.3228L199.071 81.7462C200.202 81.0951 202.281 79.9475 202.989 81.5763C203.597 82.9768 203.409 84.6515 203.425 86.1175C203.431 86.7482 204.573 86.7497 204.567 86.1175C204.555 85.0117 204.584 83.8982 204.44 82.7974C204.328 81.9489 204.147 80.9937 203.449 80.3389C202.731 79.6655 201.651 79.6347 200.695 79.9077C199.958 80.1184 199.212 80.4509 198.587 80.8464C198.18 81.1042 198.214 81.3472 198.24 81.7619C198.271 82.2741 198.303 82.7864 198.334 83.2987C198.818 91.3129 199.178 99.3325 199.453 107.354C199.726 115.342 199.914 123.332 200.054 131.323C200.194 139.315 200.285 147.308 200.364 155.301C200.444 163.286 200.511 171.271 200.603 179.256C200.626 181.244 200.605 183.237 200.714 185.223C200.819 187.136 201.036 189.044 201.255 190.95C201.347 191.752 201.704 192.158 202.662 192.298C203.614 192.437 204.584 192.416 205.528 192.244C205.946 192.168 206.457 192.089 206.808 191.867C207.154 191.649 207.159 191.309 207.176 190.972C207.228 189.955 207.274 188.938 207.32 187.921C207.409 185.954 207.417 183.996 207.298 182.03C207.177 180.025 206.997 178.021 206.942 176.013C206.834 172.022 206.8 168.028 206.706 164.036C206.518 156.047 206.272 148.059 206.013 140.072C205.753 132.071 205.48 124.071 205.238 116.07C204.995 108.033 204.783 99.9944 204.649 91.9548C204.617 90.0091 204.589 88.0633 204.567 86.1175C204.559 85.4868 203.417 85.4853 203.425 86.1175Z" fill="black"/>
<path d="M315.543 138.67C316.597 140.75 316.924 143.039 316.851 145.291C316.791 147.11 316.584 149.002 315.952 150.748C315.474 152.065 314.783 153.337 313.883 154.48C313.158 155.399 312.173 156.421 310.887 156.756C309.525 157.111 308.367 156.349 307.562 155.457C306.289 154.05 305.58 152.293 305.196 150.561C304.407 147.005 304.91 143.224 305.963 139.748C306.29 138.667 306.696 137.586 307.433 136.655C308.103 135.81 309.137 134.971 310.321 134.72C311.486 134.473 312.577 135.129 313.356 135.807C314.297 136.626 314.998 137.625 315.543 138.67C315.843 139.245 316.828 138.746 316.529 138.175C315.595 136.385 313.908 134.145 311.481 133.739C309.033 133.329 306.823 135.327 305.859 137.043C304.836 138.866 304.381 140.973 304.049 142.965C303.711 144.987 303.575 147.043 303.807 149.08C304.031 151.05 304.578 153.012 305.687 154.76C306.549 156.12 307.872 157.62 309.799 157.813C311.329 157.967 312.71 157.159 313.708 156.242C314.934 155.115 315.816 153.734 316.499 152.318C317.296 150.668 317.637 148.958 317.847 147.187C318.138 144.732 318.065 142.204 317.24 139.824C317.045 139.261 316.802 138.713 316.529 138.175C316.237 137.597 315.252 138.096 315.543 138.67Z" fill="black"/>
<path d="M278.078 134.621C279.197 134.214 280.283 133.732 281.281 133.135C281.765 132.845 282.236 132.521 282.565 132.1C283.203 131.284 283.223 130.239 283.469 129.279C283.818 127.916 285.264 126.341 286.822 127.627C288.63 129.119 290.218 130.807 291.537 132.639C291.738 132.919 291.937 133.211 291.995 133.536C292.059 133.891 291.947 134.251 291.814 134.592C290.929 136.857 289.025 138.773 286.712 140.102C284.399 141.431 281.695 142.201 278.95 142.589C273.552 143.352 267.849 142.642 263.034 140.414C262.081 139.973 261.155 139.47 260.394 138.81C258.961 137.569 258.212 135.878 257.503 134.24C257.419 134.046 259.362 134.748 259.488 134.792C260.346 135.09 261.233 135.335 262.127 135.54C263.875 135.941 265.674 136.175 267.481 136.241C271.094 136.374 274.746 135.836 278.078 134.621Z" fill="white"/>
<path d="M278.366 135.045C279.411 134.66 280.428 134.219 281.372 133.674C282.266 133.158 283.041 132.573 283.441 131.693C283.804 130.895 283.808 130.031 284.077 129.214C284.262 128.651 284.685 127.873 285.392 127.677C285.731 127.583 286.041 127.703 286.307 127.887C286.747 128.19 287.134 128.578 287.519 128.931C288.271 129.621 288.981 130.345 289.637 131.104C289.948 131.465 290.248 131.832 290.536 132.206C290.827 132.583 291.209 132.996 291.377 133.428C291.547 133.866 291.327 134.328 291.15 134.738C290.977 135.138 290.764 135.524 290.525 135.897C288.532 139.011 284.793 140.881 280.881 141.742C276.718 142.659 272.247 142.614 268.106 141.631C265.844 141.093 263.505 140.297 261.616 139.078C260.66 138.46 259.936 137.657 259.371 136.758C259.094 136.318 258.851 135.861 258.631 135.398C258.52 135.165 258.414 134.931 258.31 134.696C258.226 134.507 258.086 134.294 258.051 134.096L257.993 134.473C257.975 134.504 257.548 134.75 257.495 134.688C257.503 134.698 257.555 134.697 257.568 134.702C257.626 134.729 257.714 134.737 257.778 134.754C257.983 134.809 258.184 134.873 258.385 134.938C258.687 135.036 258.986 135.142 259.286 135.247C260.683 135.736 262.147 136.093 263.628 136.34C266.757 136.862 269.978 136.881 273.115 136.397C274.871 136.126 276.585 135.688 278.23 135.094C278.516 134.991 278.715 134.771 278.629 134.491C278.558 134.26 278.21 134.046 277.926 134.148C272.014 136.283 265.277 136.286 259.342 134.214C258.96 134.081 258.577 133.949 258.186 133.837C257.843 133.74 257.398 133.615 257.102 133.869C256.874 134.066 256.927 134.313 257.028 134.546C257.165 134.86 257.302 135.173 257.447 135.484C257.727 136.086 258.026 136.683 258.385 137.253C259.112 138.409 260.093 139.371 261.354 140.117C262.648 140.883 264.107 141.463 265.57 141.946C271.297 143.835 278.141 143.937 283.853 141.937C286.579 140.982 289.021 139.5 290.748 137.432C291.55 136.47 292.359 135.256 292.552 134.067C292.662 133.388 292.356 132.839 291.947 132.277C291.518 131.687 291.06 131.113 290.576 130.556C289.61 129.442 288.551 128.391 287.394 127.421C286.909 127.014 286.347 126.659 285.638 126.66C285.061 126.661 284.533 126.904 284.121 127.237C283.089 128.072 282.907 129.237 282.667 130.37C282.535 130.994 282.355 131.621 281.839 132.098C281.304 132.593 280.599 132.959 279.922 133.294C279.235 133.635 278.519 133.93 277.79 134.198C277.116 134.446 277.697 135.291 278.366 135.045Z" fill="black"/>
<path d="M280.149 156.637C272.527 157.148 264.77 156.858 257.456 156.379C251.823 156.009 246.21 155.423 240.638 154.624C237.46 154.169 234.231 154.143 231.033 153.848C228.823 153.644 224.551 153.446 223.09 151.75C222.905 151.535 222.756 151.28 222.775 151.014C222.833 150.22 223.646 149.641 223.7 148.75C223.735 148.186 223.597 147.638 223.461 147.093C223.02 145.314 222.292 143.554 221.713 141.805C220.457 138.009 219.201 134.214 217.945 130.418C217.556 129.243 217.166 128.064 216.95 126.856C216.89 126.518 216.845 126.165 216.964 125.838C217.779 123.6 224.724 124.984 226.356 125.567C230.611 127.089 232.591 131.174 235.333 134.355C235.862 134.97 236.465 135.581 237.284 135.881C238.075 136.17 238.968 136.134 239.825 136.082C243.176 135.88 246.513 135.517 249.817 134.997C252.099 134.637 254.526 134.475 256.852 134.345C257.158 134.328 257.475 134.314 257.761 134.41C258.062 134.51 258.293 134.719 258.53 134.909C259.46 135.654 260.612 136.164 261.78 136.597C269.323 139.393 278.274 139.233 285.675 136.171C287.132 135.569 288.56 134.838 289.584 133.764C289.961 133.37 290.298 132.919 290.823 132.679C291.71 132.275 293.263 133.213 294.107 133.51C295.48 133.992 296.848 134.486 298.188 135.032C300.825 136.106 303.398 137.387 305.502 139.144C307.187 140.551 308.715 142.278 308.924 144.288C309.124 146.207 308.057 148.106 306.489 149.483C304.921 150.861 302.894 151.783 300.837 152.552C294.383 154.964 287.326 156.155 280.149 156.637Z" fill="white"/>
<path d="M280.15 156.147C271.557 156.716 262.882 156.345 254.313 155.659C249.965 155.312 245.632 154.834 241.323 154.227C237.46 153.683 233.542 153.588 229.653 153.238C228.251 153.112 226.829 152.948 225.496 152.541C224.922 152.365 224.337 152.13 223.884 151.773C223.641 151.581 223.339 151.318 223.347 151.014C223.354 150.718 223.579 150.419 223.732 150.166C224.165 149.451 224.347 148.799 224.228 147.99C224.098 147.093 223.823 146.206 223.54 145.337C222.959 143.553 222.301 141.787 221.711 140.004C220.502 136.35 219.231 132.707 218.09 129.037C217.823 128.179 217.473 127.236 217.463 126.343C217.458 125.924 217.632 125.671 218.016 125.473C218.868 125.035 220.043 125.069 221.001 125.114C222.163 125.17 223.316 125.342 224.445 125.579C225.428 125.785 226.351 126.044 227.224 126.492C229.947 127.889 231.591 130.39 233.262 132.613C234.138 133.778 235.03 135.164 236.361 135.989C237.138 136.471 238.072 136.619 239.016 136.607C240.063 136.594 241.115 136.492 242.157 136.406C246.421 136.053 250.607 135.247 254.877 134.956C255.364 134.923 255.852 134.893 256.34 134.865C256.801 134.838 257.37 134.722 257.768 134.977C258.104 135.193 258.39 135.465 258.725 135.686C259.124 135.95 259.545 136.185 259.986 136.395C261.62 137.173 263.432 137.73 265.228 138.157C268.855 139.02 272.686 139.278 276.426 138.922C280.108 138.572 283.8 137.672 287.045 136.116C287.836 135.737 288.595 135.296 289.262 134.769C289.59 134.51 289.884 134.226 290.161 133.926C290.405 133.66 290.651 133.342 290.993 133.162C291.532 132.878 292.34 133.302 292.827 133.513C293.575 133.837 294.334 134.113 295.107 134.392C298.72 135.692 302.382 137.191 305.204 139.579C306.465 140.646 307.647 141.893 308.145 143.378C308.649 144.883 308.258 146.436 307.33 147.759C305.34 150.596 301.341 151.956 297.884 153.04C294.076 154.233 290.113 155.039 286.109 155.566C284.132 155.826 282.143 156.011 280.15 156.147C279.422 156.196 279.416 157.177 280.15 157.127C284.383 156.84 288.604 156.318 292.724 155.423C294.734 154.987 296.719 154.462 298.659 153.835C300.51 153.237 302.368 152.579 304.068 151.704C307.262 150.06 310.066 147.185 309.421 143.784C309.128 142.242 308.109 140.876 306.929 139.718C305.659 138.473 304.149 137.418 302.535 136.519C300.816 135.562 298.972 134.779 297.101 134.068C296.149 133.707 295.171 133.392 294.224 133.022C293.519 132.746 292.859 132.381 292.109 132.195C291.328 132.001 290.647 132.104 290.032 132.567C289.365 133.07 288.912 133.746 288.229 134.247C286.784 135.308 284.924 135.999 283.158 136.563C279.522 137.723 275.628 138.226 271.755 138.067C267.946 137.911 263.919 137.146 260.562 135.548C260.145 135.349 259.735 135.13 259.36 134.876C258.994 134.629 258.686 134.312 258.292 134.096C257.455 133.637 256.238 133.887 255.309 133.947C253.173 134.085 251.066 134.316 248.957 134.633C246.762 134.964 244.553 135.223 242.336 135.41C241.236 135.503 240.122 135.613 239.016 135.626C237.984 135.638 237.165 135.402 236.448 134.752C235.285 133.7 234.429 132.357 233.519 131.143C232.63 129.957 231.719 128.774 230.63 127.715C229.582 126.697 228.335 125.796 226.885 125.234C225.993 124.887 225.037 124.677 224.081 124.503C222.846 124.277 221.573 124.116 220.307 124.117C219.279 124.117 218.099 124.204 217.24 124.741C215.827 125.624 216.405 127.25 216.747 128.483C217.273 130.377 217.955 132.244 218.575 134.117C219.811 137.851 221.092 141.573 222.341 145.303C222.65 146.225 222.986 147.184 223.107 148.141C223.157 148.532 223.149 148.908 222.974 149.275C222.83 149.578 222.621 149.855 222.467 150.154C222.079 150.912 222.173 151.59 222.806 152.226C223.237 152.659 223.824 152.982 224.424 153.218C225.784 153.754 227.273 153.971 228.748 154.13C230.393 154.308 232.05 154.434 233.704 154.537C235.939 154.676 238.183 154.775 240.398 155.085C242.612 155.395 244.831 155.686 247.057 155.939C255.846 156.936 264.78 157.506 273.648 157.383C275.818 157.353 277.986 157.271 280.15 157.127C280.878 157.079 280.884 156.098 280.15 156.147Z" fill="black"/>
<path d="M275.461 172.905C271.992 164.073 269.697 154.424 267.366 145.321C264.884 145.613 261.275 146.628 259.308 146.851C259.13 148.48 259.648 150.01 260.075 151.577C262.116 159.074 263.041 166.77 265.057 174.272C265.294 175.155 265.559 176.058 266.17 176.797C268.007 179.019 271.867 178.773 274.991 178.289" fill="white"/>
<path d="M276.012 172.774C273.257 165.746 271.317 158.507 269.465 151.272C268.947 149.245 268.436 147.217 267.917 145.191C267.845 144.909 267.507 144.813 267.214 144.848C264.485 145.178 261.884 146.057 259.156 146.378C258.897 146.408 258.756 146.655 258.737 146.851C258.602 148.24 258.938 149.605 259.313 150.949C259.695 152.315 260.047 153.687 260.368 155.064C261.019 157.86 261.562 160.674 262.109 163.486C262.655 166.298 263.206 169.11 263.874 171.903C264.19 173.23 264.438 174.631 264.999 175.901C265.447 176.915 266.197 177.777 267.3 178.324C269.632 179.479 272.618 179.149 275.143 178.762C275.865 178.651 275.559 177.706 274.839 177.816C272.75 178.137 270.276 178.441 268.273 177.653C267.22 177.239 266.473 176.512 266.075 175.58C265.556 174.368 265.312 173.047 265.009 171.786C263.729 166.462 262.88 161.072 261.682 155.736C261.345 154.231 260.981 152.73 260.568 151.239C260.168 149.791 259.734 148.352 259.879 146.85L259.46 147.323C262.187 147.003 264.789 146.124 267.518 145.794L266.816 145.451C268.669 152.691 270.422 159.958 272.776 167.094C273.434 169.088 274.14 171.071 274.91 173.035C275.143 173.63 276.247 173.375 276.012 172.774Z" fill="black"/>
<path d="M272.586 144.508C269.859 144.732 267.163 145.23 264.57 145.99C264.366 146.05 264.142 146.126 264.049 146.294C263.976 146.426 264.005 146.582 264.036 146.727C265.838 155.139 266.865 163.728 268.917 172.163C269.263 173.586 269.636 175.043 270.557 176.263C271.477 177.483 273.074 178.434 274.761 178.31C276.889 178.154 278.354 176.456 279.452 174.883C285.399 166.358 289.209 156.741 290.548 146.87C290.586 146.59 290.618 146.29 290.465 146.04C290.274 145.728 289.852 145.583 289.462 145.471C286.555 144.636 283.49 144.206 280.425 144.203" fill="white"/>
<path d="M272.587 144.017C270.791 144.168 269.008 144.423 267.256 144.799C266.353 144.993 265.457 145.216 264.575 145.472C263.842 145.685 263.341 146.02 263.465 146.747C263.735 148.323 264.11 149.888 264.403 151.461C264.7 153.05 264.98 154.642 265.257 156.233C265.81 159.424 266.348 162.616 266.964 165.799C267.278 167.415 267.611 169.029 267.978 170.638C268.307 172.085 268.587 173.579 269.188 174.965C269.735 176.226 270.586 177.371 271.915 178.121C273.143 178.815 274.681 179.021 276.057 178.538C277.398 178.068 278.389 177.121 279.203 176.123C280.135 174.979 280.915 173.731 281.688 172.506C284.962 167.314 287.481 161.765 289.164 156.041C290.006 153.177 290.633 150.268 291.055 147.337C291.15 146.675 291.288 145.953 290.642 145.454C290.068 145.01 289.159 144.863 288.438 144.685C286.705 144.258 284.926 143.975 283.131 143.826C282.232 143.752 281.329 143.716 280.426 143.713C279.691 143.71 279.69 144.691 280.426 144.693C282.128 144.699 283.825 144.827 285.499 145.095C286.306 145.225 287.107 145.384 287.898 145.573C288.293 145.668 288.686 145.769 289.077 145.878C289.346 145.953 289.787 146.028 289.947 146.253C290.111 146.482 289.976 146.887 289.941 147.137C289.891 147.494 289.838 147.85 289.781 148.205C289.674 148.87 289.556 149.534 289.426 150.196C289.159 151.565 288.845 152.926 288.484 154.279C287.056 159.626 284.905 164.83 282.069 169.746C281.363 170.969 280.616 172.175 279.828 173.361C279.118 174.429 278.417 175.544 277.45 176.461C276.603 177.264 275.489 177.927 274.168 177.819C272.793 177.707 271.622 176.832 270.933 175.852C270.142 174.73 269.81 173.428 269.499 172.158C269.143 170.704 268.818 169.243 268.515 167.78C267.901 164.819 267.374 161.845 266.859 158.871C266.345 155.904 265.842 152.935 265.273 149.975C265.129 149.231 264.982 148.487 264.829 147.745C264.76 147.41 264.686 147.075 264.619 146.74C264.624 146.766 264.56 146.531 264.576 146.506C264.565 146.523 264.494 146.579 264.62 146.495C264.757 146.403 265.027 146.375 265.191 146.329C266.806 145.878 268.459 145.527 270.133 145.28C270.947 145.159 271.765 145.067 272.587 144.998C273.312 144.937 273.32 143.956 272.587 144.017Z" fill="black"/>
<path d="M261.319 155.162C262.619 154.923 263.92 154.683 265.22 154.444C265.522 154.388 265.698 154.086 265.619 153.841C265.534 153.573 265.219 153.443 264.917 153.498C263.616 153.738 262.316 153.977 261.015 154.216C260.713 154.272 260.538 154.575 260.616 154.82C260.702 155.088 261.016 155.218 261.319 155.162Z" fill="black"/>
<path d="M263.972 166.822C264.859 166.822 265.746 166.822 266.633 166.822C266.932 166.822 267.218 166.596 267.204 166.331C267.19 166.066 266.953 165.841 266.633 165.841C265.746 165.841 264.859 165.841 263.972 165.841C263.673 165.841 263.387 166.066 263.401 166.331C263.415 166.597 263.652 166.822 263.972 166.822Z" fill="black"/>
<path d="M309.362 144.644C309.474 144.627 309.284 144.644 309.397 144.641C309.451 144.64 309.505 144.638 309.56 144.64C309.583 144.641 309.716 144.656 309.645 144.645C309.572 144.633 309.649 144.647 309.661 144.649C309.698 144.657 309.736 144.663 309.773 144.672C309.818 144.682 309.863 144.694 309.906 144.708C309.928 144.715 309.95 144.722 309.972 144.729C309.951 144.722 309.87 144.686 309.963 144.729C310.053 144.77 310.141 144.812 310.225 144.862C310.24 144.87 310.317 144.924 310.262 144.884C310.21 144.847 310.27 144.892 310.277 144.897C310.312 144.924 310.347 144.951 310.381 144.979C310.42 145.013 310.457 145.047 310.493 145.083C310.508 145.099 310.523 145.114 310.538 145.13C310.506 145.096 310.502 145.086 310.533 145.128C310.589 145.201 310.634 145.278 310.686 145.353C310.719 145.4 310.679 145.334 310.676 145.327C310.685 145.346 310.693 145.364 310.701 145.383C310.722 145.433 310.74 145.484 310.754 145.536C310.76 145.554 310.786 145.669 310.774 145.607C310.762 145.545 310.774 145.61 310.775 145.621C310.776 145.648 310.779 145.674 310.78 145.701C310.781 145.741 310.778 145.781 310.776 145.821C310.776 145.832 310.767 145.901 310.776 145.835C310.786 145.768 310.772 145.849 310.769 145.862C310.748 145.939 310.721 146.011 310.69 146.086C310.723 146.008 310.705 146.053 310.678 146.099C310.652 146.141 310.623 146.182 310.593 146.222C310.561 146.263 310.521 146.301 310.584 146.239C310.552 146.27 310.521 146.303 310.487 146.334C310.458 146.36 310.428 146.385 310.398 146.41C310.382 146.422 310.367 146.435 310.351 146.447C310.338 146.456 310.243 146.52 310.31 146.477C310.37 146.439 310.265 146.503 310.247 146.513C310.212 146.533 310.176 146.552 310.139 146.57C310.096 146.591 310.051 146.61 310.008 146.63C309.996 146.635 309.931 146.664 309.998 146.635C310.067 146.605 309.984 146.64 309.969 146.644C309.869 146.675 309.768 146.701 309.664 146.719C309.644 146.723 309.622 146.724 309.602 146.729C309.533 146.744 309.717 146.724 309.608 146.727C309.559 146.729 309.511 146.733 309.462 146.733C309.407 146.733 309.351 146.726 309.295 146.727C309.227 146.728 309.347 146.733 309.344 146.733C309.324 146.738 309.282 146.724 309.262 146.72C309.207 146.71 309.153 146.698 309.1 146.683C309.081 146.678 309.06 146.668 309.041 146.665C308.969 146.653 309.159 146.712 309.041 146.664C308.771 146.555 308.412 146.592 308.259 146.84C308.125 147.058 308.176 147.394 308.464 147.511C309.472 147.92 310.723 147.655 311.417 146.904C311.797 146.493 311.979 146.001 311.897 145.477C311.818 144.977 311.501 144.5 311.048 144.177C310.478 143.772 309.792 143.589 309.058 143.699C308.763 143.743 308.571 144.067 308.659 144.302C308.762 144.575 309.046 144.691 309.362 144.644Z" fill="black"/>
<path d="M312.735 138.774C312.985 138.992 313.11 139.126 313.287 139.367C313.371 139.481 313.449 139.599 313.52 139.719C313.555 139.779 313.589 139.841 313.621 139.902C313.661 139.979 313.596 139.847 313.633 139.925C313.651 139.964 313.669 140.003 313.686 140.043C313.795 140.297 313.873 140.559 313.927 140.826C313.933 140.852 313.941 140.9 313.932 140.846C313.937 140.879 313.942 140.913 313.946 140.946C313.955 141.022 313.961 141.097 313.965 141.173C313.973 141.317 313.97 141.46 313.961 141.604C313.944 141.86 314.236 142.105 314.532 142.094C314.856 142.082 315.085 141.879 315.103 141.604C315.188 140.306 314.601 139.006 313.543 138.08C313.327 137.891 312.952 137.894 312.735 138.08C312.515 138.269 312.519 138.584 312.735 138.774Z" fill="black"/>
<path d="M315.046 145.261C315.781 145.261 315.782 144.28 315.046 144.28C314.311 144.28 314.31 145.261 315.046 145.261Z" fill="black"/>
<path d="M279.943 129.311C279.867 130.654 278.956 131.866 277.151 132.148C275.839 132.352 274.524 131.92 273.222 131.675C271.941 131.435 270.614 131.376 269.311 131.5C268.396 131.588 267.479 131.77 266.678 132.16C265.245 132.857 263.962 134.71 262.309 134.952C260.323 135.242 258.322 133.734 256.394 133.504C253.995 133.218 251.811 132.133 249.352 132.063C247.504 132.01 245.492 132.636 244.611 134.033C242.418 132.209 240.734 129.885 239.15 127.656C238.971 127.405 238.79 127.111 238.894 126.83C238.972 126.62 239.191 126.476 239.403 126.352C241.642 125.043 244.378 124.409 247.086 124.429C249.795 124.448 252.474 125.103 254.874 126.182C256.283 126.816 257.612 127.598 259.108 128.063C262.271 129.046 264.182 127.382 267.115 126.796C268.627 126.494 270.257 126.649 271.654 127.229C272.399 127.537 273.075 127.96 273.824 128.26C275.537 128.944 277.62 128.179 277.746 126.394C278.661 126.435 279.413 127.101 279.703 127.848C279.89 128.328 279.97 128.828 279.943 129.311Z" fill="#FF6B81"/>
<path d="M237.527 128.433C237.806 128.187 238.104 127.958 238.42 127.748L238.304 127.825C238.53 127.675 238.764 127.535 239.007 127.406C239.26 127.27 239.382 126.962 239.211 126.735C239.048 126.517 238.701 126.414 238.43 126.559C237.809 126.892 237.23 127.289 236.719 127.739C236.51 127.923 236.49 128.252 236.719 128.433C236.945 128.61 237.304 128.629 237.527 128.433Z" fill="black"/>
<path d="M238.493 129.462C238.804 129.194 239.116 128.927 239.428 128.659C239.531 128.57 239.595 128.438 239.595 128.312C239.595 128.192 239.533 128.048 239.428 127.966C239.319 127.88 239.176 127.816 239.024 127.822C238.872 127.828 238.729 127.872 238.62 127.966C238.308 128.233 237.997 128.501 237.685 128.769C237.581 128.857 237.518 128.99 237.518 129.115C237.518 129.236 237.58 129.379 237.685 129.462C237.794 129.548 237.937 129.611 238.089 129.606C238.24 129.6 238.383 129.556 238.493 129.462Z" fill="black"/>
<path d="M239.76 130.907C239.797 130.858 239.835 130.81 239.876 130.763L239.787 130.862C239.9 130.737 240.031 130.625 240.177 130.527L240.061 130.604C240.188 130.52 240.325 130.448 240.47 130.389C240.593 130.34 240.698 130.204 240.733 130.096C240.771 129.979 240.754 129.823 240.675 129.719C240.597 129.614 240.48 129.522 240.334 129.493L240.182 129.476C240.079 129.476 239.983 129.498 239.894 129.543C239.663 129.635 239.453 129.765 239.262 129.909C239.072 130.053 238.909 130.228 238.774 130.412C238.697 130.518 238.678 130.671 238.716 130.79C238.753 130.903 238.855 131.027 238.979 131.083C239.111 131.143 239.272 131.173 239.419 131.132C239.563 131.092 239.679 131.018 239.76 130.907Z" fill="black"/>
<path d="M241.028 132.417C241.288 132.261 241.548 132.105 241.808 131.949C241.874 131.918 241.928 131.876 241.968 131.823C242.018 131.775 242.052 131.72 242.07 131.656C242.094 131.591 242.097 131.525 242.08 131.46C242.077 131.395 242.054 131.334 242.012 131.278C241.934 131.173 241.817 131.081 241.671 131.053C241.528 131.025 241.356 131.027 241.231 131.102C240.971 131.258 240.712 131.414 240.452 131.57C240.385 131.601 240.332 131.643 240.291 131.697C240.241 131.744 240.207 131.8 240.189 131.863C240.165 131.929 240.162 131.994 240.179 132.059C240.183 132.124 240.205 132.185 240.247 132.241C240.325 132.346 240.443 132.438 240.588 132.467C240.731 132.495 240.904 132.492 241.028 132.417Z" fill="black"/>
<path d="M242.708 134.044C242.769 133.95 242.837 133.859 242.914 133.774L242.825 133.873C242.95 133.734 243.095 133.609 243.256 133.501L243.141 133.578C243.189 133.546 243.238 133.516 243.288 133.487C243.412 133.416 243.51 133.32 243.55 133.194C243.574 133.129 243.578 133.064 243.561 132.998C243.557 132.933 243.535 132.872 243.493 132.816C243.414 132.711 243.297 132.619 243.151 132.591C243.007 132.562 242.839 132.567 242.711 132.64C242.305 132.872 241.958 133.18 241.722 133.549C241.65 133.663 241.624 133.801 241.665 133.927C241.701 134.041 241.804 134.164 241.927 134.22C242.06 134.28 242.22 134.31 242.367 134.27C242.507 134.231 242.636 134.157 242.708 134.044Z" fill="black"/>
<path d="M244.033 135.222C244.344 134.932 244.656 134.642 244.968 134.352C245.07 134.257 245.135 134.136 245.135 134.005C245.135 133.885 245.073 133.741 244.968 133.658C244.859 133.573 244.716 133.509 244.564 133.515C244.416 133.52 244.263 133.562 244.16 133.658C243.848 133.948 243.537 134.238 243.225 134.528C243.123 134.623 243.058 134.744 243.058 134.875C243.058 134.995 243.12 135.139 243.225 135.222C243.334 135.307 243.477 135.371 243.629 135.365C243.777 135.36 243.929 135.318 244.033 135.222Z" fill="black"/>
<path d="M219.834 124.964C222.621 132.185 225.408 139.405 228.195 146.626C228.568 147.593 228.942 148.56 229.315 149.528C229.668 150.444 230.079 151.42 229.711 152.379C229.481 152.979 230.584 153.237 230.813 152.639C231.14 151.785 230.989 150.891 230.704 150.045C230.413 149.178 230.053 148.326 229.723 147.47C229.017 145.643 228.312 143.815 227.606 141.987C226.185 138.304 224.763 134.62 223.341 130.937C222.539 128.859 221.737 126.781 220.936 124.703C220.705 124.107 219.602 124.363 219.834 124.964Z" fill="black"/>
<path d="M221.405 138.576C222.635 138.429 223.864 138.282 225.094 138.134C225.391 138.099 225.579 137.76 225.492 137.531C225.387 137.251 225.108 137.151 224.79 137.189C223.561 137.336 222.331 137.483 221.102 137.631C220.805 137.666 220.616 138.005 220.703 138.234C220.808 138.514 221.087 138.614 221.405 138.576Z" fill="black"/>
<path d="M245.518 143.197C246.689 144.412 246.981 146.303 246.465 147.788C246.163 148.659 245.546 149.281 244.643 149.747C244.17 149.991 243.617 150.331 243.053 150.358C242.566 150.381 242.049 150.308 241.576 150.218C239.771 149.873 238.056 148.889 237.444 147.332C236.778 145.636 237.505 143.807 239.084 142.674C241.035 141.275 243.873 141.578 245.518 143.197C246.002 143.673 246.807 142.977 246.326 142.503C244.549 140.755 241.482 140.257 239.139 141.448C236.984 142.545 235.737 144.71 236.128 146.838C236.503 148.878 238.375 150.389 240.599 151.006C241.759 151.328 243.129 151.526 244.257 151.051C245.438 150.554 246.567 149.917 247.178 148.885C248.349 146.906 247.966 144.206 246.326 142.503C245.857 142.017 245.053 142.714 245.518 143.197Z" fill="black"/>
<path d="M243.098 145.126C243.57 145.604 243.653 146.551 243.14 147.034C242.998 147.168 242.811 147.257 242.626 147.344C242.513 147.397 242.393 147.452 242.264 147.451C241.363 147.447 240.473 146.976 240.396 146.139C240.331 145.431 241.005 144.724 241.829 144.671C242.304 144.64 242.79 144.815 243.098 145.126Z" fill="black"/>
<path d="M242.695 145.473C242.592 145.365 242.722 145.511 242.741 145.539C242.755 145.559 242.768 145.579 242.78 145.6C242.784 145.606 242.847 145.709 242.804 145.638C242.762 145.568 242.819 145.672 242.822 145.68C242.831 145.703 242.84 145.726 242.848 145.749C242.872 145.814 242.89 145.88 242.904 145.947C242.913 145.988 242.952 146.044 242.906 145.947C242.914 145.964 242.913 146.006 242.914 146.022C242.919 146.084 242.92 146.147 242.918 146.209C242.917 146.234 242.914 146.259 242.913 146.284C242.907 146.377 242.918 146.278 242.918 146.264C242.918 146.326 242.889 146.401 242.869 146.46C242.859 146.489 242.847 146.517 242.836 146.546C242.801 146.638 242.847 146.532 242.846 146.527C242.85 146.564 242.768 146.648 242.746 146.678C242.717 146.72 242.742 146.723 242.763 146.662C242.754 146.687 242.704 146.717 242.681 146.735C242.662 146.751 242.572 146.808 242.655 146.757C242.612 146.783 242.567 146.808 242.522 146.831C242.462 146.862 242.4 146.891 242.339 146.92C242.328 146.925 242.19 147.008 242.274 146.953C242.248 146.97 242.173 146.959 242.264 146.961C242.199 146.96 242.134 146.958 242.069 146.952C241.948 146.943 242.067 146.941 242.07 146.953C242.069 146.952 241.948 146.934 241.942 146.932C241.879 146.92 241.817 146.906 241.755 146.889C241.716 146.878 241.543 146.81 241.672 146.867C241.546 146.811 241.424 146.757 241.31 146.684C241.431 146.762 241.261 146.64 241.238 146.619C241.199 146.586 241.162 146.55 241.127 146.513C241.222 146.613 241.094 146.459 241.077 146.433C241.063 146.412 241.052 146.39 241.038 146.369C240.978 146.275 241.061 146.445 241.03 146.349C241.01 146.288 240.99 146.228 240.972 146.166C240.964 146.14 240.965 146.075 240.972 146.179C240.97 146.146 240.965 146.113 240.964 146.08C240.962 146.02 240.967 145.962 240.972 145.904C240.962 146.012 240.965 145.943 240.973 145.918C240.988 145.874 240.998 145.829 241.014 145.786C241.025 145.754 241.038 145.724 241.051 145.693C241.044 145.711 241 145.782 241.049 145.703C241.081 145.65 241.113 145.599 241.151 145.549C241.171 145.521 241.193 145.495 241.216 145.468C241.147 145.549 241.196 145.491 241.213 145.476C241.272 145.425 241.333 145.375 241.392 145.325C241.454 145.272 241.283 145.385 241.403 145.318C241.441 145.297 241.478 145.275 241.517 145.256C241.544 145.243 241.571 145.232 241.597 145.219C241.707 145.165 241.515 145.236 241.627 145.208C241.663 145.199 241.699 145.188 241.735 145.179C241.768 145.172 241.931 145.152 241.784 145.164C241.865 145.158 241.945 145.158 242.026 145.16C242.134 145.162 242.045 145.159 242.021 145.156C242.078 145.164 242.134 145.174 242.189 145.188C242.229 145.197 242.267 145.209 242.306 145.22C242.417 145.251 242.242 145.181 242.35 145.238C242.42 145.275 242.492 145.307 242.559 145.349C242.469 145.292 242.554 145.349 242.576 145.366C242.618 145.4 242.657 145.436 242.695 145.473C242.892 145.666 243.303 145.659 243.502 145.473C243.723 145.267 243.713 144.986 243.502 144.779C242.87 144.161 241.772 143.999 240.941 144.409C240.136 144.805 239.704 145.608 239.863 146.388C240.006 147.093 240.664 147.612 241.431 147.829C241.883 147.957 242.381 147.996 242.816 147.812C243.22 147.641 243.607 147.406 243.815 147.053C244.243 146.326 244.099 145.403 243.502 144.779C243.312 144.58 242.889 144.597 242.695 144.779C242.469 144.991 242.491 145.261 242.695 145.473Z" fill="black"/>
<path d="M205.828 135.115C205.951 144.08 206.736 150.739 206.83 159.704C206.876 164.007 207.021 174.199 207.021 178.5C207.021 185.692 206.134 185.119 206.981 185.712C198.432 179.722 187.388 176.415 176.355 176.539C166.184 176.653 155.346 179.113 145.63 181.581C136.713 183.847 129.059 189.324 120.266 192.154C111.787 194.884 101.936 195.779 93.8934 192.206C88.7623 189.927 85.1016 186.892 79.4733 185.58C73.8056 184.258 68.2476 184.152 62.6058 185.712C58.5761 186.826 54.6673 188.349 50.4867 188.922C47.7687 189.294 44.9746 189.254 42.2729 188.802C41.9762 188.752 41.6596 188.688 41.4581 188.494C41.2119 188.257 41.2131 187.905 41.2282 187.588C41.7393 176.852 41.1659 166.222 41.0873 155.487C40.9997 143.513 40.8241 131.538 40.3884 119.568C40.0697 109.653 40.2649 99.615 41.4034 89.8626C50.9553 91.9145 59.544 90.7888 68.7093 87.7581C73.6214 86.1337 78.5673 84.2013 83.8305 84.1332C89.995 84.0535 97.2835 87.0349 103.027 89.0348C111.116 91.8511 118.564 95.756 127.54 96.0625C139.276 96.4633 149.966 90.8718 160.882 87.148C167.798 84.7888 175.194 83.2004 182.661 83.067C190.567 82.9257 196.22 84.8513 203.031 87.8347C203.431 88.0098 203.847 88.1968 204.105 88.5125C204.374 88.8426 204.429 89.2634 204.476 89.6645C206.215 104.513 205.621 120.118 205.828 135.115Z" fill="#FF6B81"/>
<path d="M140.214 115.483C149.809 113.277 158.396 108.74 167.943 106.413C172.533 105.295 177.368 104.657 182.134 105.189C184.057 105.404 185.886 105.896 187.751 106.329C189.457 106.726 191.171 107.099 192.877 107.495C194.92 107.969 196.959 108.466 198.957 109.067C200.588 109.557 202.242 110.102 203.686 110.93C204.299 111.282 204.871 110.433 204.262 110.084C202.965 109.34 201.491 108.824 200.034 108.36C198.264 107.796 196.452 107.33 194.634 106.892C192.856 106.464 191.068 106.069 189.282 105.665C187.568 105.277 185.871 104.793 184.134 104.488C174.395 102.782 164.668 105.984 155.874 109.267C150.645 111.219 145.434 113.267 139.91 114.538C139.201 114.701 139.502 115.647 140.214 115.483Z" fill="black"/>
<path d="M45.3799 115.717C49.9582 116.651 54.7098 116.815 59.3619 116.213C63.9554 115.618 68.1934 114.097 72.4858 112.645C74.8967 111.829 77.3363 111.064 79.8671 110.57C80.5836 110.43 80.2803 109.484 79.5635 109.624C75.1596 110.485 71.0713 112.163 66.8487 113.491C62.5418 114.845 58.09 115.631 53.4904 115.593C50.8591 115.571 48.2434 115.294 45.6836 114.772C44.9689 114.626 44.6639 115.571 45.3799 115.717Z" fill="black"/>
<path d="M155.965 135.034C157.449 134.975 158.709 134.329 159.954 133.693C161.393 132.959 162.948 132.485 164.522 132.007C167.928 130.971 171.425 130.135 175.002 129.673C181.457 128.839 188.157 129.427 194.129 131.755C197.26 132.975 200.137 134.641 202.56 136.74C203.079 137.189 203.886 136.495 203.368 136.046C198.974 132.242 193.137 129.807 187.029 128.831C179.976 127.705 172.81 128.639 166.05 130.527C165.063 130.802 164.084 131.096 163.111 131.405C162.216 131.689 161.295 131.956 160.444 132.33C159.009 132.96 157.642 133.986 155.965 134.053C155.233 134.082 155.228 135.063 155.965 135.034Z" fill="black"/>
<path d="M79.7157 135.268C80.4506 135.268 80.4519 134.287 79.7157 134.287C78.9808 134.287 78.9796 135.268 79.7157 135.268Z" fill="black"/>
<path d="M45.38 140.397C48.4301 141.018 51.5756 141.205 54.6907 140.883C57.8058 140.562 60.8849 139.826 63.7619 138.755C65.2401 138.204 66.8548 137.486 68.5163 137.744C69.2349 137.855 69.5433 136.91 68.8199 136.798C67.3418 136.569 65.9438 136.903 64.5834 137.389C63.1452 137.903 61.7331 138.426 60.2451 138.831C57.2672 139.642 54.1762 140.118 51.0454 140.058C49.235 140.024 47.4448 139.81 45.6837 139.452C44.9689 139.307 44.6638 140.252 45.38 140.397Z" fill="black"/>
<path d="M148.292 160.083C154.879 157.577 161.982 156.055 169.168 155.613C172.678 155.397 176.192 155.451 179.671 155.935C182.957 156.392 186.169 157.174 189.3 158.134C192.962 159.257 196.516 160.617 200.062 161.983C200.727 162.239 201.308 161.394 200.638 161.136C194.305 158.696 187.881 156.243 181.017 155.145C173.889 154.005 166.497 154.495 159.459 155.873C155.426 156.662 151.496 157.798 147.716 159.237C147.045 159.492 147.626 160.337 148.292 160.083Z" fill="black"/>
<path d="M43.2868 170.144C47.2397 170.947 51.2927 170.85 55.2503 170.125C59.0682 169.425 62.7221 168.213 66.3685 167.041C68.487 166.36 70.611 165.689 72.7756 165.123C73.4767 164.939 73.1778 163.992 72.472 164.177C65.1573 166.092 58.1216 169.369 50.3575 169.716C48.0805 169.818 45.8095 169.649 43.5904 169.199C42.8756 169.054 42.5706 169.999 43.2868 170.144Z" fill="black"/>
<path d="M128.63 102.101C129.199 109.549 129.768 116.997 130.337 124.445C140.165 120.717 150.449 117.874 160.965 115.978C155.769 123.077 150.543 130.161 145.288 137.228C153.841 140.35 161.857 144.552 169 149.656C160.063 153.112 149.348 151.433 140.326 154.72C143.129 161.317 144.17 168.988 146.069 175.885C144.911 176.138 143.76 175.525 142.777 174.941C135.669 170.719 128.561 166.496 121.453 162.274C119.686 170.266 116.666 178.053 112.5 185.359C110.064 176.917 107.537 168.494 104.921 160.092C94.9659 163.94 84.429 166.676 73.659 168.21C79.5043 161.74 85.0818 155.091 90.3774 148.281C90.7279 147.83 91.0934 147.304 90.932 146.78C90.7473 146.181 89.9783 145.89 89.3068 145.662C80.4839 142.666 73.5167 136.75 66.8125 130.986C75.7028 129.405 84.8434 128.864 93.9022 129.384C91.9178 129.271 87.1599 107.246 86.6268 104.827C88.8657 105.654 90.7005 108.335 92.5276 109.758C95.7101 112.238 98.9436 114.672 102.151 117.128C104.556 118.969 106.785 120.867 108.829 123.001C111.323 119.675 115.47 116.879 118.349 113.647C121.776 109.798 125.203 105.95 128.63 102.101Z" fill="white"/>
<path d="M128.06 102.101C128.629 109.549 129.197 116.997 129.766 124.445C129.797 124.842 130.221 125.022 130.626 124.869C138.247 121.983 146.142 119.631 154.206 117.841C156.497 117.332 158.802 116.87 161.117 116.451L160.473 115.731C156.431 121.252 152.372 126.764 148.295 132.267C147.13 133.839 145.964 135.41 144.796 136.98C144.645 137.183 144.724 137.55 145.001 137.651C151.624 140.075 157.925 143.134 163.751 146.766C165.408 147.799 167.022 148.88 168.597 150.003L168.712 149.233C161.677 151.926 153.735 151.461 146.308 152.697C144.21 153.046 142.147 153.537 140.175 154.248C139.908 154.344 139.66 154.576 139.776 154.851C142.028 160.18 143.08 165.808 144.358 171.349C144.717 172.91 145.095 174.467 145.519 176.016L145.918 175.413C145.047 175.571 144.228 175.172 143.519 174.78C142.738 174.347 141.984 173.875 141.219 173.421C139.652 172.49 138.085 171.559 136.518 170.628C133.384 168.766 130.25 166.904 127.115 165.042C125.324 163.978 123.533 162.915 121.742 161.851C121.454 161.679 120.97 161.846 120.903 162.144C119.53 168.325 117.421 174.38 114.605 180.19C113.799 181.853 112.929 183.493 112.008 185.112L113.052 185.229C111.151 178.644 109.196 172.071 107.186 165.51C106.619 163.66 106.048 161.81 105.472 159.962C105.369 159.63 104.962 159.542 104.633 159.669C96.9198 162.644 88.8576 164.95 80.6083 166.545C78.2552 167.001 75.8872 167.397 73.5079 167.737L74.0636 168.557C79.4535 162.587 84.623 156.473 89.5507 150.216C90.1295 149.481 90.8288 148.746 91.2706 147.942C91.6414 147.268 91.6432 146.515 91.013 145.954C90.4337 145.439 89.5676 145.236 88.8209 144.966C87.9178 144.64 87.0315 144.279 86.1618 143.892C82.7716 142.383 79.6545 140.461 76.7379 138.353C73.3971 135.939 70.3004 133.29 67.217 130.639L66.965 131.459C73.8629 130.238 80.9005 129.642 87.9436 129.686C89.9318 129.698 91.9189 129.763 93.9029 129.875C94.6437 129.917 94.6229 128.956 93.9029 128.894C94.2516 128.924 93.7647 128.862 94.0796 128.933C94.0712 128.931 94.017 128.896 94.0134 128.898C94.0525 128.877 94.1363 129.004 94.0354 128.904C94.0059 128.875 93.8934 128.756 94.01 128.889C93.8766 128.737 93.7703 128.568 93.672 128.398C93.3899 127.911 93.1633 127.352 92.933 126.751C92.2495 124.969 91.718 123.141 91.2058 121.318C90.0232 117.107 89.0138 112.86 88.0488 108.609C87.753 107.306 87.4656 106.001 87.1782 104.697L86.3393 105.251C87.8265 105.823 88.9062 106.977 89.9328 108.023C90.4611 108.561 90.9807 109.108 91.5467 109.618C92.2415 110.243 93.0209 110.803 93.7695 111.38C97.0232 113.889 100.377 116.314 103.552 118.897C105.276 120.299 106.914 121.776 108.426 123.348C108.673 123.605 109.14 123.491 109.323 123.249C111.372 120.542 114.237 118.39 116.757 116.021C118.107 114.752 119.3 113.381 120.515 112.016C121.857 110.51 123.199 109.003 124.541 107.496C126.068 105.78 127.596 104.065 129.124 102.349C129.57 101.848 128.579 101.359 128.138 101.854C125.454 104.868 122.77 107.882 120.086 110.896C118.834 112.301 117.619 113.733 116.241 115.051C114.972 116.264 113.621 117.412 112.313 118.594C110.874 119.896 109.479 121.246 108.336 122.754L109.233 122.655C106.484 119.796 103.293 117.339 100.071 114.885C98.3875 113.603 96.7027 112.322 95.0271 111.033C93.5957 109.932 92.2264 108.847 90.9888 107.583C89.8264 106.396 88.606 105.055 86.9157 104.404C86.4509 104.225 85.9798 104.517 86.0767 104.958C86.7756 108.13 87.4906 111.3 88.2593 114.462C89.2763 118.643 90.2613 122.888 91.8094 126.954C92.068 127.633 92.3422 128.323 92.7246 128.96C92.9767 129.379 93.309 129.824 93.9029 129.875V128.894C86.8048 128.493 79.6723 128.737 72.6325 129.612C70.6319 129.861 68.641 130.163 66.6612 130.513C66.232 130.589 66.1208 131.085 66.4092 131.333C71.6348 135.825 76.9604 140.381 83.3457 143.664C84.935 144.481 86.5842 145.21 88.2903 145.83C88.8865 146.046 89.9695 146.242 90.3113 146.769C90.5445 147.129 90.2504 147.538 90.0274 147.845C89.7376 148.243 89.4213 148.629 89.116 149.019C86.7666 152.017 84.3625 154.985 81.9047 157.919C79.0913 161.278 76.2081 164.594 73.2558 167.863C72.9011 168.256 73.223 168.767 73.8114 168.683C82.2652 167.473 90.5719 165.534 98.5715 162.893C100.81 162.154 103.022 161.359 105.21 160.515L104.371 160.222C106.411 166.776 108.398 173.342 110.329 179.921C110.874 181.776 111.414 183.632 111.95 185.489C112.063 185.881 112.776 185.99 112.994 185.607C116.246 179.891 118.819 173.893 120.634 167.725C121.153 165.964 121.608 164.189 122.005 162.404L121.166 162.697C127.714 166.587 134.262 170.477 140.811 174.367C142.375 175.297 144.166 176.731 146.222 176.358C146.532 176.302 146.688 176 146.621 175.755C145.105 170.23 144.198 164.592 142.506 159.102C142.036 157.579 141.503 156.071 140.877 154.59L140.478 155.193C147.664 152.602 155.635 153.097 163.148 151.751C165.259 151.373 167.318 150.834 169.289 150.08C169.608 149.957 169.668 149.498 169.404 149.31C163.805 145.316 157.696 141.859 151.196 139.044C149.351 138.245 147.477 137.5 145.577 136.805L145.782 137.475C149.869 131.979 153.939 126.472 157.99 120.956C159.148 119.38 160.304 117.803 161.459 116.226C161.739 115.842 161.278 115.422 160.814 115.505C152.551 117 144.433 119.069 136.564 121.698C134.373 122.431 132.201 123.207 130.049 124.022L130.908 124.445C130.339 116.997 129.771 109.55 129.202 102.102C129.154 101.475 128.012 101.47 128.06 102.101Z" fill="black"/>
<path d="M106.904 130.899C103.234 133.643 101.267 138.257 101.587 142.4C101.896 146.412 104.191 150.283 107.787 152.859C112.214 156.031 120.366 158.09 125.574 155.415C131.23 152.509 134.901 146.771 134.461 141.099C133.984 134.959 128.595 129.277 121.633 127.821C116.531 126.753 110.863 127.938 106.904 130.899Z" fill="white"/>
<path d="M106.499 130.552C103.787 132.601 102.035 135.523 101.333 138.545C100.608 141.67 101.078 144.875 102.603 147.776C104.079 150.582 106.535 152.971 109.604 154.563C112.537 156.084 115.985 157.051 119.422 157.132C121.046 157.17 122.711 156.997 124.237 156.502C125.864 155.974 127.319 155.085 128.614 154.098C131.259 152.083 133.237 149.413 134.272 146.511C135.298 143.637 135.338 140.535 134.275 137.664C133.258 134.916 131.334 132.408 128.795 130.52C126.161 128.56 122.933 127.31 119.457 127.012C115.748 126.695 111.901 127.472 108.727 129.145C107.94 129.559 107.198 130.034 106.499 130.552C105.942 130.965 106.753 131.656 107.307 131.245C109.966 129.275 113.406 128.116 116.908 127.947C120.252 127.786 123.529 128.542 126.322 130.128C131.648 133.152 134.757 138.772 133.724 144.223C133.19 147.038 131.721 149.717 129.556 151.878C127.481 153.948 124.791 155.696 121.568 156.065C118.388 156.429 115.045 155.764 112.161 154.618C109.176 153.432 106.625 151.639 104.838 149.252C102.972 146.76 101.973 143.796 102.143 140.829C102.308 137.959 103.501 135.049 105.589 132.792C106.106 132.233 106.683 131.717 107.307 131.245C107.86 130.828 107.05 130.136 106.499 130.552Z" fill="black"/>
<path d="M137.086 134.993C134.629 136.681 131.909 137.931 129.558 139.809C127.238 141.665 125.063 143.651 122.699 145.468C121.493 146.395 120.244 147.286 118.912 148.08C117.224 149.087 116.845 149.503 115.514 148.075C112.997 145.375 110.347 142.758 107.766 140.102C107.489 139.817 107.196 139.492 107.224 139.121C107.248 138.805 107.502 138.541 107.743 138.301C108.277 137.771 109.803 135.649 110.598 135.553C111.574 135.435 112.558 136.906 113.182 137.517C114.918 139.217 116.655 140.917 118.391 142.617C123.223 137.796 128.946 133.634 135.28 130.335C135.585 130.176 135.941 130.014 136.281 130.106C136.565 130.184 136.745 130.418 136.893 130.64C137.444 131.466 137.867 132.353 138.15 133.272C138.238 133.559 138.312 133.867 138.201 134.148C138.039 134.563 137.537 134.791 137.086 134.993Z" fill="black"/>
<path d="M136.682 134.647C135.132 135.704 133.45 136.605 131.846 137.599C130.179 138.633 128.694 139.816 127.227 141.049C124.286 143.523 121.398 145.999 118.01 148.027C117.762 148.175 117.504 148.346 117.224 148.447C117.057 148.508 116.959 148.528 116.818 148.478C116.551 148.385 116.333 148.148 116.151 147.968C115.81 147.633 115.496 147.277 115.17 146.932C113.808 145.494 112.416 144.078 111.023 142.663C110.326 141.956 109.629 141.249 108.935 140.54C108.62 140.217 108.266 139.903 107.989 139.556C107.676 139.162 107.86 138.948 108.18 138.614C108.929 137.832 109.502 136.9 110.389 136.219C110.463 136.161 110.538 136.103 110.627 136.062C110.688 136.035 110.661 136.016 110.78 136.042C111.085 136.108 111.333 136.344 111.538 136.534C112.105 137.057 112.568 137.659 113.117 138.196C114.741 139.785 116.364 141.375 117.987 142.964C118.18 143.153 118.603 143.155 118.795 142.964C121.214 140.555 123.849 138.308 126.676 136.252C128.091 135.223 129.553 134.243 131.06 133.315C131.802 132.858 132.555 132.414 133.317 131.982C134.093 131.542 134.876 131.06 135.701 130.691C135.931 130.588 136.084 130.513 136.263 130.698C136.415 130.855 136.518 131.065 136.628 131.245C136.874 131.649 137.09 132.066 137.27 132.495C137.433 132.887 137.673 133.355 137.684 133.776C137.695 134.216 137.19 134.394 136.797 134.57C136.146 134.863 136.722 135.71 137.374 135.417C138.276 135.011 138.958 134.463 138.792 133.519C138.632 132.607 138.17 131.687 137.687 130.871C137.233 130.104 136.616 129.309 135.474 129.701C135.006 129.862 134.575 130.128 134.149 130.357C133.697 130.6 133.249 130.847 132.804 131.099C129.289 133.085 125.976 135.341 122.921 137.826C121.19 139.235 119.545 140.72 117.987 142.271H118.795C117.209 140.718 115.624 139.166 114.038 137.613C113.502 137.088 113.035 136.519 112.504 135.991C112.027 135.518 111.381 135.01 110.597 135.062C109.989 135.103 109.507 135.558 109.131 135.929C108.666 136.388 108.252 136.887 107.837 137.381C107.448 137.845 106.858 138.296 106.692 138.875C106.426 139.803 107.509 140.601 108.127 141.233C109.625 142.764 111.138 144.284 112.629 145.82C113.392 146.606 114.15 147.396 114.897 148.194C115.354 148.681 115.866 149.296 116.62 149.452C117.291 149.59 117.905 149.274 118.439 148.961C119.315 148.448 120.173 147.912 121.003 147.345C122.767 146.139 124.405 144.806 126.013 143.452C127.808 141.94 129.544 140.338 131.535 139.013C133.468 137.726 135.574 136.648 137.489 135.34C138.064 134.947 137.251 134.258 136.682 134.647Z" fill="black"/>
<path d="M101.144 108.933C103.832 108.987 106.437 109.699 108.678 110.971C109.293 111.32 109.866 110.471 109.255 110.124C106.85 108.76 104.024 108.01 101.144 107.952C100.409 107.937 100.409 108.918 101.144 108.933Z" fill="black"/>
<path d="M202.411 81.2387C205.659 87.0915 208.886 92.9531 212.09 98.8236C215.282 104.672 218.453 110.528 221.602 116.394C223.382 119.71 225.155 123.029 226.921 126.351C227.226 126.924 228.211 126.426 227.907 125.856C224.771 119.958 221.613 114.069 218.434 108.188C215.266 102.331 212.076 96.4816 208.865 90.6413C207.049 87.3393 205.227 84.0402 203.397 80.7438C203.081 80.1743 202.096 80.6713 202.411 81.2387Z" fill="black"/>
<path d="M206.985 186.958C210.439 182.82 213.764 178.603 216.954 174.311C220.143 170.019 223.198 165.654 226.113 161.221C227.76 158.717 229.361 156.191 230.919 153.646C231.26 153.087 230.275 152.591 229.932 153.151C227.175 157.658 224.278 162.101 221.242 166.475C218.206 170.848 215.033 175.15 211.727 179.377C209.86 181.764 207.95 184.126 205.999 186.463C205.57 186.977 206.56 187.467 206.985 186.958Z" fill="black"/>
<path d="M181.451 217.51C183.379 218.003 185.119 219.087 186.554 220.271C188.027 221.487 189.404 223.008 189.838 224.759C190.015 225.473 189.982 226.232 189.65 226.91C189.235 227.759 188.399 228.397 187.498 228.862C185.168 230.064 182.229 230.21 179.581 230.288C178.183 230.329 176.785 230.325 175.387 230.343C173.766 230.363 172.146 230.446 170.527 230.502C166.718 230.634 162.907 230.734 159.096 230.803C151.621 230.939 144.126 230.958 136.674 230.367C134.816 230.219 132.961 230.034 131.114 229.8C129.57 229.604 128.022 229.376 126.536 228.956C123.872 228.203 121.424 226.628 120.99 224.104C120.803 223.012 121.115 221.887 122.028 221.086C123.09 220.154 124.677 219.745 126.142 219.564C126.955 219.464 127.807 219.445 128.62 219.56C129.31 219.657 130.103 219.824 130.652 220.217C130.951 220.432 131.496 220.943 131.262 221.317C130.981 221.768 130.339 221.286 130.109 221.056C129.628 220.577 129.497 219.948 129.443 219.335C129.382 218.63 129.452 217.922 129.627 217.232C129.973 215.864 130.658 214.578 131.498 213.385C132.977 211.282 135.018 209.468 137.404 208.113C142.643 205.137 149.339 204.597 155.173 206.577C157.849 207.485 160.569 208.976 161.959 211.211C162.612 212.262 162.928 213.506 162.618 214.683C162.465 215.263 162.177 215.822 161.705 216.263C161.581 216.378 161.316 216.679 161.129 216.576C160.926 216.464 160.978 216.017 160.997 215.854C161.144 214.591 162.297 213.585 163.551 213.027C164.932 212.412 166.576 212.187 168.115 212.113C169.476 212.048 170.924 212.126 172.177 212.627C173.518 213.162 174.378 214.14 174.8 215.342C175.016 215.958 175.139 216.595 175.216 217.235C175.249 217.501 175.312 217.783 175.231 218.046C175.202 218.143 175.131 218.224 175.099 218.316C175.098 218.317 175.037 218.395 175.032 218.388C174.98 218.311 175.389 218.493 175.152 218.348L175.357 219.019C176.384 217.085 179.381 217.006 181.451 217.51C182.159 217.683 182.462 216.737 181.754 216.565C179.22 215.947 175.613 216.185 174.371 218.524C174.234 218.783 174.303 219.027 174.576 219.195C175.217 219.588 175.895 219.173 176.183 218.649C176.537 218.004 176.38 217.301 176.272 216.622C176.042 215.176 175.525 213.694 174.258 212.661C171.88 210.723 167.968 210.885 165.013 211.528C163.295 211.901 161.673 212.642 160.661 213.926C159.967 214.805 159.174 216.839 160.668 217.488C161.472 217.837 162.246 217.258 162.72 216.747C163.222 216.207 163.565 215.566 163.732 214.889C164.073 213.516 163.764 212.108 163.035 210.864C161.509 208.259 158.347 206.572 155.271 205.563C151.918 204.462 148.236 204.157 144.694 204.632C138.144 205.51 132.206 209.373 129.48 214.569C128.701 216.055 128.159 217.691 128.301 219.335C128.407 220.56 129.004 222.246 130.682 222.459C131.394 222.549 132.093 222.202 132.351 221.62C132.607 221.039 132.327 220.41 131.909 219.942C130.867 218.775 128.889 218.48 127.273 218.507C124.005 218.56 120.186 219.878 119.823 223.027C119.505 225.786 121.769 228.177 124.526 229.314C126.116 229.97 127.839 230.325 129.57 230.578C131.584 230.872 133.617 231.085 135.649 231.262C139.809 231.625 143.989 231.789 148.169 231.842C156.666 231.949 165.179 231.698 173.666 231.367C176.844 231.243 180.034 231.395 183.195 231.021C185.86 230.706 188.932 229.923 190.396 227.803C191.609 226.048 191.029 223.953 189.897 222.289C188.645 220.448 186.75 218.892 184.667 217.749C183.762 217.253 182.786 216.828 181.754 216.565C181.048 216.384 180.747 217.33 181.451 217.51Z" fill="black"/>
<path d="M237.931 205.544C236.398 205.037 233.886 203.658 235.296 202.017C235.941 201.266 237.058 200.877 238.06 200.608C239.215 200.298 240.499 200.06 241.716 200.138C242.491 200.187 243.766 200.462 243.798 201.291L244.217 200.819C243.327 200.975 242.737 200.104 242.499 199.495C242.195 198.718 242.227 197.846 242.348 197.042C242.588 195.461 243.376 193.962 244.485 192.693C246.701 190.155 250.375 188.429 254.116 188.622C256.011 188.721 257.967 189.343 259.333 190.497C260.837 191.766 261.635 193.55 261.919 195.318C262.06 196.195 262.12 197.151 261.932 198.025C261.775 198.758 261.331 199.678 260.296 199.605C260.016 199.586 259.647 199.488 259.518 199.248C259.329 198.897 259.707 198.443 259.98 198.198C260.538 197.697 261.36 197.49 262.142 197.416C263.058 197.33 263.992 197.388 264.902 197.487C265.791 197.584 266.789 197.658 267.606 197.987C268.558 198.37 269.331 199.117 269.217 200.069C269.127 200.826 268.42 201.394 267.521 201.179C267.163 201.094 266.871 200.9 266.767 200.587L266.368 201.191C269.1 200.768 272.896 200.26 274.541 202.73C275.079 203.539 275.274 204.615 274.548 205.389C273.615 206.383 271.796 206.525 270.438 206.738C263.355 207.853 256.097 208.089 248.929 207.523C245.196 207.227 241.452 206.678 237.931 205.544C237.242 205.322 236.945 206.27 237.628 206.49C241.026 207.585 244.633 208.128 248.232 208.445C252.006 208.777 255.817 208.877 259.607 208.747C263.567 208.612 267.519 208.219 271.411 207.576C272.95 207.322 274.628 206.995 275.587 205.826C276.376 204.864 276.276 203.607 275.731 202.579C275.053 201.301 273.721 200.424 272.155 200.075C270.153 199.629 268.059 199.936 266.064 200.245C265.762 200.292 265.586 200.611 265.665 200.848C265.99 201.826 267.194 202.326 268.321 202.175C269.591 202.005 270.35 200.967 270.368 199.916C270.389 198.729 269.498 197.72 268.302 197.191C267.263 196.731 266.047 196.629 264.902 196.506C262.858 196.287 260.215 196.236 258.861 197.829C258.111 198.712 258.155 199.932 259.424 200.412C260.553 200.838 261.763 200.459 262.441 199.609C263.185 198.678 263.215 197.4 263.162 196.313C263.106 195.197 262.879 194.077 262.444 193.023C261.587 190.952 259.965 189.234 257.587 188.354C253.196 186.728 248.168 188.044 244.862 190.844C243.227 192.229 241.979 193.993 241.438 195.917C240.936 197.702 240.774 200.395 242.859 201.526C243.366 201.802 243.939 201.867 244.521 201.764C244.757 201.723 244.948 201.495 244.94 201.291C244.898 200.199 243.85 199.542 242.702 199.29C241.299 198.982 239.745 199.205 238.369 199.512C237.026 199.811 235.575 200.274 234.624 201.183C233.724 202.044 233.484 203.23 234.138 204.262C234.847 205.383 236.294 206.048 237.628 206.49C238.314 206.717 238.611 205.769 237.931 205.544Z" fill="black"/>
<path d="M234.394 89.5642C232.145 89.2142 229.107 88.6382 228.272 86.517C227.436 84.393 229.043 82.1958 231.467 81.5976C232.66 81.303 234.012 81.3336 235.164 81.749C235.676 81.9337 236.292 82.2586 236.435 82.757C236.52 83.056 236.347 83.5518 235.948 83.6322C235.463 83.7301 235.237 83.1301 235.191 82.825C235.118 82.3357 235.266 81.8009 235.489 81.353C235.987 80.354 236.97 79.5579 237.995 78.951C239.106 78.293 240.347 77.7662 241.67 77.5161C242.843 77.2945 244.346 77.3059 245.264 78.0772C245.166 77.9943 245.537 78.071 245.236 78.0473C245.2 78.0445 245.138 78.0607 245.101 78.0625C245.004 78.0675 244.902 78.0486 244.812 78.0168C244.55 77.9246 244.341 77.7178 244.189 77.5207C243.843 77.0732 243.687 76.5366 243.6 76.0106C243.418 74.9196 243.606 73.777 244.098 72.7613C245.118 70.6545 247.523 69.2412 250.167 69.1083C253.031 68.9644 255.411 70.4101 257.351 72.0701C259.104 73.5699 261.01 75.2198 261.704 77.321C262.03 78.3103 262.18 79.5995 261.732 80.5798C261.53 81.0222 261.016 81.2354 260.569 80.8581C260.106 80.4678 260.155 79.7864 260.37 79.307C261.302 77.2287 264.629 77.3157 266.73 77.5182C267.883 77.6293 269.028 77.83 270.154 78.0663C271.613 78.3723 273 78.8522 274.081 79.7739C275.483 80.97 277.125 83.965 274.675 85.0239C274.063 85.2885 273.336 85.3114 272.706 85.1348C272.463 85.0667 272.222 84.9511 272.062 84.7858C271.976 84.6971 271.921 84.5413 271.942 84.4397C272.125 83.5311 273.446 83.3202 274.361 83.3884C275.58 83.4793 276.769 83.9198 277.732 84.5603C278.722 85.218 279.554 86.1333 279.96 87.1559C280.169 87.68 280.303 88.2986 280.005 88.8177C279.699 89.352 279.005 89.6407 278.41 89.8864C275.7 91.0049 272.609 91.3036 269.635 91.3051C268.021 91.306 266.406 91.2221 264.792 91.1987C263.083 91.174 261.374 91.1704 259.665 91.165C252.864 91.1432 246.064 90.96 239.313 90.2143C237.667 90.0326 236.027 89.8146 234.394 89.5642C233.676 89.4539 233.367 90.3988 234.091 90.5097C242.101 91.738 250.235 92.1034 258.36 92.1407C260.417 92.1502 262.475 92.1485 264.532 92.1758C266.459 92.2013 268.388 92.3134 270.314 92.2797C272.11 92.2483 273.917 92.0956 275.665 91.7364C276.544 91.556 277.404 91.3195 278.237 91.0203C278.999 90.7465 279.784 90.4451 280.4 89.961C281.733 88.9147 281.383 87.2931 280.644 86.0565C279.943 84.883 278.807 83.8895 277.472 83.2399C276.198 82.6194 274.597 82.227 273.13 82.449C272.006 82.619 270.768 83.4644 270.798 84.5335C270.819 85.3117 271.574 85.837 272.37 86.0709C273.276 86.3372 274.325 86.2599 275.181 85.9009C276.351 85.4099 276.996 84.3664 277.05 83.2725C277.122 81.8272 276.27 80.3813 275.166 79.3303C273.978 78.1994 272.388 77.5473 270.691 77.171C269.29 76.8602 267.852 76.6267 266.411 76.5089C264.959 76.3903 263.395 76.3861 262.007 76.8209C260.633 77.2513 259.41 78.1897 259.135 79.4711C258.986 80.1613 259.118 80.9244 259.671 81.4662C260.194 81.9791 261.084 82.1974 261.819 81.9024C263.209 81.3439 263.207 79.4691 263.083 78.3642C262.781 75.6703 260.712 73.6184 258.599 71.7595C256.295 69.7337 253.451 67.8878 249.969 68.14C246.704 68.3765 243.897 70.1934 242.836 72.8674C242.335 74.132 242.254 75.5311 242.627 76.829C242.944 77.9278 244.072 79.4673 245.652 78.9575C246.493 78.6864 246.648 77.8728 246.024 77.3436C245.476 76.8788 244.657 76.5957 243.908 76.4872C242.294 76.2533 240.667 76.6368 239.209 77.2217C237.805 77.7847 236.433 78.5812 235.438 79.6113C234.499 80.5842 233.798 81.893 234.11 83.182C234.252 83.7645 234.669 84.3384 235.346 84.545C235.993 84.7427 236.675 84.5296 237.104 84.0874C238.175 82.9835 237.322 81.6091 236.02 81.0166C233.296 79.7776 229.459 80.4976 227.79 82.7649C226.982 83.8629 226.701 85.2642 227.082 86.5247C227.463 87.7841 228.548 88.7698 229.857 89.38C231.166 89.9902 232.637 90.2835 234.091 90.5097C234.809 90.6216 235.118 89.6767 234.394 89.5642Z" fill="black"/>
<path d="M122.78 74.9288C123.359 76.0347 123.308 77.1919 122.512 78.2037C121.749 79.1744 120.525 79.851 119.33 80.3725C117.981 80.961 116.369 80.8034 114.904 80.8131C113.048 80.8253 111.189 81.0421 109.332 81.1088C105.4 81.2501 101.456 81.1703 97.5355 80.8697C96.5454 80.7938 95.5559 80.7063 94.5697 80.5996C93.7827 80.5144 92.9744 80.4037 92.2369 80.1423C90.8763 79.66 89.9787 78.4835 90.1962 77.2029C90.4366 75.7884 92.0176 74.6887 93.3583 74.0036C94.1626 73.5925 96.6099 72.6246 96.8182 74.0806C96.8692 74.4367 96.6676 74.7826 96.1938 74.6343C95.5175 74.4227 95.2143 73.627 95.1669 73.0732C95.0563 71.7821 95.8746 70.5207 96.8524 69.5917C100.549 66.0797 107.963 65.4312 111.91 69.0188C113.005 70.0148 113.651 71.435 113.164 72.7917C112.99 73.276 112.498 74.0963 111.77 74.0046C110.881 73.8926 111.653 73.1948 112.028 73.0001C112.767 72.6167 113.697 72.4221 114.532 72.2602C115.417 72.0884 116.321 72.006 117.229 72.041C118.771 72.1005 120.324 72.5568 121.486 73.4485C122.034 73.8686 122.463 74.3602 122.78 74.9288C123.097 75.4978 124.082 75.0009 123.766 74.4338C122.965 72.9968 121.424 71.9771 119.697 71.4529C117.719 70.8522 115.52 70.9845 113.529 71.4674C112.587 71.6957 111.541 71.9616 110.822 72.5638C110.2 73.0847 109.947 73.917 110.582 74.5185C111.193 75.098 112.232 75.1068 112.96 74.691C113.765 74.2311 114.234 73.3864 114.392 72.5884C115.07 69.1636 111.205 66.6608 107.748 65.9413C104.483 65.2618 100.862 65.7956 98.0694 67.4077C96.6462 68.2292 95.3587 69.3377 94.6313 70.6861C93.8908 72.0588 93.6206 73.9729 95.0331 75.1242C95.6596 75.6349 96.6563 75.8747 97.3787 75.3604C97.9259 74.9708 98.0522 74.3146 97.9018 73.7427C97.7238 73.0658 97.1201 72.5741 96.3441 72.4055C95.405 72.2015 94.4301 72.4469 93.5793 72.7899C91.8076 73.5042 89.9517 74.7705 89.2644 76.3942C88.645 77.8575 89.2784 79.5784 90.7102 80.5125C92.3546 81.5853 94.7091 81.6138 96.6783 81.7812C99.0489 81.9826 101.429 82.1031 103.81 82.1426C106.171 82.1819 108.533 82.1417 110.89 82.0221C112.033 81.9641 113.175 81.8459 114.319 81.8048C115.268 81.7706 116.219 81.8194 117.169 81.7778C118.058 81.7388 118.933 81.6276 119.74 81.2906C120.507 80.9703 121.236 80.5846 121.908 80.1331C123.202 79.2636 124.237 78.0644 124.326 76.6128C124.373 75.8519 124.126 75.1208 123.766 74.4338C123.465 73.8592 122.48 74.3573 122.78 74.9288Z" fill="black"/>
<path d="M269.891 110.98C269.43 110.866 269.142 111.403 269.101 111.814C268.889 113.937 269.624 116.104 269.105 118.188C268.463 120.766 265.901 122.798 262.977 123.603C260.054 124.409 256.84 124.121 253.927 123.288C252.47 122.871 251.052 122.315 249.836 121.51C248.77 120.806 247.807 119.729 248.072 118.597C248.325 117.516 249.654 116.823 250.935 116.751C252.216 116.678 253.461 117.084 254.657 117.483C255.89 117.893 257.123 118.304 258.356 118.715C257.011 117.403 256.401 115.56 256.743 113.838C257.085 112.115 258.372 110.549 260.147 109.695C261.087 109.242 262.14 108.986 263.201 108.82C264.496 108.617 265.823 108.544 267.132 108.661C267.956 108.735 268.78 108.887 269.524 109.2C270.728 109.707 271.648 110.601 272.428 111.538C272.64 111.791 272.88 112.071 273.236 112.128C273.402 112.155 273.583 112.13 273.734 112.195C274.024 112.321 274.02 112.679 273.923 112.945C273.779 113.344 273.522 113.711 273.182 114.009C273.099 114.081 273.001 114.153 272.884 114.158C272.73 114.165 272.606 114.058 272.499 113.963C271.6 113.16 270.395 112.614 269.116 112.428" fill="black"/>
<path d="M270.043 110.507C268.357 110.25 268.463 112.306 268.503 113.203C268.566 114.634 268.855 116.074 268.661 117.506C268.346 119.837 266.394 121.723 263.998 122.727C261.14 123.926 257.74 123.749 254.762 122.999C253.232 122.613 251.737 122.081 250.432 121.283C249.453 120.684 248.174 119.573 248.721 118.434C249.348 117.128 251.352 117.112 252.676 117.413C253.577 117.618 254.442 117.934 255.309 118.223C256.274 118.545 257.239 118.866 258.204 119.187C258.783 119.381 259.093 118.7 258.759 118.368C257.444 117.058 256.904 115.204 257.404 113.523C257.896 111.867 259.296 110.485 261.13 109.825C262.19 109.444 263.365 109.248 264.505 109.153C265.678 109.055 266.9 109.056 268.055 109.283C269.145 109.498 270.052 109.96 270.833 110.642C271.17 110.936 271.479 111.254 271.766 111.585C272.059 111.925 272.325 112.307 272.78 112.504C272.878 112.546 272.978 112.579 273.085 112.601C273.177 112.612 273.27 112.623 273.363 112.631C273.515 112.654 273.532 112.645 273.413 112.602C273.446 112.781 273.297 113.01 273.205 113.159C273.16 113.231 273.109 113.305 273.055 113.373C273.003 113.444 272.944 113.51 272.877 113.571C272.715 113.67 272.751 113.709 272.986 113.688C273.007 113.666 272.424 113.233 272.393 113.211C271.49 112.572 270.421 112.135 269.268 111.955C268.549 111.843 268.241 112.788 268.964 112.9C270.187 113.091 271.206 113.573 272.095 114.31C272.559 114.694 273.102 114.754 273.585 114.355C274.027 113.991 274.391 113.452 274.512 112.936C274.621 112.475 274.488 111.962 273.954 111.747C273.735 111.659 273.47 111.708 273.265 111.616C273.027 111.508 272.864 111.219 272.709 111.041C271.965 110.187 271.107 109.377 270.003 108.862C268.806 108.305 267.411 108.136 266.065 108.117C264.654 108.097 263.205 108.255 261.846 108.582C259.463 109.156 257.529 110.519 256.594 112.506C255.553 114.716 256.159 117.276 257.952 119.061L258.507 118.242C256.758 117.659 255.013 116.977 253.212 116.524C251.74 116.153 250.078 116.095 248.781 116.903C247.54 117.677 247.144 118.954 247.778 120.156C248.429 121.391 249.874 122.242 251.229 122.848C256.745 125.319 265.016 125.537 268.652 120.443C269.588 119.131 269.906 117.651 269.86 116.127C269.833 115.244 269.715 114.364 269.66 113.482C269.635 113.065 269.622 112.647 269.642 112.23C269.651 112.044 269.647 111.85 269.711 111.67C269.759 111.537 269.893 111.476 269.739 111.453C270.458 111.562 270.767 110.617 270.043 110.507Z" fill="black"/>
<path d="M269.011 117.767C270.529 117.527 272.055 117.337 273.59 117.203C273.999 117.168 274.408 117.136 274.818 117.108C274.986 117.096 275.488 116.989 275.639 117.084C275.571 117.042 275.655 117.21 275.666 117.273C275.696 117.44 275.705 117.613 275.712 117.782C275.724 118.099 275.71 118.421 275.655 118.735C275.618 118.943 275.607 119.129 275.374 119.223C275.087 119.338 274.707 119.378 274.398 119.432C273.697 119.553 273.07 119.525 272.435 119.231C271.824 118.948 271.259 118.662 270.559 118.58C269.83 118.496 269.097 118.58 268.369 118.638C267.643 118.696 267.636 119.677 268.369 119.619C269.037 119.566 269.737 119.466 270.407 119.546C271.039 119.621 271.531 119.95 272.093 120.181C272.717 120.437 273.369 120.53 274.057 120.464C274.668 120.406 275.355 120.308 275.918 120.087C276.504 119.856 276.694 119.379 276.778 118.866C276.879 118.252 276.888 117.628 276.768 117.016C276.517 115.728 274.742 116.124 273.667 116.216C272.005 116.358 270.35 116.562 268.708 116.821C267.986 116.935 268.292 117.881 269.011 117.767Z" fill="black"/>
<path d="M272.213 122.235C272.198 122.425 272.236 122.627 272.32 122.804C272.422 123.02 272.557 123.213 272.751 123.38C273.095 123.674 273.594 123.869 274.086 123.839C274.239 123.829 274.379 123.79 274.49 123.695C274.589 123.61 274.663 123.471 274.657 123.348C274.65 123.222 274.602 123.09 274.49 123.002C274.383 122.917 274.236 122.849 274.086 122.858C274.013 122.862 273.941 122.861 273.869 122.853L274.02 122.871C273.919 122.859 273.821 122.836 273.726 122.803L273.862 122.852C273.756 122.813 273.657 122.763 273.566 122.703L273.681 122.779C273.591 122.718 273.509 122.647 273.438 122.569L273.528 122.668C273.462 122.593 273.407 122.513 273.364 122.426L273.421 122.544C273.382 122.462 273.355 122.378 273.341 122.291L273.361 122.421C273.352 122.359 273.35 122.297 273.355 122.235C273.364 122.114 273.284 121.971 273.188 121.888C273.089 121.803 272.926 121.739 272.784 121.744C272.636 121.75 272.483 121.792 272.38 121.888C272.274 121.987 272.223 122.099 272.213 122.235Z" fill="black"/>
<path d="M272.236 122.505C272.445 122.377 272.67 122.269 272.906 122.183L272.77 122.232C272.947 122.168 273.13 122.117 273.318 122.079C273.455 122.051 273.589 121.956 273.659 121.853C273.731 121.748 273.761 121.593 273.717 121.475C273.619 121.215 273.326 121.069 273.014 121.133C272.533 121.231 272.062 121.411 271.66 121.658C271.536 121.734 271.439 121.821 271.397 121.951C271.359 122.069 271.376 122.225 271.455 122.329C271.533 122.434 271.65 122.526 271.796 122.555C271.938 122.582 272.113 122.581 272.236 122.505Z" fill="black"/>
<path d="M270.406 132.975C272.259 132.351 274.246 132.52 276.183 132.663C278.277 132.818 280.33 132.809 282.407 132.503C283.13 132.397 282.823 131.452 282.103 131.558C280.021 131.864 277.962 131.813 275.867 131.659C273.937 131.516 271.943 131.409 270.102 132.03C269.426 132.258 269.72 133.206 270.406 132.975Z" fill="black"/>
<circle cx="326" cy="83" r="2" fill="#FF6B81"/>
<circle cx="6" cy="43" r="2" fill="#FF6B81"/>
<circle cx="175" cy="194" r="1" fill="#FF6B81"/>
<circle cx="5" cy="257" r="1" fill="#FF6B81"/>
</svg>
