<svg width="24" height="24" viewBox="0 0 24 24" fill="none" xmlns="http://www.w3.org/2000/svg">
<g opacity="0.4">
<path d="M11.2798 5.52051C10.8822 5.52051 10.5598 5.84286 10.5598 6.24051C10.5598 6.63815 10.8822 6.96051 11.2798 6.96051C13.799 6.96051 15.8411 9.00224 15.8411 11.5205C15.8411 11.9182 16.1634 12.2405 16.5611 12.2405C16.9587 12.2405 17.2811 11.9182 17.2811 11.5205C17.2811 8.20663 14.594 5.52051 11.2798 5.52051Z" fill="currentColor"
    stroke="currentColor"
    stroke-width="0"
    stroke-linecap="round"
    stroke-linejoin="round"/>
<path fill-rule="evenodd" clip-rule="evenodd" d="M2.3999 11.5191C2.3999 6.61578 6.37578 2.64111 11.2799 2.64111C16.1841 2.64111 20.1599 6.61578 20.1599 11.5191C20.1599 13.7124 19.3644 15.7199 18.0463 17.2689L21.3878 20.6109C21.669 20.8921 21.669 21.3479 21.3878 21.6291C21.1067 21.9103 20.6507 21.9103 20.3696 21.6291L17.0276 18.2868C15.4787 19.6031 13.472 20.3972 11.2799 20.3972C6.37578 20.3972 2.3999 16.4225 2.3999 11.5191ZM11.2799 4.08111C7.17074 4.08111 3.8399 7.4114 3.8399 11.5191C3.8399 15.627 7.17074 18.9572 11.2799 18.9572C15.3891 18.9572 18.7199 15.627 18.7199 11.5191C18.7199 7.4114 15.3891 4.08111 11.2799 4.08111Z" fill="currentColor"
    stroke="currentColor"
    stroke-width="1"
    stroke-linecap="round"
    stroke-linejoin="round"/>
</g>
</svg>
