<svg width="21" height="20" viewBox="0 0 21 20" fill="none" xmlns="http://www.w3.org/2000/svg">
<path d="M12.012 0.708102C11.116 0.0361016 9.88395 0.0361016 8.98795 0.708102L1.70795 6.1681C1.0734 6.64401 0.699951 7.3909 0.699951 8.18409V17.2801C0.699951 18.6719 1.82819 19.8001 3.21995 19.8001H7.97995C8.44385 19.8001 8.81995 19.424 8.81995 18.9601V15.6001C8.81995 14.6722 9.57214 13.9201 10.5 13.9201C11.4278 13.9201 12.1799 14.6722 12.1799 15.6001V18.9601C12.1799 19.424 12.556 19.8001 13.0199 19.8001H17.7799C19.1717 19.8001 20.2999 18.6719 20.2999 17.2801V8.18409C20.2999 7.3909 19.9265 6.64401 19.292 6.1681L12.012 0.708102Z" fill="currentColor"
    stroke="currentColor"
    stroke-width="2"
    stroke-linecap="round"
    stroke-linejoin="round"/>
</svg>
